{"glyphs":{"0":{"ha":764,"x_min":0,"x_max":0,"o":"m 382 -15 b 163 96 276 -15 207 29 b 86 486 101 186 86 325 b 163 876 86 647 101 786 b 382 988 207 943 276 988 b 601 876 488 988 557 943 b 678 486 663 786 678 647 b 601 96 678 325 663 188 b 382 -15 557 29 488 -15 m 196 486 b 249 164 196 361 203 240 b 382 89 275 118 317 89 b 515 164 447 89 489 118 b 568 486 560 240 568 361 b 515 808 568 611 560 732 b 382 883 489 854 447 883 b 249 808 317 883 275 854 b 196 486 203 732 196 611 "},"1":{"ha":764,"x_min":0,"x_max":0,"o":"m 149 0 b 121 28 133 0 121 13 l 121 76 b 149 104 121 92 133 104 l 367 104 l 367 796 b 342 806 367 810 351 815 l 163 640 b 117 661 149 626 117 631 l 117 704 b 133 751 117 725 118 735 l 354 957 b 388 972 363 965 375 972 l 444 972 b 472 944 460 972 472 960 l 472 104 l 650 104 b 678 76 665 104 678 92 l 678 28 b 650 0 678 13 665 0 l 149 0 "},"2":{"ha":764,"x_min":0,"x_max":0,"o":"m 139 0 b 111 28 124 0 111 13 l 111 99 b 126 138 111 115 114 122 l 438 494 b 539 714 499 564 539 622 b 385 888 539 803 492 888 b 226 726 278 888 226 804 l 226 713 b 199 685 226 697 214 685 l 147 685 b 119 713 132 685 119 697 l 119 725 b 385 988 119 874 225 988 b 647 714 546 988 647 879 b 522 435 647 614 601 521 l 256 128 b 265 104 246 118 249 104 l 639 104 b 667 76 654 104 667 92 l 667 28 b 639 0 667 13 654 0 l 139 0 "},"3":{"ha":764,"x_min":0,"x_max":0,"o":"m 383 -15 b 90 265 214 -15 90 110 l 90 282 b 118 310 90 297 103 310 l 169 310 b 197 282 185 310 197 297 l 197 265 b 383 88 197 167 271 88 b 565 276 500 88 565 172 b 383 456 565 371 511 456 l 371 456 b 343 483 356 456 343 468 l 343 531 b 371 558 343 546 356 558 l 383 558 b 546 721 486 558 546 632 b 383 885 546 807 496 885 b 217 728 271 885 217 803 l 217 714 b 189 686 217 699 204 686 l 139 686 b 111 714 124 686 111 699 l 111 728 b 383 988 111 874 225 988 b 653 721 550 988 653 878 b 574 526 653 644 625 574 b 572 494 563 517 560 503 b 674 275 640 442 674 361 b 383 -15 674 106 554 -15 "},"4":{"ha":764,"x_min":0,"x_max":0,"o":"m 506 0 b 478 28 490 0 478 13 l 478 199 b 464 213 478 207 472 213 l 92 213 b 64 240 76 213 64 225 l 64 290 b 83 349 64 310 71 325 l 446 953 b 475 972 454 968 460 972 l 553 972 b 581 944 568 972 581 960 l 581 329 b 594 315 581 321 586 315 l 669 315 b 697 288 685 315 697 303 l 697 240 b 669 213 697 225 685 213 l 594 213 b 581 199 586 213 581 207 l 581 28 b 553 0 581 13 568 0 l 506 0 m 194 339 b 206 315 188 326 193 315 l 464 315 b 478 329 472 315 478 321 l 478 771 b 451 778 478 788 458 790 l 194 339 "},"5":{"ha":764,"x_min":0,"x_max":0,"o":"m 375 -15 b 99 232 218 -15 99 92 b 126 260 99 249 110 260 l 175 260 b 204 232 194 260 204 251 b 375 88 207 154 285 88 b 558 311 488 88 558 163 b 379 528 558 460 488 528 b 236 444 315 528 261 503 b 208 429 229 433 222 429 l 147 429 b 119 457 132 429 119 442 l 119 944 b 147 972 119 960 132 972 l 603 972 b 631 944 618 972 631 960 l 631 896 b 603 868 631 881 618 868 l 233 868 b 219 854 225 868 219 863 l 219 599 b 250 588 219 582 233 575 b 394 631 289 615 335 631 b 667 313 551 631 667 518 b 375 -15 667 107 549 -15 "},"6":{"ha":764,"x_min":0,"x_max":0,"o":"m 390 -15 b 85 483 139 -15 85 225 b 404 988 85 750 150 988 b 671 742 565 988 671 888 b 643 714 671 726 658 714 l 593 714 b 564 742 578 714 565 728 b 404 883 554 836 503 883 b 200 575 249 883 197 735 b 224 565 200 563 214 557 b 408 631 275 608 336 631 b 681 310 568 631 681 497 b 390 -15 681 113 565 -15 m 208 308 b 390 88 208 178 282 88 b 571 308 496 88 571 179 b 390 528 571 442 499 528 b 208 308 281 528 208 442 "},"7":{"ha":764,"x_min":0,"x_max":0,"o":"m 232 0 b 207 33 207 0 201 21 l 553 854 b 543 868 556 861 551 868 l 128 868 b 100 896 113 868 100 881 l 100 944 b 128 972 100 960 113 972 l 639 972 b 667 944 654 972 667 960 l 667 871 b 660 843 667 863 665 856 l 319 21 b 293 0 314 8 306 0 l 232 0 "},"8":{"ha":764,"x_min":0,"x_max":0,"o":"m 382 -15 b 81 271 199 -15 81 111 b 193 493 81 361 122 444 b 192 522 204 500 201 513 b 106 721 139 575 106 642 b 382 988 106 869 210 988 b 658 721 554 988 658 869 b 572 522 658 642 625 575 b 571 493 563 513 560 500 b 683 271 642 444 683 361 b 382 -15 683 111 565 -15 m 188 271 b 382 88 188 168 263 88 b 574 271 500 88 574 168 b 382 456 574 372 500 456 b 188 271 263 456 188 372 m 213 721 b 382 557 213 629 276 557 b 551 721 488 557 551 629 b 382 885 551 811 488 885 b 213 721 276 885 213 811 "},"9":{"ha":764,"x_min":0,"x_max":0,"o":"m 375 988 b 681 489 626 988 681 747 b 361 -15 681 222 615 -15 b 94 231 200 -15 94 85 b 122 258 94 246 107 258 l 172 258 b 201 231 188 258 200 244 b 361 89 211 136 263 89 b 565 397 517 89 568 238 b 542 407 565 410 551 415 b 357 342 490 364 429 342 b 85 663 197 342 85 475 b 375 988 85 860 200 988 m 194 664 b 375 444 194 531 267 444 b 557 664 485 444 557 531 b 375 885 557 794 483 885 b 194 664 269 885 194 793 "},"\u0000":{"ha":0,"x_min":0,"x_max":0,"o":""}," ":{"ha":764,"x_min":0,"x_max":0,"o":""}," ":{"ha":764,"x_min":0,"x_max":0,"o":""},"A":{"ha":764,"x_min":0,"x_max":0,"o":"m 78 0 b 51 36 58 0 47 18 l 310 950 b 338 972 314 965 325 972 l 426 972 b 454 950 439 972 450 965 l 713 36 b 686 0 717 18 706 0 l 629 0 b 603 21 617 0 607 7 l 539 244 b 522 260 538 254 532 260 l 242 260 b 225 244 232 260 228 254 l 161 21 b 135 0 157 7 147 0 l 78 0 m 260 382 b 272 364 257 374 263 364 l 492 364 b 504 382 501 364 507 374 l 393 800 b 371 800 389 813 375 813 l 260 382 "},"B":{"ha":764,"x_min":0,"x_max":0,"o":"m 150 0 b 122 28 135 0 122 13 l 122 944 b 150 972 122 960 135 972 l 418 972 b 679 713 563 972 679 863 b 593 528 679 644 649 574 b 593 497 582 518 582 506 b 699 285 657 451 699 368 b 418 0 699 122 572 0 l 150 0 m 231 121 b 244 107 231 113 236 107 l 415 107 b 586 283 511 107 586 186 b 415 457 586 379 511 457 l 244 457 b 231 443 236 457 231 451 l 231 121 m 231 574 b 244 560 231 565 236 560 l 421 560 b 568 713 503 560 568 628 b 421 867 568 797 503 867 l 244 867 b 231 853 236 867 231 861 l 231 574 "},"C":{"ha":764,"x_min":0,"x_max":0,"o":"m 406 -15 b 124 163 269 -15 171 58 b 83 486 89 238 83 350 b 124 810 83 622 88 735 b 406 988 171 913 269 988 b 715 686 593 988 715 860 b 688 658 715 671 703 658 l 629 658 b 601 686 614 658 601 671 b 406 878 601 796 529 878 b 222 754 329 878 258 839 b 196 486 199 694 196 589 b 222 218 196 383 197 278 b 406 94 258 135 329 94 b 601 286 529 94 601 176 b 629 314 601 301 614 314 l 688 314 b 715 286 703 314 715 301 b 406 -15 715 113 593 -15 "},"D":{"ha":764,"x_min":0,"x_max":0,"o":"m 133 0 b 106 28 118 0 106 13 l 106 944 b 133 972 106 960 118 972 l 365 972 b 646 808 501 972 597 903 b 689 486 685 733 689 619 b 646 164 689 353 685 239 b 365 0 597 69 501 0 l 133 0 m 215 122 b 229 108 215 114 221 108 l 365 108 b 549 222 442 108 513 144 b 576 486 575 282 576 386 b 549 750 576 586 575 690 b 365 864 513 829 442 864 l 229 864 b 215 850 221 864 215 858 l 215 122 "},"E":{"ha":764,"x_min":0,"x_max":0,"o":"m 172 0 b 144 28 157 0 144 13 l 144 944 b 172 972 144 960 157 972 l 644 972 b 672 944 660 972 672 960 l 672 892 b 644 864 672 876 660 864 l 267 864 b 253 850 258 864 253 858 l 253 569 b 267 556 253 561 258 556 l 631 556 b 658 528 646 556 658 543 l 658 476 b 631 449 658 461 646 449 l 267 449 b 253 435 258 449 253 443 l 253 122 b 267 108 253 114 258 108 l 649 108 b 676 81 664 108 676 96 l 676 28 b 649 0 676 13 664 0 l 172 0 "},"F":{"ha":764,"x_min":0,"x_max":0,"o":"m 186 0 b 158 28 171 0 158 13 l 158 944 b 186 972 158 960 171 972 l 656 972 b 683 944 671 972 683 960 l 683 892 b 656 864 683 876 671 864 l 281 864 b 267 850 272 864 267 858 l 267 563 b 281 549 267 554 272 549 l 640 549 b 668 521 656 549 668 536 l 668 469 b 640 442 668 454 656 442 l 281 442 b 267 428 272 442 267 436 l 267 28 b 239 0 267 13 254 0 l 186 0 "},"G":{"ha":764,"x_min":0,"x_max":0,"o":"m 396 -15 b 108 163 257 -15 157 60 b 67 486 71 239 67 350 b 108 810 67 622 71 733 b 396 988 157 913 257 988 b 703 700 582 988 703 864 b 675 672 703 685 690 672 l 618 672 b 590 700 603 672 590 685 b 396 878 589 803 518 878 b 207 754 317 878 243 839 b 181 486 182 694 181 589 b 207 218 181 383 182 278 b 396 93 243 132 317 93 b 590 300 519 93 590 168 l 590 378 b 576 392 590 386 585 392 l 424 392 b 396 419 408 392 396 404 l 396 471 b 424 499 396 486 408 499 l 675 499 b 703 471 690 499 703 486 l 703 308 b 396 -15 703 101 586 -15 "},"H":{"ha":764,"x_min":0,"x_max":0,"o":"m 126 0 b 99 28 111 0 99 13 l 99 944 b 126 972 99 960 111 972 l 179 972 b 207 944 194 972 207 960 l 207 571 b 221 557 207 563 213 557 l 543 557 b 557 571 551 557 557 563 l 557 944 b 585 972 557 960 569 972 l 638 972 b 665 944 653 972 665 960 l 665 28 b 638 0 665 13 653 0 l 585 0 b 557 28 569 0 557 13 l 557 435 b 543 449 557 443 551 449 l 221 449 b 207 435 213 449 207 443 l 207 28 b 178 0 207 13 193 0 l 126 0 "},"I":{"ha":764,"x_min":0,"x_max":0,"o":"m 132 0 b 104 28 117 0 104 13 l 104 81 b 132 108 104 96 117 108 l 328 108 l 328 864 l 146 864 b 118 892 131 864 118 876 l 118 944 b 146 972 118 960 131 972 l 618 972 b 646 944 633 972 646 960 l 646 892 b 618 864 646 876 633 864 l 436 864 l 436 108 l 632 108 b 660 81 647 108 660 96 l 660 28 b 632 0 660 13 647 0 l 132 0 "},"J":{"ha":764,"x_min":0,"x_max":0,"o":"m 350 -15 b 58 296 190 -15 58 99 l 58 313 b 86 340 58 328 72 340 l 142 340 b 169 313 157 340 169 328 l 169 296 b 350 94 169 160 243 94 b 531 296 457 94 531 160 l 531 944 b 558 972 531 960 543 972 l 613 972 b 640 944 628 972 640 960 l 640 296 b 350 -15 640 99 514 -15 "},"K":{"ha":764,"x_min":0,"x_max":0,"o":"m 161 0 b 133 28 146 0 133 13 l 133 944 b 161 972 133 960 146 972 l 214 972 b 242 944 229 972 242 960 l 242 560 b 261 554 242 549 254 546 l 601 957 b 638 972 610 967 621 972 l 685 972 b 706 922 714 972 722 943 l 369 518 b 369 478 358 506 356 493 l 713 51 b 690 0 732 29 722 0 l 635 0 b 599 18 621 0 608 6 l 261 432 b 242 426 254 440 242 438 l 242 28 b 214 0 242 13 229 0 l 161 0 "},"L":{"ha":764,"x_min":0,"x_max":0,"o":"m 197 0 b 169 28 182 0 169 13 l 169 944 b 197 972 169 960 182 972 l 250 972 b 278 944 265 972 278 960 l 278 122 b 292 108 278 114 283 108 l 676 108 b 704 81 692 108 704 96 l 704 28 b 676 0 704 13 692 0 l 197 0 "},"M":{"ha":764,"x_min":0,"x_max":0,"o":"m 115 0 b 88 28 100 0 88 13 l 88 944 b 115 972 88 960 100 972 l 215 972 b 244 949 231 972 239 965 l 371 535 b 394 535 375 521 390 519 l 519 949 b 549 972 525 965 533 972 l 649 972 b 676 944 664 972 676 960 l 676 28 b 649 0 676 13 664 0 l 604 0 b 576 28 589 0 576 13 l 576 763 b 554 765 576 776 558 779 l 439 374 b 407 339 432 346 422 339 l 357 339 b 325 374 342 339 332 346 l 210 765 b 188 763 206 779 188 776 l 188 28 b 160 0 188 13 175 0 l 115 0 "},"N":{"ha":764,"x_min":0,"x_max":0,"o":"m 126 0 b 99 28 111 0 99 13 l 99 944 b 126 972 99 960 111 972 l 219 972 b 249 949 235 972 242 967 l 535 238 b 557 240 540 225 557 228 l 557 944 b 585 972 557 960 569 972 l 638 972 b 665 944 653 972 665 960 l 665 28 b 638 0 665 13 653 0 l 544 0 b 515 24 529 0 522 6 l 229 735 b 207 732 224 747 207 744 l 207 28 b 179 0 207 13 194 0 l 126 0 "},"O":{"ha":764,"x_min":0,"x_max":0,"o":"m 382 -15 b 101 163 246 -15 149 60 b 63 486 65 238 63 350 b 101 810 63 622 65 735 b 382 988 149 913 246 988 b 663 810 518 988 615 913 b 701 486 699 735 701 622 b 663 163 701 350 699 238 b 382 -15 615 60 518 -15 m 175 486 b 200 218 175 383 176 278 b 382 94 235 133 306 94 b 564 218 458 94 529 133 b 589 486 588 276 589 383 b 564 754 589 589 588 696 b 382 878 529 839 458 878 b 200 754 306 878 235 839 b 175 486 176 694 175 589 "},"P":{"ha":764,"x_min":0,"x_max":0,"o":"m 161 0 b 133 28 146 0 133 13 l 133 944 b 161 972 133 960 146 972 l 426 972 b 703 688 581 972 703 847 b 426 400 703 526 581 400 l 256 400 b 242 386 247 400 242 394 l 242 28 b 214 0 242 13 229 0 l 161 0 m 242 522 b 256 508 242 514 247 508 l 425 508 b 590 688 517 508 590 589 b 425 864 590 785 517 864 l 256 864 b 242 850 247 864 242 858 l 242 522 "},"Q":{"ha":764,"x_min":0,"x_max":0,"o":"m 382 -15 b 101 163 246 -15 149 60 b 63 486 65 238 63 350 b 101 810 63 622 65 735 b 382 988 149 913 246 988 b 663 810 518 988 615 913 b 701 486 699 735 701 622 b 663 163 701 350 699 238 b 588 60 644 124 619 88 l 682 -112 b 657 -153 689 -125 682 -153 l 606 -153 b 564 -119 589 -153 579 -146 l 493 3 b 382 -15 460 -8 422 -15 m 175 486 b 200 218 175 383 176 278 b 382 94 235 133 306 94 b 564 218 458 94 529 133 b 589 486 588 276 589 383 b 564 754 589 589 588 696 b 382 878 529 839 458 878 b 200 754 306 878 235 839 b 175 486 176 694 175 589 "},"R":{"ha":764,"x_min":0,"x_max":0,"o":"m 144 0 b 117 28 129 0 117 13 l 117 944 b 144 972 117 960 129 972 l 403 972 b 686 688 563 972 686 857 b 524 428 686 565 613 476 b 513 385 501 418 501 406 l 682 44 b 658 0 694 21 682 0 l 606 0 b 565 28 583 0 574 11 l 388 385 b 363 401 383 393 378 401 l 239 401 b 225 388 231 401 225 396 l 225 28 b 197 0 225 13 213 0 l 144 0 m 225 522 b 239 508 225 514 231 508 l 403 508 b 575 688 499 508 575 589 b 403 864 575 796 499 864 l 239 864 b 225 850 231 864 225 858 l 225 522 "},"S":{"ha":764,"x_min":0,"x_max":0,"o":"m 389 -15 b 78 279 208 -15 78 89 l 78 288 b 106 315 78 303 90 315 l 163 315 b 190 288 178 315 190 303 l 190 279 b 388 92 190 161 275 92 b 578 263 501 92 578 163 b 421 438 578 357 519 407 l 314 469 b 107 729 201 503 107 576 b 393 988 107 885 236 988 b 675 729 553 988 675 886 l 675 713 b 647 685 675 697 663 685 l 593 685 b 565 713 578 685 565 697 l 565 729 b 393 881 565 824 499 881 b 219 731 292 881 219 825 b 363 569 219 636 288 592 l 467 538 b 689 265 599 496 689 418 b 389 -15 689 106 567 -15 "},"T":{"ha":764,"x_min":0,"x_max":0,"o":"m 356 0 b 328 28 340 0 328 13 l 328 850 b 314 864 328 858 322 864 l 89 864 b 61 892 74 864 61 876 l 61 944 b 89 972 61 960 74 972 l 675 972 b 703 944 690 972 703 960 l 703 892 b 675 864 703 876 690 864 l 450 864 b 436 850 442 864 436 858 l 436 28 b 408 0 436 13 424 0 l 356 0 "},"U":{"ha":764,"x_min":0,"x_max":0,"o":"m 382 -15 b 90 276 222 -15 90 85 l 90 944 b 118 972 90 960 103 972 l 171 972 b 199 944 186 972 199 960 l 199 276 b 382 94 199 157 279 94 b 565 276 485 94 565 157 l 565 944 b 593 972 565 960 578 972 l 646 972 b 674 944 661 972 674 960 l 674 276 b 382 -15 674 85 542 -15 "},"V":{"ha":764,"x_min":0,"x_max":0,"o":"m 332 0 b 306 21 319 0 310 7 l 68 932 b 94 972 64 949 71 972 l 150 972 b 176 951 163 972 172 967 l 371 196 b 393 196 374 183 390 183 l 589 951 b 615 972 593 967 603 972 l 671 972 b 697 932 694 972 701 949 l 458 21 b 432 0 454 7 444 0 l 332 0 "},"W":{"ha":764,"x_min":0,"x_max":0,"o":"m 179 0 b 153 21 167 0 154 7 l 44 939 b 75 972 43 956 53 972 l 121 972 b 147 951 133 972 146 967 l 224 222 b 246 222 225 210 243 210 l 324 675 b 350 696 325 689 338 696 l 414 696 b 440 675 426 696 439 689 l 518 222 b 540 222 521 210 540 210 l 617 951 b 643 972 618 967 631 972 l 689 972 b 719 939 711 972 721 956 l 611 21 b 585 0 610 7 597 0 l 499 0 b 472 21 486 0 475 7 l 393 447 b 371 447 390 460 374 460 l 293 21 b 267 0 290 7 279 0 l 179 0 "},"X":{"ha":764,"x_min":0,"x_max":0,"o":"m 99 0 b 76 42 71 0 67 22 l 306 478 b 307 504 311 488 311 494 l 83 932 b 106 972 74 951 79 972 l 168 972 b 194 951 181 972 186 967 l 372 607 b 393 607 376 599 389 599 l 569 951 b 596 972 578 967 583 972 l 658 972 b 681 932 686 972 690 950 l 457 504 b 458 478 453 494 453 488 l 688 42 b 665 0 697 22 693 0 l 601 0 b 574 21 588 0 582 6 l 393 374 b 372 374 389 382 376 382 l 190 21 b 163 0 182 6 176 0 l 99 0 "},"Y":{"ha":764,"x_min":0,"x_max":0,"o":"m 356 0 b 328 28 340 0 328 13 l 328 349 l 58 932 b 83 972 49 953 65 972 l 140 972 b 167 951 153 972 160 967 l 372 499 b 393 499 376 490 389 490 l 597 951 b 624 972 604 967 611 972 l 681 972 b 706 932 699 972 715 953 l 436 349 l 436 28 b 408 0 436 13 424 0 l 356 0 "},"Z":{"ha":764,"x_min":0,"x_max":0,"o":"m 119 0 b 92 28 104 0 92 13 l 92 111 b 99 135 92 119 94 126 l 536 846 b 526 864 540 853 538 864 l 119 864 b 92 892 104 864 92 876 l 92 944 b 119 972 92 960 104 972 l 638 972 b 665 944 653 972 665 960 l 665 864 b 658 840 665 856 663 849 l 225 126 b 235 108 221 119 224 108 l 651 108 b 679 81 667 108 679 96 l 679 28 b 651 0 679 13 667 0 l 119 0 "},"Á":{"ha":764,"x_min":0,"x_max":0,"o":"m 78 0 b 51 36 58 0 47 18 l 310 950 b 338 972 314 965 325 972 l 426 972 b 454 950 439 972 450 965 l 713 36 b 686 0 717 18 706 0 l 629 0 b 603 21 617 0 607 7 l 539 244 b 522 260 538 254 532 260 l 242 260 b 225 244 232 260 228 254 l 161 21 b 135 0 157 7 147 0 l 78 0 m 260 382 b 272 364 257 374 263 364 l 492 364 b 504 382 501 364 507 374 l 393 800 b 371 800 389 813 375 813 l 260 382 "},"Ă":{"ha":764,"x_min":0,"x_max":0,"o":"m 78 0 b 51 36 58 0 47 18 l 310 950 b 338 972 314 965 325 972 l 426 972 b 454 950 439 972 450 965 l 713 36 b 686 0 717 18 706 0 l 629 0 b 603 21 617 0 607 7 l 539 244 b 522 260 538 254 532 260 l 242 260 b 225 244 232 260 228 254 l 161 21 b 135 0 157 7 147 0 l 78 0 m 260 382 b 272 364 257 374 263 364 l 492 364 b 504 382 501 364 507 374 l 393 800 b 371 800 389 813 375 813 l 260 382 "},"Â":{"ha":764,"x_min":0,"x_max":0,"o":"m 78 0 b 51 36 58 0 47 18 l 310 950 b 338 972 314 965 325 972 l 426 972 b 454 950 439 972 450 965 l 713 36 b 686 0 717 18 706 0 l 629 0 b 603 21 617 0 607 7 l 539 244 b 522 260 538 254 532 260 l 242 260 b 225 244 232 260 228 254 l 161 21 b 135 0 157 7 147 0 l 78 0 m 260 382 b 272 364 257 374 263 364 l 492 364 b 504 382 501 364 507 374 l 393 800 b 371 800 389 813 375 813 l 260 382 "},"Ä":{"ha":764,"x_min":0,"x_max":0,"o":"m 78 0 b 51 36 58 0 47 18 l 310 950 b 338 972 314 965 325 972 l 426 972 b 454 950 439 972 450 965 l 713 36 b 686 0 717 18 706 0 l 629 0 b 603 21 617 0 607 7 l 539 244 b 522 260 538 254 532 260 l 242 260 b 225 244 232 260 228 254 l 161 21 b 135 0 157 7 147 0 l 78 0 m 260 382 b 272 364 257 374 263 364 l 492 364 b 504 382 501 364 507 374 l 393 800 b 371 800 389 813 375 813 l 260 382 "},"Æ":{"ha":1528,"x_min":0,"x_max":0,"o":"m 78 0 b 51 36 58 0 47 18 l 310 950 b 338 972 314 965 325 972 l 426 972 b 454 950 439 972 450 965 l 713 36 b 686 0 717 18 706 0 l 629 0 b 603 21 617 0 607 7 l 539 244 b 522 260 538 254 532 260 l 242 260 b 225 244 232 260 228 254 l 161 21 b 135 0 157 7 147 0 l 78 0 m 260 382 b 272 364 257 374 263 364 l 492 364 b 504 382 501 364 507 374 l 393 800 b 371 800 389 813 375 813 l 260 382 m 908 944 b 936 972 908 960 921 972 l 1408 972 b 1436 944 1424 972 1436 960 l 1436 892 b 1408 864 1436 876 1424 864 l 1031 864 b 1017 850 1022 864 1017 858 l 1017 569 b 1031 556 1017 561 1022 556 l 1394 556 b 1422 528 1410 556 1422 543 l 1422 476 b 1394 449 1422 461 1410 449 l 1031 449 b 1017 435 1022 449 1017 443 l 1017 122 b 1031 108 1017 114 1022 108 l 1413 108 b 1440 81 1428 108 1440 96 l 1440 28 b 1413 0 1440 13 1428 0 l 936 0 b 908 28 921 0 908 13 "},"Ǽ":{"ha":1528,"x_min":0,"x_max":0,"o":"m 78 0 b 51 36 58 0 47 18 l 310 950 b 338 972 314 965 325 972 l 426 972 b 454 950 439 972 450 965 l 713 36 b 686 0 717 18 706 0 l 629 0 b 603 21 617 0 607 7 l 539 244 b 522 260 538 254 532 260 l 242 260 b 225 244 232 260 228 254 l 161 21 b 135 0 157 7 147 0 l 78 0 m 260 382 b 272 364 257 374 263 364 l 492 364 b 504 382 501 364 507 374 l 393 800 b 371 800 389 813 375 813 l 260 382 m 908 944 b 936 972 908 960 921 972 l 1408 972 b 1436 944 1424 972 1436 960 l 1436 892 b 1408 864 1436 876 1424 864 l 1031 864 b 1017 850 1022 864 1017 858 l 1017 569 b 1031 556 1017 561 1022 556 l 1394 556 b 1422 528 1410 556 1422 543 l 1422 476 b 1394 449 1422 461 1410 449 l 1031 449 b 1017 435 1022 449 1017 443 l 1017 122 b 1031 108 1017 114 1022 108 l 1413 108 b 1440 81 1428 108 1440 96 l 1440 28 b 1413 0 1440 13 1428 0 l 936 0 b 908 28 921 0 908 13 "},"À":{"ha":764,"x_min":0,"x_max":0,"o":"m 78 0 b 51 36 58 0 47 18 l 310 950 b 338 972 314 965 325 972 l 426 972 b 454 950 439 972 450 965 l 713 36 b 686 0 717 18 706 0 l 629 0 b 603 21 617 0 607 7 l 539 244 b 522 260 538 254 532 260 l 242 260 b 225 244 232 260 228 254 l 161 21 b 135 0 157 7 147 0 l 78 0 m 260 382 b 272 364 257 374 263 364 l 492 364 b 504 382 501 364 507 374 l 393 800 b 371 800 389 813 375 813 l 260 382 "},"Ā":{"ha":764,"x_min":0,"x_max":0,"o":"m 78 0 b 51 36 58 0 47 18 l 310 950 b 338 972 314 965 325 972 l 426 972 b 454 950 439 972 450 965 l 713 36 b 686 0 717 18 706 0 l 629 0 b 603 21 617 0 607 7 l 539 244 b 522 260 538 254 532 260 l 242 260 b 225 244 232 260 228 254 l 161 21 b 135 0 157 7 147 0 l 78 0 m 260 382 b 272 364 257 374 263 364 l 492 364 b 504 382 501 364 507 374 l 393 800 b 371 800 389 813 375 813 l 260 382 "},"Ą":{"ha":764,"x_min":0,"x_max":0,"o":"m 78 0 b 51 36 58 0 47 18 l 310 950 b 338 972 314 965 325 972 l 426 972 b 454 950 439 972 450 965 l 713 36 b 686 0 717 18 706 0 l 629 0 b 603 21 617 0 607 7 l 539 244 b 522 260 538 254 532 260 l 242 260 b 225 244 232 260 228 254 l 161 21 b 135 0 157 7 147 0 l 78 0 m 260 382 b 272 364 257 374 263 364 l 492 364 b 504 382 501 364 507 374 l 393 800 b 371 800 389 813 375 813 l 260 382 "},"Å":{"ha":764,"x_min":0,"x_max":0,"o":"m 78 0 b 51 36 58 0 47 18 l 310 950 b 338 972 314 965 325 972 l 426 972 b 454 950 439 972 450 965 l 713 36 b 686 0 717 18 706 0 l 629 0 b 603 21 617 0 607 7 l 539 244 b 522 260 538 254 532 260 l 242 260 b 225 244 232 260 228 254 l 161 21 b 135 0 157 7 147 0 l 78 0 m 260 382 b 272 364 257 374 263 364 l 492 364 b 504 382 501 364 507 374 l 393 800 b 371 800 389 813 375 813 l 260 382 "},"Ã":{"ha":764,"x_min":0,"x_max":0,"o":"m 78 0 b 51 36 58 0 47 18 l 310 950 b 338 972 314 965 325 972 l 426 972 b 454 950 439 972 450 965 l 713 36 b 686 0 717 18 706 0 l 629 0 b 603 21 617 0 607 7 l 539 244 b 522 260 538 254 532 260 l 242 260 b 225 244 232 260 228 254 l 161 21 b 135 0 157 7 147 0 l 78 0 m 260 382 b 272 364 257 374 263 364 l 492 364 b 504 382 501 364 507 374 l 393 800 b 371 800 389 813 375 813 l 260 382 "},"Ć":{"ha":764,"x_min":0,"x_max":0,"o":"m 406 -15 b 124 163 269 -15 171 58 b 83 486 89 238 83 350 b 124 810 83 622 88 735 b 406 988 171 913 269 988 b 715 686 593 988 715 860 b 688 658 715 671 703 658 l 629 658 b 601 686 614 658 601 671 b 406 878 601 796 529 878 b 222 754 329 878 258 839 b 196 486 199 694 196 589 b 222 218 196 383 197 278 b 406 94 258 135 329 94 b 601 286 529 94 601 176 b 629 314 601 301 614 314 l 688 314 b 715 286 703 314 715 301 b 406 -15 715 113 593 -15 "},"Č":{"ha":764,"x_min":0,"x_max":0,"o":"m 406 -15 b 124 163 269 -15 171 58 b 83 486 89 238 83 350 b 124 810 83 622 88 735 b 406 988 171 913 269 988 b 715 686 593 988 715 860 b 688 658 715 671 703 658 l 629 658 b 601 686 614 658 601 671 b 406 878 601 796 529 878 b 222 754 329 878 258 839 b 196 486 199 694 196 589 b 222 218 196 383 197 278 b 406 94 258 135 329 94 b 601 286 529 94 601 176 b 629 314 601 301 614 314 l 688 314 b 715 286 703 314 715 301 b 406 -15 715 113 593 -15 "},"Ç":{"ha":764,"x_min":0,"x_max":0,"o":"m 406 -15 b 124 163 269 -15 171 58 b 83 486 89 238 83 350 b 124 810 83 622 88 735 b 406 988 171 913 269 988 b 715 686 593 988 715 860 b 688 658 715 671 703 658 l 629 658 b 601 686 614 658 601 671 b 406 878 601 796 529 878 b 222 754 329 878 258 839 b 196 486 199 694 196 589 b 222 218 196 383 197 278 b 406 94 258 135 329 94 b 601 286 529 94 601 176 b 629 314 601 301 614 314 l 688 314 b 715 286 703 314 715 301 b 406 -15 715 113 593 -15 "},"Ĉ":{"ha":764,"x_min":0,"x_max":0,"o":"m 406 -15 b 124 163 269 -15 171 58 b 83 486 89 238 83 350 b 124 810 83 622 88 735 b 406 988 171 913 269 988 b 715 686 593 988 715 860 b 688 658 715 671 703 658 l 629 658 b 601 686 614 658 601 671 b 406 878 601 796 529 878 b 222 754 329 878 258 839 b 196 486 199 694 196 589 b 222 218 196 383 197 278 b 406 94 258 135 329 94 b 601 286 529 94 601 176 b 629 314 601 301 614 314 l 688 314 b 715 286 703 314 715 301 b 406 -15 715 113 593 -15 "},"Ċ":{"ha":764,"x_min":0,"x_max":0,"o":"m 406 -15 b 124 163 269 -15 171 58 b 83 486 89 238 83 350 b 124 810 83 622 88 735 b 406 988 171 913 269 988 b 715 686 593 988 715 860 b 688 658 715 671 703 658 l 629 658 b 601 686 614 658 601 671 b 406 878 601 796 529 878 b 222 754 329 878 258 839 b 196 486 199 694 196 589 b 222 218 196 383 197 278 b 406 94 258 135 329 94 b 601 286 529 94 601 176 b 629 314 601 301 614 314 l 688 314 b 715 286 703 314 715 301 b 406 -15 715 113 593 -15 "},"Ď":{"ha":764,"x_min":0,"x_max":0,"o":"m 133 0 b 106 28 118 0 106 13 l 106 944 b 133 972 106 960 118 972 l 365 972 b 646 808 501 972 597 903 b 689 486 685 733 689 619 b 646 164 689 353 685 239 b 365 0 597 69 501 0 l 133 0 m 215 122 b 229 108 215 114 221 108 l 365 108 b 549 222 442 108 513 144 b 576 486 575 282 576 386 b 549 750 576 586 575 690 b 365 864 513 829 442 864 l 229 864 b 215 850 221 864 215 858 l 215 122 "},"Đ":{"ha":764,"x_min":0,"x_max":0,"o":"m 133 0 b 106 28 118 0 106 13 l 106 944 b 133 972 106 960 118 972 l 365 972 b 646 808 501 972 597 903 b 689 486 685 733 689 619 b 646 164 689 353 685 239 b 365 0 597 69 501 0 l 133 0 m 215 122 b 229 108 215 114 221 108 l 365 108 b 549 222 442 108 513 144 b 576 486 575 282 576 386 b 549 750 576 586 575 690 b 365 864 513 829 442 864 l 229 864 b 215 850 221 864 215 858 l 215 122 "},"É":{"ha":764,"x_min":0,"x_max":0,"o":"m 172 0 b 144 28 157 0 144 13 l 144 944 b 172 972 144 960 157 972 l 644 972 b 672 944 660 972 672 960 l 672 892 b 644 864 672 876 660 864 l 267 864 b 253 850 258 864 253 858 l 253 569 b 267 556 253 561 258 556 l 631 556 b 658 528 646 556 658 543 l 658 476 b 631 449 658 461 646 449 l 267 449 b 253 435 258 449 253 443 l 253 122 b 267 108 253 114 258 108 l 649 108 b 676 81 664 108 676 96 l 676 28 b 649 0 676 13 664 0 l 172 0 "},"Ĕ":{"ha":764,"x_min":0,"x_max":0,"o":"m 172 0 b 144 28 157 0 144 13 l 144 944 b 172 972 144 960 157 972 l 644 972 b 672 944 660 972 672 960 l 672 892 b 644 864 672 876 660 864 l 267 864 b 253 850 258 864 253 858 l 253 569 b 267 556 253 561 258 556 l 631 556 b 658 528 646 556 658 543 l 658 476 b 631 449 658 461 646 449 l 267 449 b 253 435 258 449 253 443 l 253 122 b 267 108 253 114 258 108 l 649 108 b 676 81 664 108 676 96 l 676 28 b 649 0 676 13 664 0 l 172 0 "},"Ě":{"ha":764,"x_min":0,"x_max":0,"o":"m 172 0 b 144 28 157 0 144 13 l 144 944 b 172 972 144 960 157 972 l 644 972 b 672 944 660 972 672 960 l 672 892 b 644 864 672 876 660 864 l 267 864 b 253 850 258 864 253 858 l 253 569 b 267 556 253 561 258 556 l 631 556 b 658 528 646 556 658 543 l 658 476 b 631 449 658 461 646 449 l 267 449 b 253 435 258 449 253 443 l 253 122 b 267 108 253 114 258 108 l 649 108 b 676 81 664 108 676 96 l 676 28 b 649 0 676 13 664 0 l 172 0 "},"Ê":{"ha":764,"x_min":0,"x_max":0,"o":"m 172 0 b 144 28 157 0 144 13 l 144 944 b 172 972 144 960 157 972 l 644 972 b 672 944 660 972 672 960 l 672 892 b 644 864 672 876 660 864 l 267 864 b 253 850 258 864 253 858 l 253 569 b 267 556 253 561 258 556 l 631 556 b 658 528 646 556 658 543 l 658 476 b 631 449 658 461 646 449 l 267 449 b 253 435 258 449 253 443 l 253 122 b 267 108 253 114 258 108 l 649 108 b 676 81 664 108 676 96 l 676 28 b 649 0 676 13 664 0 l 172 0 "},"Ë":{"ha":764,"x_min":0,"x_max":0,"o":"m 172 0 b 144 28 157 0 144 13 l 144 944 b 172 972 144 960 157 972 l 644 972 b 672 944 660 972 672 960 l 672 892 b 644 864 672 876 660 864 l 267 864 b 253 850 258 864 253 858 l 253 569 b 267 556 253 561 258 556 l 631 556 b 658 528 646 556 658 543 l 658 476 b 631 449 658 461 646 449 l 267 449 b 253 435 258 449 253 443 l 253 122 b 267 108 253 114 258 108 l 649 108 b 676 81 664 108 676 96 l 676 28 b 649 0 676 13 664 0 l 172 0 "},"Ė":{"ha":764,"x_min":0,"x_max":0,"o":"m 172 0 b 144 28 157 0 144 13 l 144 944 b 172 972 144 960 157 972 l 644 972 b 672 944 660 972 672 960 l 672 892 b 644 864 672 876 660 864 l 267 864 b 253 850 258 864 253 858 l 253 569 b 267 556 253 561 258 556 l 631 556 b 658 528 646 556 658 543 l 658 476 b 631 449 658 461 646 449 l 267 449 b 253 435 258 449 253 443 l 253 122 b 267 108 253 114 258 108 l 649 108 b 676 81 664 108 676 96 l 676 28 b 649 0 676 13 664 0 l 172 0 "},"È":{"ha":764,"x_min":0,"x_max":0,"o":"m 172 0 b 144 28 157 0 144 13 l 144 944 b 172 972 144 960 157 972 l 644 972 b 672 944 660 972 672 960 l 672 892 b 644 864 672 876 660 864 l 267 864 b 253 850 258 864 253 858 l 253 569 b 267 556 253 561 258 556 l 631 556 b 658 528 646 556 658 543 l 658 476 b 631 449 658 461 646 449 l 267 449 b 253 435 258 449 253 443 l 253 122 b 267 108 253 114 258 108 l 649 108 b 676 81 664 108 676 96 l 676 28 b 649 0 676 13 664 0 l 172 0 "},"Ē":{"ha":764,"x_min":0,"x_max":0,"o":"m 172 0 b 144 28 157 0 144 13 l 144 944 b 172 972 144 960 157 972 l 644 972 b 672 944 660 972 672 960 l 672 892 b 644 864 672 876 660 864 l 267 864 b 253 850 258 864 253 858 l 253 569 b 267 556 253 561 258 556 l 631 556 b 658 528 646 556 658 543 l 658 476 b 631 449 658 461 646 449 l 267 449 b 253 435 258 449 253 443 l 253 122 b 267 108 253 114 258 108 l 649 108 b 676 81 664 108 676 96 l 676 28 b 649 0 676 13 664 0 l 172 0 "},"Ę":{"ha":764,"x_min":0,"x_max":0,"o":"m 172 0 b 144 28 157 0 144 13 l 144 944 b 172 972 144 960 157 972 l 644 972 b 672 944 660 972 672 960 l 672 892 b 644 864 672 876 660 864 l 267 864 b 253 850 258 864 253 858 l 253 569 b 267 556 253 561 258 556 l 631 556 b 658 528 646 556 658 543 l 658 476 b 631 449 658 461 646 449 l 267 449 b 253 435 258 449 253 443 l 253 122 b 267 108 253 114 258 108 l 649 108 b 676 81 664 108 676 96 l 676 28 b 649 0 676 13 664 0 l 172 0 "},"Ð":{"ha":764,"x_min":0,"x_max":0,"o":"m 133 0 b 106 28 118 0 106 13 l 106 944 b 133 972 106 960 118 972 l 365 972 b 646 808 501 972 597 903 b 689 486 685 733 689 619 b 646 164 689 353 685 239 b 365 0 597 69 501 0 l 133 0 m 215 122 b 229 108 215 114 221 108 l 365 108 b 549 222 442 108 513 144 b 576 486 575 282 576 386 b 549 750 576 586 575 690 b 365 864 513 829 442 864 l 229 864 b 215 850 221 864 215 858 l 215 122 "},"Ğ":{"ha":764,"x_min":0,"x_max":0,"o":"m 396 -15 b 108 163 257 -15 157 60 b 67 486 71 239 67 350 b 108 810 67 622 71 733 b 396 988 157 913 257 988 b 703 700 582 988 703 864 b 675 672 703 685 690 672 l 618 672 b 590 700 603 672 590 685 b 396 878 589 803 518 878 b 207 754 317 878 243 839 b 181 486 182 694 181 589 b 207 218 181 383 182 278 b 396 93 243 132 317 93 b 590 300 519 93 590 168 l 590 378 b 576 392 590 386 585 392 l 424 392 b 396 419 408 392 396 404 l 396 471 b 424 499 396 486 408 499 l 675 499 b 703 471 690 499 703 486 l 703 308 b 396 -15 703 101 586 -15 "},"Ĝ":{"ha":764,"x_min":0,"x_max":0,"o":"m 396 -15 b 108 163 257 -15 157 60 b 67 486 71 239 67 350 b 108 810 67 622 71 733 b 396 988 157 913 257 988 b 703 700 582 988 703 864 b 675 672 703 685 690 672 l 618 672 b 590 700 603 672 590 685 b 396 878 589 803 518 878 b 207 754 317 878 243 839 b 181 486 182 694 181 589 b 207 218 181 383 182 278 b 396 93 243 132 317 93 b 590 300 519 93 590 168 l 590 378 b 576 392 590 386 585 392 l 424 392 b 396 419 408 392 396 404 l 396 471 b 424 499 396 486 408 499 l 675 499 b 703 471 690 499 703 486 l 703 308 b 396 -15 703 101 586 -15 "},"Ģ":{"ha":764,"x_min":0,"x_max":0,"o":"m 396 -15 b 108 163 257 -15 157 60 b 67 486 71 239 67 350 b 108 810 67 622 71 733 b 396 988 157 913 257 988 b 703 700 582 988 703 864 b 675 672 703 685 690 672 l 618 672 b 590 700 603 672 590 685 b 396 878 589 803 518 878 b 207 754 317 878 243 839 b 181 486 182 694 181 589 b 207 218 181 383 182 278 b 396 93 243 132 317 93 b 590 300 519 93 590 168 l 590 378 b 576 392 590 386 585 392 l 424 392 b 396 419 408 392 396 404 l 396 471 b 424 499 396 486 408 499 l 675 499 b 703 471 690 499 703 486 l 703 308 b 396 -15 703 101 586 -15 "},"Ġ":{"ha":764,"x_min":0,"x_max":0,"o":"m 396 -15 b 108 163 257 -15 157 60 b 67 486 71 239 67 350 b 108 810 67 622 71 733 b 396 988 157 913 257 988 b 703 700 582 988 703 864 b 675 672 703 685 690 672 l 618 672 b 590 700 603 672 590 685 b 396 878 589 803 518 878 b 207 754 317 878 243 839 b 181 486 182 694 181 589 b 207 218 181 383 182 278 b 396 93 243 132 317 93 b 590 300 519 93 590 168 l 590 378 b 576 392 590 386 585 392 l 424 392 b 396 419 408 392 396 404 l 396 471 b 424 499 396 486 408 499 l 675 499 b 703 471 690 499 703 486 l 703 308 b 396 -15 703 101 586 -15 "},"Ħ":{"ha":764,"x_min":0,"x_max":0,"o":"m 126 0 b 99 28 111 0 99 13 l 99 944 b 126 972 99 960 111 972 l 179 972 b 207 944 194 972 207 960 l 207 571 b 221 557 207 563 213 557 l 543 557 b 557 571 551 557 557 563 l 557 944 b 585 972 557 960 569 972 l 638 972 b 665 944 653 972 665 960 l 665 28 b 638 0 665 13 653 0 l 585 0 b 557 28 569 0 557 13 l 557 435 b 543 449 557 443 551 449 l 221 449 b 207 435 213 449 207 443 l 207 28 b 178 0 207 13 193 0 l 126 0 "},"Ĥ":{"ha":764,"x_min":0,"x_max":0,"o":"m 126 0 b 99 28 111 0 99 13 l 99 944 b 126 972 99 960 111 972 l 179 972 b 207 944 194 972 207 960 l 207 571 b 221 557 207 563 213 557 l 543 557 b 557 571 551 557 557 563 l 557 944 b 585 972 557 960 569 972 l 638 972 b 665 944 653 972 665 960 l 665 28 b 638 0 665 13 653 0 l 585 0 b 557 28 569 0 557 13 l 557 435 b 543 449 557 443 551 449 l 221 449 b 207 435 213 449 207 443 l 207 28 b 178 0 207 13 193 0 l 126 0 "},"Í":{"ha":764,"x_min":0,"x_max":0,"o":"m 132 0 b 104 28 117 0 104 13 l 104 81 b 132 108 104 96 117 108 l 328 108 l 328 864 l 146 864 b 118 892 131 864 118 876 l 118 944 b 146 972 118 960 131 972 l 618 972 b 646 944 633 972 646 960 l 646 892 b 618 864 646 876 633 864 l 436 864 l 436 108 l 632 108 b 660 81 647 108 660 96 l 660 28 b 632 0 660 13 647 0 l 132 0 "},"Ĭ":{"ha":764,"x_min":0,"x_max":0,"o":"m 132 0 b 104 28 117 0 104 13 l 104 81 b 132 108 104 96 117 108 l 328 108 l 328 864 l 146 864 b 118 892 131 864 118 876 l 118 944 b 146 972 118 960 131 972 l 618 972 b 646 944 633 972 646 960 l 646 892 b 618 864 646 876 633 864 l 436 864 l 436 108 l 632 108 b 660 81 647 108 660 96 l 660 28 b 632 0 660 13 647 0 l 132 0 "},"Î":{"ha":764,"x_min":0,"x_max":0,"o":"m 132 0 b 104 28 117 0 104 13 l 104 81 b 132 108 104 96 117 108 l 328 108 l 328 864 l 146 864 b 118 892 131 864 118 876 l 118 944 b 146 972 118 960 131 972 l 618 972 b 646 944 633 972 646 960 l 646 892 b 618 864 646 876 633 864 l 436 864 l 436 108 l 632 108 b 660 81 647 108 660 96 l 660 28 b 632 0 660 13 647 0 l 132 0 "},"Ï":{"ha":764,"x_min":0,"x_max":0,"o":"m 132 0 b 104 28 117 0 104 13 l 104 81 b 132 108 104 96 117 108 l 328 108 l 328 864 l 146 864 b 118 892 131 864 118 876 l 118 944 b 146 972 118 960 131 972 l 618 972 b 646 944 633 972 646 960 l 646 892 b 618 864 646 876 633 864 l 436 864 l 436 108 l 632 108 b 660 81 647 108 660 96 l 660 28 b 632 0 660 13 647 0 l 132 0 "},"İ":{"ha":764,"x_min":0,"x_max":0,"o":"m 132 0 b 104 28 117 0 104 13 l 104 81 b 132 108 104 96 117 108 l 328 108 l 328 864 l 146 864 b 118 892 131 864 118 876 l 118 944 b 146 972 118 960 131 972 l 618 972 b 646 944 633 972 646 960 l 646 892 b 618 864 646 876 633 864 l 436 864 l 436 108 l 632 108 b 660 81 647 108 660 96 l 660 28 b 632 0 660 13 647 0 l 132 0 "},"Ì":{"ha":764,"x_min":0,"x_max":0,"o":"m 132 0 b 104 28 117 0 104 13 l 104 81 b 132 108 104 96 117 108 l 328 108 l 328 864 l 146 864 b 118 892 131 864 118 876 l 118 944 b 146 972 118 960 131 972 l 618 972 b 646 944 633 972 646 960 l 646 892 b 618 864 646 876 633 864 l 436 864 l 436 108 l 632 108 b 660 81 647 108 660 96 l 660 28 b 632 0 660 13 647 0 l 132 0 "},"Ĳ":{"ha":1528,"x_min":0,"x_max":0,"o":"m 132 0 b 104 28 117 0 104 13 l 104 81 b 132 108 104 96 117 108 l 328 108 l 328 864 l 146 864 b 118 892 131 864 118 876 l 118 944 b 146 972 118 960 131 972 l 618 972 b 646 944 633 972 646 960 l 646 892 b 618 864 646 876 633 864 l 436 864 l 436 108 l 632 108 b 660 81 647 108 660 96 l 660 28 b 632 0 660 13 647 0 l 132 0 m 822 313 b 850 340 822 328 836 340 l 906 340 b 933 313 921 340 933 328 l 933 296 b 1114 94 933 160 1007 94 b 1294 296 1221 94 1294 160 l 1294 944 b 1322 972 1294 960 1307 972 l 1376 972 b 1404 944 1392 972 1404 960 l 1404 296 b 1114 -15 1404 99 1278 -15 b 822 296 954 -15 822 99 "},"Ī":{"ha":764,"x_min":0,"x_max":0,"o":"m 132 0 b 104 28 117 0 104 13 l 104 81 b 132 108 104 96 117 108 l 328 108 l 328 864 l 146 864 b 118 892 131 864 118 876 l 118 944 b 146 972 118 960 131 972 l 618 972 b 646 944 633 972 646 960 l 646 892 b 618 864 646 876 633 864 l 436 864 l 436 108 l 632 108 b 660 81 647 108 660 96 l 660 28 b 632 0 660 13 647 0 l 132 0 "},"Į":{"ha":764,"x_min":0,"x_max":0,"o":"m 132 0 b 104 28 117 0 104 13 l 104 81 b 132 108 104 96 117 108 l 328 108 l 328 864 l 146 864 b 118 892 131 864 118 876 l 118 944 b 146 972 118 960 131 972 l 618 972 b 646 944 633 972 646 960 l 646 892 b 618 864 646 876 633 864 l 436 864 l 436 108 l 632 108 b 660 81 647 108 660 96 l 660 28 b 632 0 660 13 647 0 l 132 0 "},"Ĩ":{"ha":764,"x_min":0,"x_max":0,"o":"m 132 0 b 104 28 117 0 104 13 l 104 81 b 132 108 104 96 117 108 l 328 108 l 328 864 l 146 864 b 118 892 131 864 118 876 l 118 944 b 146 972 118 960 131 972 l 618 972 b 646 944 633 972 646 960 l 646 892 b 618 864 646 876 633 864 l 436 864 l 436 108 l 632 108 b 660 81 647 108 660 96 l 660 28 b 632 0 660 13 647 0 l 132 0 "},"Ĵ":{"ha":764,"x_min":0,"x_max":0,"o":"m 350 -15 b 58 296 190 -15 58 99 l 58 313 b 86 340 58 328 72 340 l 142 340 b 169 313 157 340 169 328 l 169 296 b 350 94 169 160 243 94 b 531 296 457 94 531 160 l 531 944 b 558 972 531 960 543 972 l 613 972 b 640 944 628 972 640 960 l 640 296 b 350 -15 640 99 514 -15 "},"Ķ":{"ha":764,"x_min":0,"x_max":0,"o":"m 161 0 b 133 28 146 0 133 13 l 133 944 b 161 972 133 960 146 972 l 214 972 b 242 944 229 972 242 960 l 242 560 b 261 554 242 549 254 546 l 601 957 b 638 972 610 967 621 972 l 685 972 b 706 922 714 972 722 943 l 369 518 b 369 478 358 506 356 493 l 713 51 b 690 0 732 29 722 0 l 635 0 b 599 18 621 0 608 6 l 261 432 b 242 426 254 440 242 438 l 242 28 b 214 0 242 13 229 0 l 161 0 "},"Ĺ":{"ha":764,"x_min":0,"x_max":0,"o":"m 197 0 b 169 28 182 0 169 13 l 169 944 b 197 972 169 960 182 972 l 250 972 b 278 944 265 972 278 960 l 278 122 b 292 108 278 114 283 108 l 676 108 b 704 81 692 108 704 96 l 704 28 b 676 0 704 13 692 0 l 197 0 "},"Ľ":{"ha":764,"x_min":0,"x_max":0,"o":"m 197 0 b 169 28 182 0 169 13 l 169 944 b 197 972 169 960 182 972 l 250 972 b 278 944 265 972 278 960 l 278 122 b 292 108 278 114 283 108 l 676 108 b 704 81 692 108 704 96 l 704 28 b 676 0 704 13 692 0 l 197 0 "},"Ļ":{"ha":764,"x_min":0,"x_max":0,"o":"m 197 0 b 169 28 182 0 169 13 l 169 944 b 197 972 169 960 182 972 l 250 972 b 278 944 265 972 278 960 l 278 122 b 292 108 278 114 283 108 l 676 108 b 704 81 692 108 704 96 l 704 28 b 676 0 704 13 692 0 l 197 0 "},"Ŀ":{"ha":764,"x_min":0,"x_max":0,"o":"m 197 0 b 169 28 182 0 169 13 l 169 944 b 197 972 169 960 182 972 l 250 972 b 278 944 265 972 278 960 l 278 122 b 292 108 278 114 283 108 l 676 108 b 704 81 692 108 704 96 l 704 28 b 676 0 704 13 692 0 l 197 0 "},"Ł":{"ha":764,"x_min":0,"x_max":0,"o":"m 197 0 b 169 28 182 0 169 13 l 169 944 b 197 972 169 960 182 972 l 250 972 b 278 944 265 972 278 960 l 278 122 b 292 108 278 114 283 108 l 676 108 b 704 81 692 108 704 96 l 704 28 b 676 0 704 13 692 0 l 197 0 "},"Ń":{"ha":764,"x_min":0,"x_max":0,"o":"m 126 0 b 99 28 111 0 99 13 l 99 944 b 126 972 99 960 111 972 l 219 972 b 249 949 235 972 242 967 l 535 238 b 557 240 540 225 557 228 l 557 944 b 585 972 557 960 569 972 l 638 972 b 665 944 653 972 665 960 l 665 28 b 638 0 665 13 653 0 l 544 0 b 515 24 529 0 522 6 l 229 735 b 207 732 224 747 207 744 l 207 28 b 179 0 207 13 194 0 l 126 0 "},"Ň":{"ha":764,"x_min":0,"x_max":0,"o":"m 126 0 b 99 28 111 0 99 13 l 99 944 b 126 972 99 960 111 972 l 219 972 b 249 949 235 972 242 967 l 535 238 b 557 240 540 225 557 228 l 557 944 b 585 972 557 960 569 972 l 638 972 b 665 944 653 972 665 960 l 665 28 b 638 0 665 13 653 0 l 544 0 b 515 24 529 0 522 6 l 229 735 b 207 732 224 747 207 744 l 207 28 b 179 0 207 13 194 0 l 126 0 "},"Ņ":{"ha":764,"x_min":0,"x_max":0,"o":"m 126 0 b 99 28 111 0 99 13 l 99 944 b 126 972 99 960 111 972 l 219 972 b 249 949 235 972 242 967 l 535 238 b 557 240 540 225 557 228 l 557 944 b 585 972 557 960 569 972 l 638 972 b 665 944 653 972 665 960 l 665 28 b 638 0 665 13 653 0 l 544 0 b 515 24 529 0 522 6 l 229 735 b 207 732 224 747 207 744 l 207 28 b 179 0 207 13 194 0 l 126 0 "},"Ñ":{"ha":764,"x_min":0,"x_max":0,"o":"m 126 0 b 99 28 111 0 99 13 l 99 944 b 126 972 99 960 111 972 l 219 972 b 249 949 235 972 242 967 l 535 238 b 557 240 540 225 557 228 l 557 944 b 585 972 557 960 569 972 l 638 972 b 665 944 653 972 665 960 l 665 28 b 638 0 665 13 653 0 l 544 0 b 515 24 529 0 522 6 l 229 735 b 207 732 224 747 207 744 l 207 28 b 179 0 207 13 194 0 l 126 0 "},"Ŋ":{"ha":764,"x_min":0,"x_max":0,"o":"m 126 0 b 99 28 111 0 99 13 l 99 944 b 126 972 99 960 111 972 l 219 972 b 249 949 235 972 242 967 l 535 238 b 557 240 540 225 557 228 l 557 944 b 585 972 557 960 569 972 l 638 972 b 665 944 653 972 665 960 l 665 28 b 638 0 665 13 653 0 l 544 0 b 515 24 529 0 522 6 l 229 735 b 207 732 224 747 207 744 l 207 28 b 179 0 207 13 194 0 l 126 0 "},"Ó":{"ha":764,"x_min":0,"x_max":0,"o":"m 382 -15 b 101 163 246 -15 149 60 b 63 486 65 238 63 350 b 101 810 63 622 65 735 b 382 988 149 913 246 988 b 663 810 518 988 615 913 b 701 486 699 735 701 622 b 663 163 701 350 699 238 b 382 -15 615 60 518 -15 m 175 486 b 200 218 175 383 176 278 b 382 94 235 133 306 94 b 564 218 458 94 529 133 b 589 486 588 276 589 383 b 564 754 589 589 588 696 b 382 878 529 839 458 878 b 200 754 306 878 235 839 b 175 486 176 694 175 589 "},"Ŏ":{"ha":764,"x_min":0,"x_max":0,"o":"m 382 -15 b 101 163 246 -15 149 60 b 63 486 65 238 63 350 b 101 810 63 622 65 735 b 382 988 149 913 246 988 b 663 810 518 988 615 913 b 701 486 699 735 701 622 b 663 163 701 350 699 238 b 382 -15 615 60 518 -15 m 175 486 b 200 218 175 383 176 278 b 382 94 235 133 306 94 b 564 218 458 94 529 133 b 589 486 588 276 589 383 b 564 754 589 589 588 696 b 382 878 529 839 458 878 b 200 754 306 878 235 839 b 175 486 176 694 175 589 "},"Ô":{"ha":764,"x_min":0,"x_max":0,"o":"m 382 -15 b 101 163 246 -15 149 60 b 63 486 65 238 63 350 b 101 810 63 622 65 735 b 382 988 149 913 246 988 b 663 810 518 988 615 913 b 701 486 699 735 701 622 b 663 163 701 350 699 238 b 382 -15 615 60 518 -15 m 175 486 b 200 218 175 383 176 278 b 382 94 235 133 306 94 b 564 218 458 94 529 133 b 589 486 588 276 589 383 b 564 754 589 589 588 696 b 382 878 529 839 458 878 b 200 754 306 878 235 839 b 175 486 176 694 175 589 "},"Ö":{"ha":764,"x_min":0,"x_max":0,"o":"m 382 -15 b 101 163 246 -15 149 60 b 63 486 65 238 63 350 b 101 810 63 622 65 735 b 382 988 149 913 246 988 b 663 810 518 988 615 913 b 701 486 699 735 701 622 b 663 163 701 350 699 238 b 382 -15 615 60 518 -15 m 175 486 b 200 218 175 383 176 278 b 382 94 235 133 306 94 b 564 218 458 94 529 133 b 589 486 588 276 589 383 b 564 754 589 589 588 696 b 382 878 529 839 458 878 b 200 754 306 878 235 839 b 175 486 176 694 175 589 "},"Œ":{"ha":1528,"x_min":0,"x_max":0,"o":"m 382 -15 b 101 163 246 -15 149 60 b 63 486 65 238 63 350 b 101 810 63 622 65 735 b 382 988 149 913 246 988 b 663 810 518 988 615 913 b 701 486 699 735 701 622 b 663 163 701 350 699 238 b 382 -15 615 60 518 -15 m 175 486 b 200 218 175 383 176 278 b 382 94 235 133 306 94 b 564 218 458 94 529 133 b 589 486 588 276 589 383 b 564 754 589 589 588 696 b 382 878 529 839 458 878 b 200 754 306 878 235 839 b 175 486 176 694 175 589 m 908 944 b 936 972 908 960 921 972 l 1408 972 b 1436 944 1424 972 1436 960 l 1436 892 b 1408 864 1436 876 1424 864 l 1031 864 b 1017 850 1022 864 1017 858 l 1017 569 b 1031 556 1017 561 1022 556 l 1394 556 b 1422 528 1410 556 1422 543 l 1422 476 b 1394 449 1422 461 1410 449 l 1031 449 b 1017 435 1022 449 1017 443 l 1017 122 b 1031 108 1017 114 1022 108 l 1413 108 b 1440 81 1428 108 1440 96 l 1440 28 b 1413 0 1440 13 1428 0 l 936 0 b 908 28 921 0 908 13 "},"Ò":{"ha":764,"x_min":0,"x_max":0,"o":"m 382 -15 b 101 163 246 -15 149 60 b 63 486 65 238 63 350 b 101 810 63 622 65 735 b 382 988 149 913 246 988 b 663 810 518 988 615 913 b 701 486 699 735 701 622 b 663 163 701 350 699 238 b 382 -15 615 60 518 -15 m 175 486 b 200 218 175 383 176 278 b 382 94 235 133 306 94 b 564 218 458 94 529 133 b 589 486 588 276 589 383 b 564 754 589 589 588 696 b 382 878 529 839 458 878 b 200 754 306 878 235 839 b 175 486 176 694 175 589 "},"Ő":{"ha":764,"x_min":0,"x_max":0,"o":"m 382 -15 b 101 163 246 -15 149 60 b 63 486 65 238 63 350 b 101 810 63 622 65 735 b 382 988 149 913 246 988 b 663 810 518 988 615 913 b 701 486 699 735 701 622 b 663 163 701 350 699 238 b 382 -15 615 60 518 -15 m 175 486 b 200 218 175 383 176 278 b 382 94 235 133 306 94 b 564 218 458 94 529 133 b 589 486 588 276 589 383 b 564 754 589 589 588 696 b 382 878 529 839 458 878 b 200 754 306 878 235 839 b 175 486 176 694 175 589 "},"Ō":{"ha":764,"x_min":0,"x_max":0,"o":"m 382 -15 b 101 163 246 -15 149 60 b 63 486 65 238 63 350 b 101 810 63 622 65 735 b 382 988 149 913 246 988 b 663 810 518 988 615 913 b 701 486 699 735 701 622 b 663 163 701 350 699 238 b 382 -15 615 60 518 -15 m 175 486 b 200 218 175 383 176 278 b 382 94 235 133 306 94 b 564 218 458 94 529 133 b 589 486 588 276 589 383 b 564 754 589 589 588 696 b 382 878 529 839 458 878 b 200 754 306 878 235 839 b 175 486 176 694 175 589 "},"Ø":{"ha":764,"x_min":0,"x_max":0,"o":"m 382 -15 b 101 163 246 -15 149 60 b 63 486 65 238 63 350 b 101 810 63 622 65 735 b 382 988 149 913 246 988 b 663 810 518 988 615 913 b 701 486 699 735 701 622 b 663 163 701 350 699 238 b 382 -15 615 60 518 -15 m 175 486 b 200 218 175 383 176 278 b 382 94 235 133 306 94 b 564 218 458 94 529 133 b 589 486 588 276 589 383 b 564 754 589 589 588 696 b 382 878 529 839 458 878 b 200 754 306 878 235 839 b 175 486 176 694 175 589 "},"Ǿ":{"ha":764,"x_min":0,"x_max":0,"o":"m 382 -15 b 101 163 246 -15 149 60 b 63 486 65 238 63 350 b 101 810 63 622 65 735 b 382 988 149 913 246 988 b 663 810 518 988 615 913 b 701 486 699 735 701 622 b 663 163 701 350 699 238 b 382 -15 615 60 518 -15 m 175 486 b 200 218 175 383 176 278 b 382 94 235 133 306 94 b 564 218 458 94 529 133 b 589 486 588 276 589 383 b 564 754 589 589 588 696 b 382 878 529 839 458 878 b 200 754 306 878 235 839 b 175 486 176 694 175 589 "},"Õ":{"ha":764,"x_min":0,"x_max":0,"o":"m 382 -15 b 101 163 246 -15 149 60 b 63 486 65 238 63 350 b 101 810 63 622 65 735 b 382 988 149 913 246 988 b 663 810 518 988 615 913 b 701 486 699 735 701 622 b 663 163 701 350 699 238 b 382 -15 615 60 518 -15 m 175 486 b 200 218 175 383 176 278 b 382 94 235 133 306 94 b 564 218 458 94 529 133 b 589 486 588 276 589 383 b 564 754 589 589 588 696 b 382 878 529 839 458 878 b 200 754 306 878 235 839 b 175 486 176 694 175 589 "},"Ŕ":{"ha":764,"x_min":0,"x_max":0,"o":"m 144 0 b 117 28 129 0 117 13 l 117 944 b 144 972 117 960 129 972 l 403 972 b 686 688 563 972 686 857 b 524 428 686 565 613 476 b 513 385 501 418 501 406 l 682 44 b 658 0 694 21 682 0 l 606 0 b 565 28 583 0 574 11 l 388 385 b 363 401 383 393 378 401 l 239 401 b 225 388 231 401 225 396 l 225 28 b 197 0 225 13 213 0 l 144 0 m 225 522 b 239 508 225 514 231 508 l 403 508 b 575 688 499 508 575 589 b 403 864 575 796 499 864 l 239 864 b 225 850 231 864 225 858 l 225 522 "},"Ř":{"ha":764,"x_min":0,"x_max":0,"o":"m 144 0 b 117 28 129 0 117 13 l 117 944 b 144 972 117 960 129 972 l 403 972 b 686 688 563 972 686 857 b 524 428 686 565 613 476 b 513 385 501 418 501 406 l 682 44 b 658 0 694 21 682 0 l 606 0 b 565 28 583 0 574 11 l 388 385 b 363 401 383 393 378 401 l 239 401 b 225 388 231 401 225 396 l 225 28 b 197 0 225 13 213 0 l 144 0 m 225 522 b 239 508 225 514 231 508 l 403 508 b 575 688 499 508 575 589 b 403 864 575 796 499 864 l 239 864 b 225 850 231 864 225 858 l 225 522 "},"Ŗ":{"ha":764,"x_min":0,"x_max":0,"o":"m 144 0 b 117 28 129 0 117 13 l 117 944 b 144 972 117 960 129 972 l 403 972 b 686 688 563 972 686 857 b 524 428 686 565 613 476 b 513 385 501 418 501 406 l 682 44 b 658 0 694 21 682 0 l 606 0 b 565 28 583 0 574 11 l 388 385 b 363 401 383 393 378 401 l 239 401 b 225 388 231 401 225 396 l 225 28 b 197 0 225 13 213 0 l 144 0 m 225 522 b 239 508 225 514 231 508 l 403 508 b 575 688 499 508 575 589 b 403 864 575 796 499 864 l 239 864 b 225 850 231 864 225 858 l 225 522 "},"Ś":{"ha":764,"x_min":0,"x_max":0,"o":"m 389 -15 b 78 279 208 -15 78 89 l 78 288 b 106 315 78 303 90 315 l 163 315 b 190 288 178 315 190 303 l 190 279 b 388 92 190 161 275 92 b 578 263 501 92 578 163 b 421 438 578 357 519 407 l 314 469 b 107 729 201 503 107 576 b 393 988 107 885 236 988 b 675 729 553 988 675 886 l 675 713 b 647 685 675 697 663 685 l 593 685 b 565 713 578 685 565 697 l 565 729 b 393 881 565 824 499 881 b 219 731 292 881 219 825 b 363 569 219 636 288 592 l 467 538 b 689 265 599 496 689 418 b 389 -15 689 106 567 -15 "},"Š":{"ha":764,"x_min":0,"x_max":0,"o":"m 389 -15 b 78 279 208 -15 78 89 l 78 288 b 106 315 78 303 90 315 l 163 315 b 190 288 178 315 190 303 l 190 279 b 388 92 190 161 275 92 b 578 263 501 92 578 163 b 421 438 578 357 519 407 l 314 469 b 107 729 201 503 107 576 b 393 988 107 885 236 988 b 675 729 553 988 675 886 l 675 713 b 647 685 675 697 663 685 l 593 685 b 565 713 578 685 565 697 l 565 729 b 393 881 565 824 499 881 b 219 731 292 881 219 825 b 363 569 219 636 288 592 l 467 538 b 689 265 599 496 689 418 b 389 -15 689 106 567 -15 "},"Ş":{"ha":764,"x_min":0,"x_max":0,"o":"m 389 -15 b 78 279 208 -15 78 89 l 78 288 b 106 315 78 303 90 315 l 163 315 b 190 288 178 315 190 303 l 190 279 b 388 92 190 161 275 92 b 578 263 501 92 578 163 b 421 438 578 357 519 407 l 314 469 b 107 729 201 503 107 576 b 393 988 107 885 236 988 b 675 729 553 988 675 886 l 675 713 b 647 685 675 697 663 685 l 593 685 b 565 713 578 685 565 697 l 565 729 b 393 881 565 824 499 881 b 219 731 292 881 219 825 b 363 569 219 636 288 592 l 467 538 b 689 265 599 496 689 418 b 389 -15 689 106 567 -15 "},"Ŝ":{"ha":764,"x_min":0,"x_max":0,"o":"m 389 -15 b 78 279 208 -15 78 89 l 78 288 b 106 315 78 303 90 315 l 163 315 b 190 288 178 315 190 303 l 190 279 b 388 92 190 161 275 92 b 578 263 501 92 578 163 b 421 438 578 357 519 407 l 314 469 b 107 729 201 503 107 576 b 393 988 107 885 236 988 b 675 729 553 988 675 886 l 675 713 b 647 685 675 697 663 685 l 593 685 b 565 713 578 685 565 697 l 565 729 b 393 881 565 824 499 881 b 219 731 292 881 219 825 b 363 569 219 636 288 592 l 467 538 b 689 265 599 496 689 418 b 389 -15 689 106 567 -15 "},"Ș":{"ha":764,"x_min":0,"x_max":0,"o":"m 389 -15 b 78 279 208 -15 78 89 l 78 288 b 106 315 78 303 90 315 l 163 315 b 190 288 178 315 190 303 l 190 279 b 388 92 190 161 275 92 b 578 263 501 92 578 163 b 421 438 578 357 519 407 l 314 469 b 107 729 201 503 107 576 b 393 988 107 885 236 988 b 675 729 553 988 675 886 l 675 713 b 647 685 675 697 663 685 l 593 685 b 565 713 578 685 565 697 l 565 729 b 393 881 565 824 499 881 b 219 731 292 881 219 825 b 363 569 219 636 288 592 l 467 538 b 689 265 599 496 689 418 b 389 -15 689 106 567 -15 "},"Ŧ":{"ha":764,"x_min":0,"x_max":0,"o":"m 356 0 b 328 28 340 0 328 13 l 328 850 b 314 864 328 858 322 864 l 89 864 b 61 892 74 864 61 876 l 61 944 b 89 972 61 960 74 972 l 675 972 b 703 944 690 972 703 960 l 703 892 b 675 864 703 876 690 864 l 450 864 b 436 850 442 864 436 858 l 436 28 b 408 0 436 13 424 0 l 356 0 "},"Ť":{"ha":764,"x_min":0,"x_max":0,"o":"m 356 0 b 328 28 340 0 328 13 l 328 850 b 314 864 328 858 322 864 l 89 864 b 61 892 74 864 61 876 l 61 944 b 89 972 61 960 74 972 l 675 972 b 703 944 690 972 703 960 l 703 892 b 675 864 703 876 690 864 l 450 864 b 436 850 442 864 436 858 l 436 28 b 408 0 436 13 424 0 l 356 0 "},"Ţ":{"ha":764,"x_min":0,"x_max":0,"o":"m 356 0 b 328 28 340 0 328 13 l 328 850 b 314 864 328 858 322 864 l 89 864 b 61 892 74 864 61 876 l 61 944 b 89 972 61 960 74 972 l 675 972 b 703 944 690 972 703 960 l 703 892 b 675 864 703 876 690 864 l 450 864 b 436 850 442 864 436 858 l 436 28 b 408 0 436 13 424 0 l 356 0 "},"Ț":{"ha":764,"x_min":0,"x_max":0,"o":"m 356 0 b 328 28 340 0 328 13 l 328 850 b 314 864 328 858 322 864 l 89 864 b 61 892 74 864 61 876 l 61 944 b 89 972 61 960 74 972 l 675 972 b 703 944 690 972 703 960 l 703 892 b 675 864 703 876 690 864 l 450 864 b 436 850 442 864 436 858 l 436 28 b 408 0 436 13 424 0 l 356 0 "},"Þ":{"ha":764,"x_min":0,"x_max":0,"o":"m 161 0 b 133 28 146 0 133 13 l 133 944 b 161 972 133 960 146 972 l 426 972 b 703 688 581 972 703 847 b 426 400 703 526 581 400 l 256 400 b 242 386 247 400 242 394 l 242 28 b 214 0 242 13 229 0 l 161 0 m 242 522 b 256 508 242 514 247 508 l 425 508 b 590 688 517 508 590 589 b 425 864 590 785 517 864 l 256 864 b 242 850 247 864 242 858 l 242 522 "},"Ú":{"ha":764,"x_min":0,"x_max":0,"o":"m 382 -15 b 90 276 222 -15 90 85 l 90 944 b 118 972 90 960 103 972 l 171 972 b 199 944 186 972 199 960 l 199 276 b 382 94 199 157 279 94 b 565 276 485 94 565 157 l 565 944 b 593 972 565 960 578 972 l 646 972 b 674 944 661 972 674 960 l 674 276 b 382 -15 674 85 542 -15 "},"Ŭ":{"ha":764,"x_min":0,"x_max":0,"o":"m 382 -15 b 90 276 222 -15 90 85 l 90 944 b 118 972 90 960 103 972 l 171 972 b 199 944 186 972 199 960 l 199 276 b 382 94 199 157 279 94 b 565 276 485 94 565 157 l 565 944 b 593 972 565 960 578 972 l 646 972 b 674 944 661 972 674 960 l 674 276 b 382 -15 674 85 542 -15 "},"Û":{"ha":764,"x_min":0,"x_max":0,"o":"m 382 -15 b 90 276 222 -15 90 85 l 90 944 b 118 972 90 960 103 972 l 171 972 b 199 944 186 972 199 960 l 199 276 b 382 94 199 157 279 94 b 565 276 485 94 565 157 l 565 944 b 593 972 565 960 578 972 l 646 972 b 674 944 661 972 674 960 l 674 276 b 382 -15 674 85 542 -15 "},"Ü":{"ha":764,"x_min":0,"x_max":0,"o":"m 382 -15 b 90 276 222 -15 90 85 l 90 944 b 118 972 90 960 103 972 l 171 972 b 199 944 186 972 199 960 l 199 276 b 382 94 199 157 279 94 b 565 276 485 94 565 157 l 565 944 b 593 972 565 960 578 972 l 646 972 b 674 944 661 972 674 960 l 674 276 b 382 -15 674 85 542 -15 "},"Ù":{"ha":764,"x_min":0,"x_max":0,"o":"m 382 -15 b 90 276 222 -15 90 85 l 90 944 b 118 972 90 960 103 972 l 171 972 b 199 944 186 972 199 960 l 199 276 b 382 94 199 157 279 94 b 565 276 485 94 565 157 l 565 944 b 593 972 565 960 578 972 l 646 972 b 674 944 661 972 674 960 l 674 276 b 382 -15 674 85 542 -15 "},"Ű":{"ha":764,"x_min":0,"x_max":0,"o":"m 382 -15 b 90 276 222 -15 90 85 l 90 944 b 118 972 90 960 103 972 l 171 972 b 199 944 186 972 199 960 l 199 276 b 382 94 199 157 279 94 b 565 276 485 94 565 157 l 565 944 b 593 972 565 960 578 972 l 646 972 b 674 944 661 972 674 960 l 674 276 b 382 -15 674 85 542 -15 "},"Ū":{"ha":764,"x_min":0,"x_max":0,"o":"m 382 -15 b 90 276 222 -15 90 85 l 90 944 b 118 972 90 960 103 972 l 171 972 b 199 944 186 972 199 960 l 199 276 b 382 94 199 157 279 94 b 565 276 485 94 565 157 l 565 944 b 593 972 565 960 578 972 l 646 972 b 674 944 661 972 674 960 l 674 276 b 382 -15 674 85 542 -15 "},"Ų":{"ha":764,"x_min":0,"x_max":0,"o":"m 382 -15 b 90 276 222 -15 90 85 l 90 944 b 118 972 90 960 103 972 l 171 972 b 199 944 186 972 199 960 l 199 276 b 382 94 199 157 279 94 b 565 276 485 94 565 157 l 565 944 b 593 972 565 960 578 972 l 646 972 b 674 944 661 972 674 960 l 674 276 b 382 -15 674 85 542 -15 "},"Ů":{"ha":764,"x_min":0,"x_max":0,"o":"m 382 -15 b 90 276 222 -15 90 85 l 90 944 b 118 972 90 960 103 972 l 171 972 b 199 944 186 972 199 960 l 199 276 b 382 94 199 157 279 94 b 565 276 485 94 565 157 l 565 944 b 593 972 565 960 578 972 l 646 972 b 674 944 661 972 674 960 l 674 276 b 382 -15 674 85 542 -15 "},"Ũ":{"ha":764,"x_min":0,"x_max":0,"o":"m 382 -15 b 90 276 222 -15 90 85 l 90 944 b 118 972 90 960 103 972 l 171 972 b 199 944 186 972 199 960 l 199 276 b 382 94 199 157 279 94 b 565 276 485 94 565 157 l 565 944 b 593 972 565 960 578 972 l 646 972 b 674 944 661 972 674 960 l 674 276 b 382 -15 674 85 542 -15 "},"Ẃ":{"ha":764,"x_min":0,"x_max":0,"o":"m 179 0 b 153 21 167 0 154 7 l 44 939 b 75 972 43 956 53 972 l 121 972 b 147 951 133 972 146 967 l 224 222 b 246 222 225 210 243 210 l 324 675 b 350 696 325 689 338 696 l 414 696 b 440 675 426 696 439 689 l 518 222 b 540 222 521 210 540 210 l 617 951 b 643 972 618 967 631 972 l 689 972 b 719 939 711 972 721 956 l 611 21 b 585 0 610 7 597 0 l 499 0 b 472 21 486 0 475 7 l 393 447 b 371 447 390 460 374 460 l 293 21 b 267 0 290 7 279 0 l 179 0 "},"Ŵ":{"ha":764,"x_min":0,"x_max":0,"o":"m 179 0 b 153 21 167 0 154 7 l 44 939 b 75 972 43 956 53 972 l 121 972 b 147 951 133 972 146 967 l 224 222 b 246 222 225 210 243 210 l 324 675 b 350 696 325 689 338 696 l 414 696 b 440 675 426 696 439 689 l 518 222 b 540 222 521 210 540 210 l 617 951 b 643 972 618 967 631 972 l 689 972 b 719 939 711 972 721 956 l 611 21 b 585 0 610 7 597 0 l 499 0 b 472 21 486 0 475 7 l 393 447 b 371 447 390 460 374 460 l 293 21 b 267 0 290 7 279 0 l 179 0 "},"Ẅ":{"ha":764,"x_min":0,"x_max":0,"o":"m 179 0 b 153 21 167 0 154 7 l 44 939 b 75 972 43 956 53 972 l 121 972 b 147 951 133 972 146 967 l 224 222 b 246 222 225 210 243 210 l 324 675 b 350 696 325 689 338 696 l 414 696 b 440 675 426 696 439 689 l 518 222 b 540 222 521 210 540 210 l 617 951 b 643 972 618 967 631 972 l 689 972 b 719 939 711 972 721 956 l 611 21 b 585 0 610 7 597 0 l 499 0 b 472 21 486 0 475 7 l 393 447 b 371 447 390 460 374 460 l 293 21 b 267 0 290 7 279 0 l 179 0 "},"Ẁ":{"ha":764,"x_min":0,"x_max":0,"o":"m 179 0 b 153 21 167 0 154 7 l 44 939 b 75 972 43 956 53 972 l 121 972 b 147 951 133 972 146 967 l 224 222 b 246 222 225 210 243 210 l 324 675 b 350 696 325 689 338 696 l 414 696 b 440 675 426 696 439 689 l 518 222 b 540 222 521 210 540 210 l 617 951 b 643 972 618 967 631 972 l 689 972 b 719 939 711 972 721 956 l 611 21 b 585 0 610 7 597 0 l 499 0 b 472 21 486 0 475 7 l 393 447 b 371 447 390 460 374 460 l 293 21 b 267 0 290 7 279 0 l 179 0 "},"Ý":{"ha":764,"x_min":0,"x_max":0,"o":"m 356 0 b 328 28 340 0 328 13 l 328 349 l 58 932 b 83 972 49 953 65 972 l 140 972 b 167 951 153 972 160 967 l 372 499 b 393 499 376 490 389 490 l 597 951 b 624 972 604 967 611 972 l 681 972 b 706 932 699 972 715 953 l 436 349 l 436 28 b 408 0 436 13 424 0 l 356 0 "},"Ŷ":{"ha":764,"x_min":0,"x_max":0,"o":"m 356 0 b 328 28 340 0 328 13 l 328 349 l 58 932 b 83 972 49 953 65 972 l 140 972 b 167 951 153 972 160 967 l 372 499 b 393 499 376 490 389 490 l 597 951 b 624 972 604 967 611 972 l 681 972 b 706 932 699 972 715 953 l 436 349 l 436 28 b 408 0 436 13 424 0 l 356 0 "},"Ÿ":{"ha":764,"x_min":0,"x_max":0,"o":"m 356 0 b 328 28 340 0 328 13 l 328 349 l 58 932 b 83 972 49 953 65 972 l 140 972 b 167 951 153 972 160 967 l 372 499 b 393 499 376 490 389 490 l 597 951 b 624 972 604 967 611 972 l 681 972 b 706 932 699 972 715 953 l 436 349 l 436 28 b 408 0 436 13 424 0 l 356 0 "},"Ỳ":{"ha":764,"x_min":0,"x_max":0,"o":"m 356 0 b 328 28 340 0 328 13 l 328 349 l 58 932 b 83 972 49 953 65 972 l 140 972 b 167 951 153 972 160 967 l 372 499 b 393 499 376 490 389 490 l 597 951 b 624 972 604 967 611 972 l 681 972 b 706 932 699 972 715 953 l 436 349 l 436 28 b 408 0 436 13 424 0 l 356 0 "},"Ź":{"ha":764,"x_min":0,"x_max":0,"o":"m 119 0 b 92 28 104 0 92 13 l 92 111 b 99 135 92 119 94 126 l 536 846 b 526 864 540 853 538 864 l 119 864 b 92 892 104 864 92 876 l 92 944 b 119 972 92 960 104 972 l 638 972 b 665 944 653 972 665 960 l 665 864 b 658 840 665 856 663 849 l 225 126 b 235 108 221 119 224 108 l 651 108 b 679 81 667 108 679 96 l 679 28 b 651 0 679 13 667 0 l 119 0 "},"Ž":{"ha":764,"x_min":0,"x_max":0,"o":"m 119 0 b 92 28 104 0 92 13 l 92 111 b 99 135 92 119 94 126 l 536 846 b 526 864 540 853 538 864 l 119 864 b 92 892 104 864 92 876 l 92 944 b 119 972 92 960 104 972 l 638 972 b 665 944 653 972 665 960 l 665 864 b 658 840 665 856 663 849 l 225 126 b 235 108 221 119 224 108 l 651 108 b 679 81 667 108 679 96 l 679 28 b 651 0 679 13 667 0 l 119 0 "},"Ż":{"ha":764,"x_min":0,"x_max":0,"o":"m 119 0 b 92 28 104 0 92 13 l 92 111 b 99 135 92 119 94 126 l 536 846 b 526 864 540 853 538 864 l 119 864 b 92 892 104 864 92 876 l 92 944 b 119 972 92 960 104 972 l 638 972 b 665 944 653 972 665 960 l 665 864 b 658 840 665 856 663 849 l 225 126 b 235 108 221 119 224 108 l 651 108 b 679 81 667 108 679 96 l 679 28 b 651 0 679 13 667 0 l 119 0 "},"a":{"ha":764,"x_min":0,"x_max":0,"o":"m 340 -15 b 103 201 182 -15 103 85 b 322 411 103 319 181 411 l 511 411 b 525 425 519 411 525 417 l 525 467 b 379 603 525 546 481 603 b 232 500 282 603 233 557 b 201 476 231 479 217 476 l 161 476 b 133 504 140 476 133 488 b 379 699 133 615 232 699 b 624 465 532 699 624 614 l 624 28 b 596 0 624 13 611 0 l 563 0 b 510 38 533 0 538 38 b 340 -15 474 38 449 -15 m 206 203 b 347 79 206 121 272 79 b 525 238 460 79 525 135 l 525 304 b 511 318 525 313 519 318 l 332 318 b 206 203 260 318 206 278 "},"b":{"ha":764,"x_min":0,"x_max":0,"o":"m 408 -15 b 240 38 301 -15 276 38 b 188 0 211 38 217 0 l 153 0 b 125 28 138 0 125 13 l 125 958 b 153 986 125 974 138 986 l 200 986 b 228 958 215 986 228 974 l 228 692 b 254 651 228 664 236 651 b 406 699 283 651 311 699 b 628 578 501 699 581 654 b 672 342 664 522 672 467 b 628 107 672 218 664 161 b 408 -15 581 29 503 -15 m 225 342 b 243 179 225 253 226 215 b 396 86 271 122 328 86 b 547 179 463 86 521 122 b 568 342 567 215 568 253 b 547 506 568 431 567 468 b 396 597 521 561 463 597 b 243 506 328 597 271 561 b 225 342 226 468 225 431 "},"c":{"ha":764,"x_min":0,"x_max":0,"o":"m 399 -15 b 160 103 292 -15 210 32 b 108 342 114 168 108 242 b 160 582 108 444 114 517 b 399 699 210 653 292 699 b 664 472 551 699 664 606 b 640 446 664 458 656 446 l 586 446 b 558 468 572 446 558 453 b 397 599 558 544 493 599 b 236 504 326 599 267 565 b 214 342 215 464 214 418 b 236 179 214 267 215 219 b 397 86 267 118 326 86 b 558 217 493 86 557 140 b 586 238 558 231 572 238 l 640 238 b 664 211 656 238 664 226 b 399 -15 664 81 556 -15 "},"d":{"ha":764,"x_min":0,"x_max":0,"o":"m 356 -15 b 136 107 261 -15 183 29 b 92 342 100 161 92 218 b 136 578 92 467 100 522 b 358 699 183 654 263 699 b 510 651 453 699 481 651 b 536 692 528 651 536 664 l 536 958 b 564 986 536 974 549 986 l 611 986 b 639 958 626 986 639 974 l 639 28 b 611 0 639 13 626 0 l 576 0 b 525 38 547 0 553 38 b 356 -15 488 38 463 -15 m 196 342 b 217 179 196 253 197 215 b 368 86 244 122 301 86 b 521 179 436 86 493 122 b 539 342 539 215 539 253 b 521 506 539 431 539 468 b 368 597 493 561 436 597 b 217 506 301 597 244 561 b 196 342 197 468 196 431 "},"e":{"ha":764,"x_min":0,"x_max":0,"o":"m 388 -15 b 100 342 199 -15 100 103 b 385 699 100 575 190 699 b 665 389 565 699 665 579 l 665 335 b 638 307 665 319 653 307 l 219 307 b 206 294 211 307 206 301 b 388 81 206 144 285 81 b 544 183 464 81 518 101 b 578 207 550 197 563 207 l 622 207 b 646 178 639 207 649 194 b 388 -15 624 57 525 -15 m 207 415 b 221 401 207 406 213 401 l 549 401 b 563 415 557 401 563 406 b 386 604 563 526 501 604 b 207 415 269 604 207 526 "},"f":{"ha":764,"x_min":0,"x_max":0,"o":"m 313 0 b 285 28 297 0 285 13 l 285 571 b 271 585 285 579 279 585 l 85 585 b 57 613 69 585 57 597 l 57 656 b 85 683 57 671 69 683 l 271 683 b 285 697 279 683 285 689 l 285 772 b 497 986 285 888 369 986 l 610 986 b 638 958 625 986 638 974 l 638 915 b 610 888 638 900 625 888 l 500 888 b 386 771 429 888 386 844 l 386 697 b 400 683 386 689 392 683 l 624 683 b 651 656 639 683 651 671 l 651 613 b 624 585 651 597 639 585 l 400 585 b 386 571 392 585 386 579 l 386 28 b 358 0 386 13 374 0 l 313 0 "},"g":{"ha":764,"x_min":0,"x_max":0,"o":"m 382 -265 b 133 -85 250 -265 153 -192 b 160 -53 131 -64 140 -53 l 201 -53 b 238 -79 219 -53 231 -60 b 382 -168 258 -136 311 -168 b 532 -14 465 -168 532 -118 l 532 7 b 507 46 532 36 525 46 b 360 1 478 46 450 1 b 144 119 267 1 189 43 b 100 350 108 174 100 228 b 144 581 100 471 108 525 b 357 699 189 656 265 699 b 521 647 460 699 486 647 b 571 683 547 647 543 683 l 604 683 b 632 656 619 683 632 671 l 632 -11 b 382 -265 632 -174 522 -265 m 204 349 b 224 190 204 263 206 228 b 369 100 250 136 306 100 b 515 190 436 100 489 136 b 535 349 533 228 535 263 b 515 508 535 435 533 471 b 369 597 489 563 436 597 b 224 508 306 597 250 563 b 204 349 206 471 204 435 "},"h":{"ha":764,"x_min":0,"x_max":0,"o":"m 164 0 b 136 28 149 0 136 13 l 136 958 b 164 986 136 974 149 986 l 210 986 b 238 958 226 986 238 974 l 238 681 b 263 651 238 661 247 651 b 422 699 290 651 321 699 b 656 442 553 699 656 610 l 656 28 b 628 0 656 13 643 0 l 582 0 b 554 28 567 0 554 13 l 554 435 b 396 597 554 544 486 597 b 238 435 306 597 238 544 l 238 28 b 210 0 238 13 225 0 l 164 0 "},"i":{"ha":764,"x_min":0,"x_max":0,"o":"m 163 0 b 135 28 147 0 135 13 l 135 72 b 163 100 135 88 147 100 l 347 100 b 361 114 356 100 361 106 l 361 569 b 347 583 361 578 356 583 l 176 583 b 149 611 161 583 149 596 l 149 656 b 176 683 149 671 161 683 l 436 683 b 464 656 451 683 464 671 l 464 114 b 478 100 464 106 469 100 l 654 100 b 682 72 669 100 682 88 l 682 28 b 654 0 682 13 669 0 l 163 0 m 351 939 b 374 961 351 950 361 961 l 449 961 b 471 939 461 961 471 950 l 471 836 b 449 814 471 824 461 814 l 374 814 b 351 836 361 814 351 824 "},"j":{"ha":764,"x_min":0,"x_max":0,"o":"m 338 -265 b 117 -33 217 -265 117 -185 b 146 -6 117 -18 129 -6 l 192 -6 b 219 -33 207 -6 219 -18 b 338 -165 219 -119 267 -165 b 451 -26 407 -165 451 -118 l 451 569 b 438 583 451 578 446 583 l 218 583 b 190 611 203 583 190 596 l 190 656 b 218 683 190 671 203 683 l 525 683 b 553 656 540 683 553 671 l 553 -26 b 338 -265 553 -190 457 -265 m 440 939 b 463 961 440 950 450 961 l 538 961 b 560 939 550 961 560 950 l 560 836 b 538 814 560 824 550 814 l 463 814 b 440 836 450 814 440 824 "},"k":{"ha":764,"x_min":0,"x_max":0,"o":"m 593 0 b 551 21 572 0 558 14 l 282 297 b 257 288 272 307 257 301 l 257 28 b 229 0 257 13 244 0 l 182 0 b 154 28 167 0 154 13 l 154 958 b 182 986 154 974 167 986 l 229 986 b 257 958 244 986 257 974 l 257 421 b 282 411 257 407 272 403 l 553 665 b 590 683 560 674 571 683 l 640 683 b 663 638 671 683 676 651 l 383 374 b 383 339 372 363 372 351 l 671 47 b 650 0 688 31 676 0 l 593 0 "},"l":{"ha":764,"x_min":0,"x_max":0,"o":"m 163 0 b 135 28 147 0 135 13 l 135 72 b 163 100 135 88 147 100 l 346 100 b 360 114 354 100 360 106 l 360 872 b 346 886 360 881 354 886 l 176 886 b 149 914 161 886 149 899 l 149 958 b 176 986 149 974 161 986 l 435 986 b 463 958 450 986 463 974 l 463 114 b 476 100 463 106 468 100 l 654 100 b 682 72 669 100 682 88 l 682 28 b 654 0 682 13 669 0 l 163 0 "},"m":{"ha":764,"x_min":0,"x_max":0,"o":"m 111 0 b 83 28 96 0 83 13 l 83 656 b 111 683 83 671 96 683 l 135 683 b 183 658 164 683 158 658 b 281 699 206 658 211 699 b 400 642 360 699 375 642 b 535 699 426 642 436 699 b 690 535 624 699 690 643 l 690 28 b 663 0 690 13 678 0 l 621 0 b 593 28 606 0 593 13 l 593 525 b 514 600 593 575 560 600 b 436 525 468 600 436 575 l 436 28 b 408 0 436 13 424 0 l 367 0 b 339 28 351 0 339 13 l 339 525 b 260 600 339 575 306 600 b 181 525 214 600 181 575 l 181 28 b 153 0 181 13 168 0 l 111 0 "},"n":{"ha":764,"x_min":0,"x_max":0,"o":"m 158 0 b 131 28 143 0 131 13 l 131 656 b 158 683 131 671 143 683 l 200 683 b 250 646 229 683 224 646 b 421 699 285 646 299 699 b 649 442 549 699 649 610 l 649 28 b 621 0 649 13 636 0 l 574 0 b 546 28 558 0 546 13 l 546 435 b 390 597 546 544 479 597 b 232 435 300 597 232 544 l 232 28 b 204 0 232 13 219 0 l 158 0 "},"o":{"ha":764,"x_min":0,"x_max":0,"o":"m 382 -15 b 144 107 281 -15 194 29 b 97 342 108 163 97 219 b 144 578 97 465 107 522 b 382 699 196 653 281 699 b 619 578 483 699 569 654 b 667 342 657 522 667 465 b 619 107 667 219 657 161 b 382 -15 569 29 483 -15 m 203 342 b 224 179 203 253 206 215 b 382 86 254 122 313 86 b 540 179 451 86 511 122 b 561 342 558 215 561 253 b 540 506 561 431 558 468 b 382 597 511 561 451 597 b 224 506 313 597 254 561 b 203 342 206 468 203 431 "},"p":{"ha":764,"x_min":0,"x_max":0,"o":"m 151 -250 b 124 -222 136 -250 124 -237 l 124 656 b 151 683 124 671 136 683 l 186 683 b 239 646 215 683 210 646 b 407 699 275 646 300 699 b 626 578 501 699 581 654 b 671 342 663 522 671 467 b 626 107 671 218 663 161 b 404 -15 581 29 500 -15 b 253 32 310 -15 283 32 b 226 -8 235 32 226 21 l 226 -222 b 199 -250 226 -237 214 -250 l 151 -250 m 224 342 b 243 179 224 253 225 215 b 394 86 269 122 326 86 b 546 179 463 86 519 122 b 567 342 565 215 567 253 b 546 506 567 431 565 468 b 394 597 519 561 463 597 b 243 506 326 597 269 561 b 224 342 225 468 224 431 "},"q":{"ha":764,"x_min":0,"x_max":0,"o":"m 565 -250 b 538 -222 550 -250 538 -237 l 538 -8 b 511 32 538 21 529 32 b 360 -15 482 32 454 -15 b 138 107 264 -15 185 29 b 93 342 101 161 93 218 b 138 578 93 467 101 522 b 357 699 185 654 263 699 b 525 646 464 699 489 646 b 578 683 554 646 549 683 l 613 683 b 640 656 628 683 640 671 l 640 -222 b 613 -250 640 -237 628 -250 l 565 -250 m 197 342 b 218 179 197 253 199 215 b 369 86 244 122 303 86 b 522 179 438 86 494 122 b 540 342 539 215 540 253 b 522 506 540 431 539 468 b 369 597 494 561 438 597 b 218 506 303 597 244 561 b 197 342 199 468 197 431 "},"r":{"ha":764,"x_min":0,"x_max":0,"o":"m 188 0 b 160 28 172 0 160 13 l 160 656 b 188 683 160 671 172 683 l 222 683 b 246 667 231 683 242 681 b 278 629 250 649 258 629 b 465 699 313 629 331 699 b 689 467 588 699 689 601 b 661 439 689 451 676 439 l 614 439 b 586 467 599 439 586 451 b 438 597 586 546 525 597 b 263 399 339 597 263 538 l 263 28 b 235 0 263 13 250 0 l 188 0 "},"s":{"ha":764,"x_min":0,"x_max":0,"o":"m 386 -15 b 103 204 217 -15 103 68 b 131 229 103 219 115 229 l 179 229 b 207 204 194 229 207 219 b 386 79 207 126 279 79 b 551 192 494 79 551 129 b 447 289 551 240 525 275 l 304 314 b 124 503 181 336 124 406 b 388 699 124 618 235 699 b 646 504 536 699 646 621 b 618 476 646 489 633 476 l 571 476 b 543 504 556 476 543 489 b 388 604 542 565 483 604 b 228 504 285 604 228 565 b 351 406 228 453 261 421 l 471 385 b 656 194 599 363 656 296 b 386 -15 656 76 554 -15 "},"t":{"ha":764,"x_min":0,"x_max":0,"o":"m 474 -15 b 251 215 349 -15 251 64 l 251 571 b 238 585 251 579 246 585 l 76 585 b 49 613 61 585 49 597 l 49 656 b 76 683 49 671 61 683 l 238 683 b 251 697 246 683 251 689 l 251 904 b 279 932 251 919 264 932 l 326 932 b 354 904 342 932 354 919 l 354 697 b 368 683 354 689 360 683 l 624 683 b 651 656 639 683 651 671 l 651 613 b 624 585 651 597 639 585 l 368 585 b 354 571 360 585 354 579 l 354 214 b 474 85 354 119 408 85 b 594 214 549 85 594 140 l 594 235 b 622 263 594 250 607 263 l 667 263 b 696 235 683 263 696 250 l 696 215 b 474 -15 696 85 600 -15 "},"u":{"ha":764,"x_min":0,"x_max":0,"o":"m 346 -15 b 124 238 219 -15 124 74 l 124 656 b 151 683 124 671 136 683 l 197 683 b 225 656 213 683 225 671 l 225 244 b 376 86 225 139 289 86 b 529 244 464 86 529 139 l 529 656 b 557 683 529 671 542 683 l 603 683 b 631 656 618 683 631 671 l 631 28 b 603 0 631 13 618 0 l 567 0 b 517 38 538 0 543 38 b 346 -15 482 38 468 -15 "},"v":{"ha":764,"x_min":0,"x_max":0,"o":"m 353 0 b 326 21 340 0 332 7 l 85 644 b 106 683 75 667 89 683 l 163 683 b 189 663 175 683 183 678 l 374 165 b 392 165 376 157 389 157 l 576 663 b 603 683 582 678 590 683 l 658 683 b 681 644 676 683 690 667 l 439 21 b 413 0 433 7 425 0 l 353 0 "},"w":{"ha":764,"x_min":0,"x_max":0,"o":"m 185 0 b 158 21 172 0 161 7 l 57 649 b 82 683 54 667 60 683 l 124 683 b 150 663 136 683 147 678 l 224 186 b 244 186 225 175 242 175 l 331 524 b 357 544 335 539 344 544 l 407 544 b 433 524 419 544 429 539 l 519 186 b 540 186 522 175 539 175 l 614 663 b 640 683 617 678 628 683 l 682 683 b 707 649 704 683 710 667 l 606 21 b 579 0 603 7 592 0 l 513 0 b 486 21 500 0 490 7 l 393 360 b 371 360 389 372 375 372 l 278 21 b 251 0 274 7 264 0 l 185 0 "},"x":{"ha":764,"x_min":0,"x_max":0,"o":"m 113 0 b 93 42 90 0 78 22 l 307 333 b 308 367 317 347 318 354 l 104 642 b 124 683 90 661 101 683 l 175 683 b 207 669 196 683 201 676 l 375 442 b 394 442 382 432 388 432 l 563 669 b 594 683 568 676 574 683 l 646 683 b 665 642 668 683 679 660 l 464 369 b 464 333 453 354 453 349 l 676 43 b 656 0 692 22 679 0 l 604 0 b 574 14 585 0 579 7 l 396 257 b 374 257 389 267 381 267 l 196 14 b 165 0 190 7 185 0 l 113 0 "},"y":{"ha":764,"x_min":0,"x_max":0,"o":"m 250 -250 b 225 -211 226 -250 218 -228 l 319 24 b 319 54 325 39 325 40 l 81 639 b 103 683 68 671 85 683 l 156 683 b 182 663 168 683 175 679 l 371 193 b 393 193 375 181 388 181 l 579 663 b 606 683 586 679 593 683 l 660 683 b 681 639 678 683 694 671 l 325 -229 b 299 -250 319 -244 311 -250 l 250 -250 "},"z":{"ha":764,"x_min":0,"x_max":0,"o":"m 135 0 b 107 28 119 0 107 13 l 107 89 b 126 133 107 107 107 113 l 503 564 b 496 585 511 574 506 585 l 147 585 b 119 613 132 585 119 597 l 119 656 b 147 683 119 671 132 683 l 615 683 b 643 656 631 683 643 671 l 643 599 b 615 542 643 579 635 564 l 249 119 b 256 99 239 111 244 99 l 636 99 b 664 71 651 99 664 86 l 664 28 b 636 0 664 13 651 0 l 135 0 "},"á":{"ha":764,"x_min":0,"x_max":0,"o":"m 340 -15 b 103 201 182 -15 103 85 b 322 411 103 319 181 411 l 511 411 b 525 425 519 411 525 417 l 525 467 b 379 603 525 546 481 603 b 232 500 282 603 233 557 b 201 476 231 479 217 476 l 161 476 b 133 504 140 476 133 488 b 379 699 133 615 232 699 b 624 465 532 699 624 614 l 624 28 b 596 0 624 13 611 0 l 563 0 b 510 38 533 0 538 38 b 340 -15 474 38 449 -15 m 206 203 b 347 79 206 121 272 79 b 525 238 460 79 525 135 l 525 304 b 511 318 525 313 519 318 l 332 318 b 206 203 260 318 206 278 "},"ă":{"ha":764,"x_min":0,"x_max":0,"o":"m 340 -15 b 103 201 182 -15 103 85 b 322 411 103 319 181 411 l 511 411 b 525 425 519 411 525 417 l 525 467 b 379 603 525 546 481 603 b 232 500 282 603 233 557 b 201 476 231 479 217 476 l 161 476 b 133 504 140 476 133 488 b 379 699 133 615 232 699 b 624 465 532 699 624 614 l 624 28 b 596 0 624 13 611 0 l 563 0 b 510 38 533 0 538 38 b 340 -15 474 38 449 -15 m 206 203 b 347 79 206 121 272 79 b 525 238 460 79 525 135 l 525 304 b 511 318 525 313 519 318 l 332 318 b 206 203 260 318 206 278 "},"â":{"ha":764,"x_min":0,"x_max":0,"o":"m 340 -15 b 103 201 182 -15 103 85 b 322 411 103 319 181 411 l 511 411 b 525 425 519 411 525 417 l 525 467 b 379 603 525 546 481 603 b 232 500 282 603 233 557 b 201 476 231 479 217 476 l 161 476 b 133 504 140 476 133 488 b 379 699 133 615 232 699 b 624 465 532 699 624 614 l 624 28 b 596 0 624 13 611 0 l 563 0 b 510 38 533 0 538 38 b 340 -15 474 38 449 -15 m 206 203 b 347 79 206 121 272 79 b 525 238 460 79 525 135 l 525 304 b 511 318 525 313 519 318 l 332 318 b 206 203 260 318 206 278 "},"ä":{"ha":764,"x_min":0,"x_max":0,"o":"m 340 -15 b 103 201 182 -15 103 85 b 322 411 103 319 181 411 l 511 411 b 525 425 519 411 525 417 l 525 467 b 379 603 525 546 481 603 b 232 500 282 603 233 557 b 201 476 231 479 217 476 l 161 476 b 133 504 140 476 133 488 b 379 699 133 615 232 699 b 624 465 532 699 624 614 l 624 28 b 596 0 624 13 611 0 l 563 0 b 510 38 533 0 538 38 b 340 -15 474 38 449 -15 m 206 203 b 347 79 206 121 272 79 b 525 238 460 79 525 135 l 525 304 b 511 318 525 313 519 318 l 332 318 b 206 203 260 318 206 278 "},"æ":{"ha":1528,"x_min":0,"x_max":0,"o":"m 340 -15 b 103 201 182 -15 103 85 b 322 411 103 319 181 411 l 511 411 b 525 425 519 411 525 417 l 525 467 b 379 603 525 546 481 603 b 232 500 282 603 233 557 b 201 476 231 479 217 476 l 161 476 b 133 504 140 476 133 488 b 379 699 133 615 232 699 b 624 465 532 699 624 614 l 624 28 b 596 0 624 13 611 0 l 563 0 b 510 38 533 0 538 38 b 340 -15 474 38 449 -15 m 206 203 b 347 79 206 121 272 79 b 525 238 460 79 525 135 l 525 304 b 511 318 525 313 519 318 l 332 318 b 206 203 260 318 206 278 m 864 342 b 1149 699 864 575 954 699 b 1429 389 1329 699 1429 579 l 1429 335 b 1401 307 1429 319 1417 307 l 983 307 b 969 294 975 307 969 301 b 1151 81 969 144 1049 81 b 1308 183 1228 81 1282 101 b 1342 207 1314 197 1326 207 l 1386 207 b 1410 178 1403 207 1413 194 b 1151 -15 1388 57 1289 -15 b 864 342 963 -15 864 103 m 971 415 b 985 401 971 406 976 401 l 1313 401 b 1326 415 1321 401 1326 406 b 1150 604 1326 526 1265 604 b 971 415 1033 604 971 526 "},"ǽ":{"ha":1528,"x_min":0,"x_max":0,"o":"m 340 -15 b 103 201 182 -15 103 85 b 322 411 103 319 181 411 l 511 411 b 525 425 519 411 525 417 l 525 467 b 379 603 525 546 481 603 b 232 500 282 603 233 557 b 201 476 231 479 217 476 l 161 476 b 133 504 140 476 133 488 b 379 699 133 615 232 699 b 624 465 532 699 624 614 l 624 28 b 596 0 624 13 611 0 l 563 0 b 510 38 533 0 538 38 b 340 -15 474 38 449 -15 m 206 203 b 347 79 206 121 272 79 b 525 238 460 79 525 135 l 525 304 b 511 318 525 313 519 318 l 332 318 b 206 203 260 318 206 278 m 864 342 b 1149 699 864 575 954 699 b 1429 389 1329 699 1429 579 l 1429 335 b 1401 307 1429 319 1417 307 l 983 307 b 969 294 975 307 969 301 b 1151 81 969 144 1049 81 b 1308 183 1228 81 1282 101 b 1342 207 1314 197 1326 207 l 1386 207 b 1410 178 1403 207 1413 194 b 1151 -15 1388 57 1289 -15 b 864 342 963 -15 864 103 m 971 415 b 985 401 971 406 976 401 l 1313 401 b 1326 415 1321 401 1326 406 b 1150 604 1326 526 1265 604 b 971 415 1033 604 971 526 "},"à":{"ha":764,"x_min":0,"x_max":0,"o":"m 340 -15 b 103 201 182 -15 103 85 b 322 411 103 319 181 411 l 511 411 b 525 425 519 411 525 417 l 525 467 b 379 603 525 546 481 603 b 232 500 282 603 233 557 b 201 476 231 479 217 476 l 161 476 b 133 504 140 476 133 488 b 379 699 133 615 232 699 b 624 465 532 699 624 614 l 624 28 b 596 0 624 13 611 0 l 563 0 b 510 38 533 0 538 38 b 340 -15 474 38 449 -15 m 206 203 b 347 79 206 121 272 79 b 525 238 460 79 525 135 l 525 304 b 511 318 525 313 519 318 l 332 318 b 206 203 260 318 206 278 "},"ā":{"ha":764,"x_min":0,"x_max":0,"o":"m 340 -15 b 103 201 182 -15 103 85 b 322 411 103 319 181 411 l 511 411 b 525 425 519 411 525 417 l 525 467 b 379 603 525 546 481 603 b 232 500 282 603 233 557 b 201 476 231 479 217 476 l 161 476 b 133 504 140 476 133 488 b 379 699 133 615 232 699 b 624 465 532 699 624 614 l 624 28 b 596 0 624 13 611 0 l 563 0 b 510 38 533 0 538 38 b 340 -15 474 38 449 -15 m 206 203 b 347 79 206 121 272 79 b 525 238 460 79 525 135 l 525 304 b 511 318 525 313 519 318 l 332 318 b 206 203 260 318 206 278 "},"ą":{"ha":764,"x_min":0,"x_max":0,"o":"m 340 -15 b 103 201 182 -15 103 85 b 322 411 103 319 181 411 l 511 411 b 525 425 519 411 525 417 l 525 467 b 379 603 525 546 481 603 b 232 500 282 603 233 557 b 201 476 231 479 217 476 l 161 476 b 133 504 140 476 133 488 b 379 699 133 615 232 699 b 624 465 532 699 624 614 l 624 28 b 596 0 624 13 611 0 l 563 0 b 510 38 533 0 538 38 b 340 -15 474 38 449 -15 m 206 203 b 347 79 206 121 272 79 b 525 238 460 79 525 135 l 525 304 b 511 318 525 313 519 318 l 332 318 b 206 203 260 318 206 278 "},"å":{"ha":764,"x_min":0,"x_max":0,"o":"m 340 -15 b 103 201 182 -15 103 85 b 322 411 103 319 181 411 l 511 411 b 525 425 519 411 525 417 l 525 467 b 379 603 525 546 481 603 b 232 500 282 603 233 557 b 201 476 231 479 217 476 l 161 476 b 133 504 140 476 133 488 b 379 699 133 615 232 699 b 624 465 532 699 624 614 l 624 28 b 596 0 624 13 611 0 l 563 0 b 510 38 533 0 538 38 b 340 -15 474 38 449 -15 m 206 203 b 347 79 206 121 272 79 b 525 238 460 79 525 135 l 525 304 b 511 318 525 313 519 318 l 332 318 b 206 203 260 318 206 278 "},"ã":{"ha":764,"x_min":0,"x_max":0,"o":"m 340 -15 b 103 201 182 -15 103 85 b 322 411 103 319 181 411 l 511 411 b 525 425 519 411 525 417 l 525 467 b 379 603 525 546 481 603 b 232 500 282 603 233 557 b 201 476 231 479 217 476 l 161 476 b 133 504 140 476 133 488 b 379 699 133 615 232 699 b 624 465 532 699 624 614 l 624 28 b 596 0 624 13 611 0 l 563 0 b 510 38 533 0 538 38 b 340 -15 474 38 449 -15 m 206 203 b 347 79 206 121 272 79 b 525 238 460 79 525 135 l 525 304 b 511 318 525 313 519 318 l 332 318 b 206 203 260 318 206 278 "},"ć":{"ha":764,"x_min":0,"x_max":0,"o":"m 399 -15 b 160 103 292 -15 210 32 b 108 342 114 168 108 242 b 160 582 108 444 114 517 b 399 699 210 653 292 699 b 664 472 551 699 664 606 b 640 446 664 458 656 446 l 586 446 b 558 468 572 446 558 453 b 397 599 558 544 493 599 b 236 504 326 599 267 565 b 214 342 215 464 214 418 b 236 179 214 267 215 219 b 397 86 267 118 326 86 b 558 217 493 86 557 140 b 586 238 558 231 572 238 l 640 238 b 664 211 656 238 664 226 b 399 -15 664 81 556 -15 "},"č":{"ha":764,"x_min":0,"x_max":0,"o":"m 399 -15 b 160 103 292 -15 210 32 b 108 342 114 168 108 242 b 160 582 108 444 114 517 b 399 699 210 653 292 699 b 664 472 551 699 664 606 b 640 446 664 458 656 446 l 586 446 b 558 468 572 446 558 453 b 397 599 558 544 493 599 b 236 504 326 599 267 565 b 214 342 215 464 214 418 b 236 179 214 267 215 219 b 397 86 267 118 326 86 b 558 217 493 86 557 140 b 586 238 558 231 572 238 l 640 238 b 664 211 656 238 664 226 b 399 -15 664 81 556 -15 "},"ç":{"ha":764,"x_min":0,"x_max":0,"o":"m 399 -15 b 160 103 292 -15 210 32 b 108 342 114 168 108 242 b 160 582 108 444 114 517 b 399 699 210 653 292 699 b 664 472 551 699 664 606 b 640 446 664 458 656 446 l 586 446 b 558 468 572 446 558 453 b 397 599 558 544 493 599 b 236 504 326 599 267 565 b 214 342 215 464 214 418 b 236 179 214 267 215 219 b 397 86 267 118 326 86 b 558 217 493 86 557 140 b 586 238 558 231 572 238 l 640 238 b 664 211 656 238 664 226 b 399 -15 664 81 556 -15 "},"ĉ":{"ha":764,"x_min":0,"x_max":0,"o":"m 399 -15 b 160 103 292 -15 210 32 b 108 342 114 168 108 242 b 160 582 108 444 114 517 b 399 699 210 653 292 699 b 664 472 551 699 664 606 b 640 446 664 458 656 446 l 586 446 b 558 468 572 446 558 453 b 397 599 558 544 493 599 b 236 504 326 599 267 565 b 214 342 215 464 214 418 b 236 179 214 267 215 219 b 397 86 267 118 326 86 b 558 217 493 86 557 140 b 586 238 558 231 572 238 l 640 238 b 664 211 656 238 664 226 b 399 -15 664 81 556 -15 "},"ċ":{"ha":764,"x_min":0,"x_max":0,"o":"m 399 -15 b 160 103 292 -15 210 32 b 108 342 114 168 108 242 b 160 582 108 444 114 517 b 399 699 210 653 292 699 b 664 472 551 699 664 606 b 640 446 664 458 656 446 l 586 446 b 558 468 572 446 558 453 b 397 599 558 544 493 599 b 236 504 326 599 267 565 b 214 342 215 464 214 418 b 236 179 214 267 215 219 b 397 86 267 118 326 86 b 558 217 493 86 557 140 b 586 238 558 231 572 238 l 640 238 b 664 211 656 238 664 226 b 399 -15 664 81 556 -15 "},"ď":{"ha":764,"x_min":0,"x_max":0,"o":"m 356 -15 b 136 107 261 -15 183 29 b 92 342 100 161 92 218 b 136 578 92 467 100 522 b 358 699 183 654 263 699 b 510 651 453 699 481 651 b 536 692 528 651 536 664 l 536 958 b 564 986 536 974 549 986 l 611 986 b 639 958 626 986 639 974 l 639 28 b 611 0 639 13 626 0 l 576 0 b 525 38 547 0 553 38 b 356 -15 488 38 463 -15 m 196 342 b 217 179 196 253 197 215 b 368 86 244 122 301 86 b 521 179 436 86 493 122 b 539 342 539 215 539 253 b 521 506 539 431 539 468 b 368 597 493 561 436 597 b 217 506 301 597 244 561 b 196 342 197 468 196 431 "},"đ":{"ha":764,"x_min":0,"x_max":0,"o":"m 356 -15 b 136 107 261 -15 183 29 b 92 342 100 161 92 218 b 136 578 92 467 100 522 b 358 699 183 654 263 699 b 510 651 453 699 481 651 b 536 692 528 651 536 664 l 536 958 b 564 986 536 974 549 986 l 611 986 b 639 958 626 986 639 974 l 639 28 b 611 0 639 13 626 0 l 576 0 b 525 38 547 0 553 38 b 356 -15 488 38 463 -15 m 196 342 b 217 179 196 253 197 215 b 368 86 244 122 301 86 b 521 179 436 86 493 122 b 539 342 539 215 539 253 b 521 506 539 431 539 468 b 368 597 493 561 436 597 b 217 506 301 597 244 561 b 196 342 197 468 196 431 "},"é":{"ha":764,"x_min":0,"x_max":0,"o":"m 388 -15 b 100 342 199 -15 100 103 b 385 699 100 575 190 699 b 665 389 565 699 665 579 l 665 335 b 638 307 665 319 653 307 l 219 307 b 206 294 211 307 206 301 b 388 81 206 144 285 81 b 544 183 464 81 518 101 b 578 207 550 197 563 207 l 622 207 b 646 178 639 207 649 194 b 388 -15 624 57 525 -15 m 207 415 b 221 401 207 406 213 401 l 549 401 b 563 415 557 401 563 406 b 386 604 563 526 501 604 b 207 415 269 604 207 526 "},"ĕ":{"ha":764,"x_min":0,"x_max":0,"o":"m 388 -15 b 100 342 199 -15 100 103 b 385 699 100 575 190 699 b 665 389 565 699 665 579 l 665 335 b 638 307 665 319 653 307 l 219 307 b 206 294 211 307 206 301 b 388 81 206 144 285 81 b 544 183 464 81 518 101 b 578 207 550 197 563 207 l 622 207 b 646 178 639 207 649 194 b 388 -15 624 57 525 -15 m 207 415 b 221 401 207 406 213 401 l 549 401 b 563 415 557 401 563 406 b 386 604 563 526 501 604 b 207 415 269 604 207 526 "},"ě":{"ha":764,"x_min":0,"x_max":0,"o":"m 388 -15 b 100 342 199 -15 100 103 b 385 699 100 575 190 699 b 665 389 565 699 665 579 l 665 335 b 638 307 665 319 653 307 l 219 307 b 206 294 211 307 206 301 b 388 81 206 144 285 81 b 544 183 464 81 518 101 b 578 207 550 197 563 207 l 622 207 b 646 178 639 207 649 194 b 388 -15 624 57 525 -15 m 207 415 b 221 401 207 406 213 401 l 549 401 b 563 415 557 401 563 406 b 386 604 563 526 501 604 b 207 415 269 604 207 526 "},"ê":{"ha":764,"x_min":0,"x_max":0,"o":"m 388 -15 b 100 342 199 -15 100 103 b 385 699 100 575 190 699 b 665 389 565 699 665 579 l 665 335 b 638 307 665 319 653 307 l 219 307 b 206 294 211 307 206 301 b 388 81 206 144 285 81 b 544 183 464 81 518 101 b 578 207 550 197 563 207 l 622 207 b 646 178 639 207 649 194 b 388 -15 624 57 525 -15 m 207 415 b 221 401 207 406 213 401 l 549 401 b 563 415 557 401 563 406 b 386 604 563 526 501 604 b 207 415 269 604 207 526 "},"ë":{"ha":764,"x_min":0,"x_max":0,"o":"m 388 -15 b 100 342 199 -15 100 103 b 385 699 100 575 190 699 b 665 389 565 699 665 579 l 665 335 b 638 307 665 319 653 307 l 219 307 b 206 294 211 307 206 301 b 388 81 206 144 285 81 b 544 183 464 81 518 101 b 578 207 550 197 563 207 l 622 207 b 646 178 639 207 649 194 b 388 -15 624 57 525 -15 m 207 415 b 221 401 207 406 213 401 l 549 401 b 563 415 557 401 563 406 b 386 604 563 526 501 604 b 207 415 269 604 207 526 "},"ė":{"ha":764,"x_min":0,"x_max":0,"o":"m 388 -15 b 100 342 199 -15 100 103 b 385 699 100 575 190 699 b 665 389 565 699 665 579 l 665 335 b 638 307 665 319 653 307 l 219 307 b 206 294 211 307 206 301 b 388 81 206 144 285 81 b 544 183 464 81 518 101 b 578 207 550 197 563 207 l 622 207 b 646 178 639 207 649 194 b 388 -15 624 57 525 -15 m 207 415 b 221 401 207 406 213 401 l 549 401 b 563 415 557 401 563 406 b 386 604 563 526 501 604 b 207 415 269 604 207 526 "},"è":{"ha":764,"x_min":0,"x_max":0,"o":"m 388 -15 b 100 342 199 -15 100 103 b 385 699 100 575 190 699 b 665 389 565 699 665 579 l 665 335 b 638 307 665 319 653 307 l 219 307 b 206 294 211 307 206 301 b 388 81 206 144 285 81 b 544 183 464 81 518 101 b 578 207 550 197 563 207 l 622 207 b 646 178 639 207 649 194 b 388 -15 624 57 525 -15 m 207 415 b 221 401 207 406 213 401 l 549 401 b 563 415 557 401 563 406 b 386 604 563 526 501 604 b 207 415 269 604 207 526 "},"ē":{"ha":764,"x_min":0,"x_max":0,"o":"m 388 -15 b 100 342 199 -15 100 103 b 385 699 100 575 190 699 b 665 389 565 699 665 579 l 665 335 b 638 307 665 319 653 307 l 219 307 b 206 294 211 307 206 301 b 388 81 206 144 285 81 b 544 183 464 81 518 101 b 578 207 550 197 563 207 l 622 207 b 646 178 639 207 649 194 b 388 -15 624 57 525 -15 m 207 415 b 221 401 207 406 213 401 l 549 401 b 563 415 557 401 563 406 b 386 604 563 526 501 604 b 207 415 269 604 207 526 "},"ę":{"ha":764,"x_min":0,"x_max":0,"o":"m 388 -15 b 100 342 199 -15 100 103 b 385 699 100 575 190 699 b 665 389 565 699 665 579 l 665 335 b 638 307 665 319 653 307 l 219 307 b 206 294 211 307 206 301 b 388 81 206 144 285 81 b 544 183 464 81 518 101 b 578 207 550 197 563 207 l 622 207 b 646 178 639 207 649 194 b 388 -15 624 57 525 -15 m 207 415 b 221 401 207 406 213 401 l 549 401 b 563 415 557 401 563 406 b 386 604 563 526 501 604 b 207 415 269 604 207 526 "},"ğ":{"ha":764,"x_min":0,"x_max":0,"o":"m 382 -265 b 133 -85 250 -265 153 -192 b 160 -53 131 -64 140 -53 l 201 -53 b 238 -79 219 -53 231 -60 b 382 -168 258 -136 311 -168 b 532 -14 465 -168 532 -118 l 532 7 b 507 46 532 36 525 46 b 360 1 478 46 450 1 b 144 119 267 1 189 43 b 100 350 108 174 100 228 b 144 581 100 471 108 525 b 357 699 189 656 265 699 b 521 647 460 699 486 647 b 571 683 547 647 543 683 l 604 683 b 632 656 619 683 632 671 l 632 -11 b 382 -265 632 -174 522 -265 m 204 349 b 224 190 204 263 206 228 b 369 100 250 136 306 100 b 515 190 436 100 489 136 b 535 349 533 228 535 263 b 515 508 535 435 533 471 b 369 597 489 563 436 597 b 224 508 306 597 250 563 b 204 349 206 471 204 435 "},"ĝ":{"ha":764,"x_min":0,"x_max":0,"o":"m 382 -265 b 133 -85 250 -265 153 -192 b 160 -53 131 -64 140 -53 l 201 -53 b 238 -79 219 -53 231 -60 b 382 -168 258 -136 311 -168 b 532 -14 465 -168 532 -118 l 532 7 b 507 46 532 36 525 46 b 360 1 478 46 450 1 b 144 119 267 1 189 43 b 100 350 108 174 100 228 b 144 581 100 471 108 525 b 357 699 189 656 265 699 b 521 647 460 699 486 647 b 571 683 547 647 543 683 l 604 683 b 632 656 619 683 632 671 l 632 -11 b 382 -265 632 -174 522 -265 m 204 349 b 224 190 204 263 206 228 b 369 100 250 136 306 100 b 515 190 436 100 489 136 b 535 349 533 228 535 263 b 515 508 535 435 533 471 b 369 597 489 563 436 597 b 224 508 306 597 250 563 b 204 349 206 471 204 435 "},"ģ":{"ha":764,"x_min":0,"x_max":0,"o":"m 382 -265 b 133 -85 250 -265 153 -192 b 160 -53 131 -64 140 -53 l 201 -53 b 238 -79 219 -53 231 -60 b 382 -168 258 -136 311 -168 b 532 -14 465 -168 532 -118 l 532 7 b 507 46 532 36 525 46 b 360 1 478 46 450 1 b 144 119 267 1 189 43 b 100 350 108 174 100 228 b 144 581 100 471 108 525 b 357 699 189 656 265 699 b 521 647 460 699 486 647 b 571 683 547 647 543 683 l 604 683 b 632 656 619 683 632 671 l 632 -11 b 382 -265 632 -174 522 -265 m 204 349 b 224 190 204 263 206 228 b 369 100 250 136 306 100 b 515 190 436 100 489 136 b 535 349 533 228 535 263 b 515 508 535 435 533 471 b 369 597 489 563 436 597 b 224 508 306 597 250 563 b 204 349 206 471 204 435 "},"ġ":{"ha":764,"x_min":0,"x_max":0,"o":"m 382 -265 b 133 -85 250 -265 153 -192 b 160 -53 131 -64 140 -53 l 201 -53 b 238 -79 219 -53 231 -60 b 382 -168 258 -136 311 -168 b 532 -14 465 -168 532 -118 l 532 7 b 507 46 532 36 525 46 b 360 1 478 46 450 1 b 144 119 267 1 189 43 b 100 350 108 174 100 228 b 144 581 100 471 108 525 b 357 699 189 656 265 699 b 521 647 460 699 486 647 b 571 683 547 647 543 683 l 604 683 b 632 656 619 683 632 671 l 632 -11 b 382 -265 632 -174 522 -265 m 204 349 b 224 190 204 263 206 228 b 369 100 250 136 306 100 b 515 190 436 100 489 136 b 535 349 533 228 535 263 b 515 508 535 435 533 471 b 369 597 489 563 436 597 b 224 508 306 597 250 563 b 204 349 206 471 204 435 "},"ħ":{"ha":764,"x_min":0,"x_max":0,"o":"m 164 0 b 136 28 149 0 136 13 l 136 958 b 164 986 136 974 149 986 l 210 986 b 238 958 226 986 238 974 l 238 681 b 263 651 238 661 247 651 b 422 699 290 651 321 699 b 656 442 553 699 656 610 l 656 28 b 628 0 656 13 643 0 l 582 0 b 554 28 567 0 554 13 l 554 435 b 396 597 554 544 486 597 b 238 435 306 597 238 544 l 238 28 b 210 0 238 13 225 0 l 164 0 "},"ĥ":{"ha":764,"x_min":0,"x_max":0,"o":"m 164 0 b 136 28 149 0 136 13 l 136 958 b 164 986 136 974 149 986 l 210 986 b 238 958 226 986 238 974 l 238 681 b 263 651 238 661 247 651 b 422 699 290 651 321 699 b 656 442 553 699 656 610 l 656 28 b 628 0 656 13 643 0 l 582 0 b 554 28 567 0 554 13 l 554 435 b 396 597 554 544 486 597 b 238 435 306 597 238 544 l 238 28 b 210 0 238 13 225 0 l 164 0 "},"í":{"ha":764,"x_min":0,"x_max":0,"o":"m 163 0 b 135 28 147 0 135 13 l 135 72 b 163 100 135 88 147 100 l 347 100 b 361 114 356 100 361 106 l 361 569 b 347 583 361 578 356 583 l 176 583 b 149 611 161 583 149 596 l 149 656 b 176 683 149 671 161 683 l 436 683 b 464 656 451 683 464 671 l 464 114 b 478 100 464 106 469 100 l 654 100 b 682 72 669 100 682 88 l 682 28 b 654 0 682 13 669 0 l 163 0 m 351 939 b 374 961 351 950 361 961 l 449 961 b 471 939 461 961 471 950 l 471 836 b 449 814 471 824 461 814 l 374 814 b 351 836 361 814 351 824 "},"ĭ":{"ha":764,"x_min":0,"x_max":0,"o":"m 163 0 b 135 28 147 0 135 13 l 135 72 b 163 100 135 88 147 100 l 347 100 b 361 114 356 100 361 106 l 361 569 b 347 583 361 578 356 583 l 176 583 b 149 611 161 583 149 596 l 149 656 b 176 683 149 671 161 683 l 436 683 b 464 656 451 683 464 671 l 464 114 b 478 100 464 106 469 100 l 654 100 b 682 72 669 100 682 88 l 682 28 b 654 0 682 13 669 0 l 163 0 m 351 939 b 374 961 351 950 361 961 l 449 961 b 471 939 461 961 471 950 l 471 836 b 449 814 471 824 461 814 l 374 814 b 351 836 361 814 351 824 "},"î":{"ha":764,"x_min":0,"x_max":0,"o":"m 163 0 b 135 28 147 0 135 13 l 135 72 b 163 100 135 88 147 100 l 347 100 b 361 114 356 100 361 106 l 361 569 b 347 583 361 578 356 583 l 176 583 b 149 611 161 583 149 596 l 149 656 b 176 683 149 671 161 683 l 436 683 b 464 656 451 683 464 671 l 464 114 b 478 100 464 106 469 100 l 654 100 b 682 72 669 100 682 88 l 682 28 b 654 0 682 13 669 0 l 163 0 m 351 939 b 374 961 351 950 361 961 l 449 961 b 471 939 461 961 471 950 l 471 836 b 449 814 471 824 461 814 l 374 814 b 351 836 361 814 351 824 "},"ï":{"ha":764,"x_min":0,"x_max":0,"o":"m 163 0 b 135 28 147 0 135 13 l 135 72 b 163 100 135 88 147 100 l 347 100 b 361 114 356 100 361 106 l 361 569 b 347 583 361 578 356 583 l 176 583 b 149 611 161 583 149 596 l 149 656 b 176 683 149 671 161 683 l 436 683 b 464 656 451 683 464 671 l 464 114 b 478 100 464 106 469 100 l 654 100 b 682 72 669 100 682 88 l 682 28 b 654 0 682 13 669 0 l 163 0 m 351 939 b 374 961 351 950 361 961 l 449 961 b 471 939 461 961 471 950 l 471 836 b 449 814 471 824 461 814 l 374 814 b 351 836 361 814 351 824 "},"ı":{"ha":764,"x_min":0,"x_max":0,"o":"m 163 0 b 135 28 147 0 135 13 l 135 72 b 163 100 135 88 147 100 l 347 100 b 361 114 356 100 361 106 l 361 569 b 347 583 361 578 356 583 l 176 583 b 149 611 161 583 149 596 l 149 656 b 176 683 149 671 161 683 l 436 683 b 464 656 451 683 464 671 l 464 114 b 478 100 464 106 469 100 l 654 100 b 682 72 669 100 682 88 l 682 28 b 654 0 682 13 669 0 l 163 0 m 351 939 b 374 961 351 950 361 961 l 449 961 b 471 939 461 961 471 950 l 471 836 b 449 814 471 824 461 814 l 374 814 b 351 836 361 814 351 824 "},"ì":{"ha":764,"x_min":0,"x_max":0,"o":"m 163 0 b 135 28 147 0 135 13 l 135 72 b 163 100 135 88 147 100 l 347 100 b 361 114 356 100 361 106 l 361 569 b 347 583 361 578 356 583 l 176 583 b 149 611 161 583 149 596 l 149 656 b 176 683 149 671 161 683 l 436 683 b 464 656 451 683 464 671 l 464 114 b 478 100 464 106 469 100 l 654 100 b 682 72 669 100 682 88 l 682 28 b 654 0 682 13 669 0 l 163 0 m 351 939 b 374 961 351 950 361 961 l 449 961 b 471 939 461 961 471 950 l 471 836 b 449 814 471 824 461 814 l 374 814 b 351 836 361 814 351 824 "},"ĳ":{"ha":1528,"x_min":0,"x_max":0,"o":"m 163 0 b 135 28 147 0 135 13 l 135 72 b 163 100 135 88 147 100 l 347 100 b 361 114 356 100 361 106 l 361 569 b 347 583 361 578 356 583 l 176 583 b 149 611 161 583 149 596 l 149 656 b 176 683 149 671 161 683 l 436 683 b 464 656 451 683 464 671 l 464 114 b 478 100 464 106 469 100 l 654 100 b 682 72 669 100 682 88 l 682 28 b 654 0 682 13 669 0 l 163 0 m 351 939 b 374 961 351 950 361 961 l 449 961 b 471 939 461 961 471 950 l 471 836 b 449 814 471 824 461 814 l 374 814 b 351 836 361 814 351 824 m 881 -33 b 910 -6 881 -18 893 -6 l 956 -6 b 983 -33 971 -6 983 -18 b 1101 -165 983 -119 1031 -165 b 1215 -26 1171 -165 1215 -118 l 1215 569 b 1201 583 1215 578 1210 583 l 982 583 b 954 611 967 583 954 596 l 954 656 b 982 683 954 671 967 683 l 1289 683 b 1317 656 1304 683 1317 671 l 1317 -26 b 1101 -265 1317 -190 1221 -265 b 881 -33 981 -265 881 -185 m 1204 939 b 1226 961 1204 950 1214 961 l 1301 961 b 1324 939 1314 961 1324 950 l 1324 836 b 1301 814 1324 824 1314 814 l 1226 814 b 1204 836 1214 814 1204 824 "},"ī":{"ha":764,"x_min":0,"x_max":0,"o":"m 163 0 b 135 28 147 0 135 13 l 135 72 b 163 100 135 88 147 100 l 347 100 b 361 114 356 100 361 106 l 361 569 b 347 583 361 578 356 583 l 176 583 b 149 611 161 583 149 596 l 149 656 b 176 683 149 671 161 683 l 436 683 b 464 656 451 683 464 671 l 464 114 b 478 100 464 106 469 100 l 654 100 b 682 72 669 100 682 88 l 682 28 b 654 0 682 13 669 0 l 163 0 m 351 939 b 374 961 351 950 361 961 l 449 961 b 471 939 461 961 471 950 l 471 836 b 449 814 471 824 461 814 l 374 814 b 351 836 361 814 351 824 "},"į":{"ha":764,"x_min":0,"x_max":0,"o":"m 163 0 b 135 28 147 0 135 13 l 135 72 b 163 100 135 88 147 100 l 347 100 b 361 114 356 100 361 106 l 361 569 b 347 583 361 578 356 583 l 176 583 b 149 611 161 583 149 596 l 149 656 b 176 683 149 671 161 683 l 436 683 b 464 656 451 683 464 671 l 464 114 b 478 100 464 106 469 100 l 654 100 b 682 72 669 100 682 88 l 682 28 b 654 0 682 13 669 0 l 163 0 m 351 939 b 374 961 351 950 361 961 l 449 961 b 471 939 461 961 471 950 l 471 836 b 449 814 471 824 461 814 l 374 814 b 351 836 361 814 351 824 "},"ĩ":{"ha":764,"x_min":0,"x_max":0,"o":"m 163 0 b 135 28 147 0 135 13 l 135 72 b 163 100 135 88 147 100 l 347 100 b 361 114 356 100 361 106 l 361 569 b 347 583 361 578 356 583 l 176 583 b 149 611 161 583 149 596 l 149 656 b 176 683 149 671 161 683 l 436 683 b 464 656 451 683 464 671 l 464 114 b 478 100 464 106 469 100 l 654 100 b 682 72 669 100 682 88 l 682 28 b 654 0 682 13 669 0 l 163 0 m 351 939 b 374 961 351 950 361 961 l 449 961 b 471 939 461 961 471 950 l 471 836 b 449 814 471 824 461 814 l 374 814 b 351 836 361 814 351 824 "},"ĵ":{"ha":764,"x_min":0,"x_max":0,"o":"m 338 -265 b 117 -33 217 -265 117 -185 b 146 -6 117 -18 129 -6 l 192 -6 b 219 -33 207 -6 219 -18 b 338 -165 219 -119 267 -165 b 451 -26 407 -165 451 -118 l 451 569 b 438 583 451 578 446 583 l 218 583 b 190 611 203 583 190 596 l 190 656 b 218 683 190 671 203 683 l 525 683 b 553 656 540 683 553 671 l 553 -26 b 338 -265 553 -190 457 -265 m 440 939 b 463 961 440 950 450 961 l 538 961 b 560 939 550 961 560 950 l 560 836 b 538 814 560 824 550 814 l 463 814 b 440 836 450 814 440 824 "},"ȷ":{"ha":764,"x_min":0,"x_max":0,"o":"m 338 -265 b 117 -33 217 -265 117 -185 b 146 -6 117 -18 129 -6 l 192 -6 b 219 -33 207 -6 219 -18 b 338 -165 219 -119 267 -165 b 451 -26 407 -165 451 -118 l 451 569 b 438 583 451 578 446 583 l 218 583 b 190 611 203 583 190 596 l 190 656 b 218 683 190 671 203 683 l 525 683 b 553 656 540 683 553 671 l 553 -26 b 338 -265 553 -190 457 -265 m 440 939 b 463 961 440 950 450 961 l 538 961 b 560 939 550 961 560 950 l 560 836 b 538 814 560 824 550 814 l 463 814 b 440 836 450 814 440 824 "},"ķ":{"ha":764,"x_min":0,"x_max":0,"o":"m 593 0 b 551 21 572 0 558 14 l 282 297 b 257 288 272 307 257 301 l 257 28 b 229 0 257 13 244 0 l 182 0 b 154 28 167 0 154 13 l 154 958 b 182 986 154 974 167 986 l 229 986 b 257 958 244 986 257 974 l 257 421 b 282 411 257 407 272 403 l 553 665 b 590 683 560 674 571 683 l 640 683 b 663 638 671 683 676 651 l 383 374 b 383 339 372 363 372 351 l 671 47 b 650 0 688 31 676 0 l 593 0 "},"ĸ":{"ha":764,"x_min":0,"x_max":0,"o":"m 593 0 b 551 21 572 0 558 14 l 282 297 b 257 288 272 307 257 301 l 257 28 b 229 0 257 13 244 0 l 182 0 b 154 28 167 0 154 13 l 154 958 b 182 986 154 974 167 986 l 229 986 b 257 958 244 986 257 974 l 257 421 b 282 411 257 407 272 403 l 553 665 b 590 683 560 674 571 683 l 640 683 b 663 638 671 683 676 651 l 383 374 b 383 339 372 363 372 351 l 671 47 b 650 0 688 31 676 0 l 593 0 "},"ĺ":{"ha":764,"x_min":0,"x_max":0,"o":"m 163 0 b 135 28 147 0 135 13 l 135 72 b 163 100 135 88 147 100 l 346 100 b 360 114 354 100 360 106 l 360 872 b 346 886 360 881 354 886 l 176 886 b 149 914 161 886 149 899 l 149 958 b 176 986 149 974 161 986 l 435 986 b 463 958 450 986 463 974 l 463 114 b 476 100 463 106 468 100 l 654 100 b 682 72 669 100 682 88 l 682 28 b 654 0 682 13 669 0 l 163 0 "},"ľ":{"ha":764,"x_min":0,"x_max":0,"o":"m 163 0 b 135 28 147 0 135 13 l 135 72 b 163 100 135 88 147 100 l 346 100 b 360 114 354 100 360 106 l 360 872 b 346 886 360 881 354 886 l 176 886 b 149 914 161 886 149 899 l 149 958 b 176 986 149 974 161 986 l 435 986 b 463 958 450 986 463 974 l 463 114 b 476 100 463 106 468 100 l 654 100 b 682 72 669 100 682 88 l 682 28 b 654 0 682 13 669 0 l 163 0 "},"ļ":{"ha":764,"x_min":0,"x_max":0,"o":"m 163 0 b 135 28 147 0 135 13 l 135 72 b 163 100 135 88 147 100 l 346 100 b 360 114 354 100 360 106 l 360 872 b 346 886 360 881 354 886 l 176 886 b 149 914 161 886 149 899 l 149 958 b 176 986 149 974 161 986 l 435 986 b 463 958 450 986 463 974 l 463 114 b 476 100 463 106 468 100 l 654 100 b 682 72 669 100 682 88 l 682 28 b 654 0 682 13 669 0 l 163 0 "},"ŀ":{"ha":764,"x_min":0,"x_max":0,"o":"m 163 0 b 135 28 147 0 135 13 l 135 72 b 163 100 135 88 147 100 l 346 100 b 360 114 354 100 360 106 l 360 872 b 346 886 360 881 354 886 l 176 886 b 149 914 161 886 149 899 l 149 958 b 176 986 149 974 161 986 l 435 986 b 463 958 450 986 463 974 l 463 114 b 476 100 463 106 468 100 l 654 100 b 682 72 669 100 682 88 l 682 28 b 654 0 682 13 669 0 l 163 0 "},"ł":{"ha":764,"x_min":0,"x_max":0,"o":"m 163 0 b 135 28 147 0 135 13 l 135 72 b 163 100 135 88 147 100 l 346 100 b 360 114 354 100 360 106 l 360 872 b 346 886 360 881 354 886 l 176 886 b 149 914 161 886 149 899 l 149 958 b 176 986 149 974 161 986 l 435 986 b 463 958 450 986 463 974 l 463 114 b 476 100 463 106 468 100 l 654 100 b 682 72 669 100 682 88 l 682 28 b 654 0 682 13 669 0 l 163 0 "},"ń":{"ha":764,"x_min":0,"x_max":0,"o":"m 158 0 b 131 28 143 0 131 13 l 131 656 b 158 683 131 671 143 683 l 200 683 b 250 646 229 683 224 646 b 421 699 285 646 299 699 b 649 442 549 699 649 610 l 649 28 b 621 0 649 13 636 0 l 574 0 b 546 28 558 0 546 13 l 546 435 b 390 597 546 544 479 597 b 232 435 300 597 232 544 l 232 28 b 204 0 232 13 219 0 l 158 0 "},"ŉ":{"ha":764,"x_min":0,"x_max":0,"o":"m 158 0 b 131 28 143 0 131 13 l 131 656 b 158 683 131 671 143 683 l 200 683 b 250 646 229 683 224 646 b 421 699 285 646 299 699 b 649 442 549 699 649 610 l 649 28 b 621 0 649 13 636 0 l 574 0 b 546 28 558 0 546 13 l 546 435 b 390 597 546 544 479 597 b 232 435 300 597 232 544 l 232 28 b 204 0 232 13 219 0 l 158 0 "},"ň":{"ha":764,"x_min":0,"x_max":0,"o":"m 158 0 b 131 28 143 0 131 13 l 131 656 b 158 683 131 671 143 683 l 200 683 b 250 646 229 683 224 646 b 421 699 285 646 299 699 b 649 442 549 699 649 610 l 649 28 b 621 0 649 13 636 0 l 574 0 b 546 28 558 0 546 13 l 546 435 b 390 597 546 544 479 597 b 232 435 300 597 232 544 l 232 28 b 204 0 232 13 219 0 l 158 0 "},"ņ":{"ha":764,"x_min":0,"x_max":0,"o":"m 158 0 b 131 28 143 0 131 13 l 131 656 b 158 683 131 671 143 683 l 200 683 b 250 646 229 683 224 646 b 421 699 285 646 299 699 b 649 442 549 699 649 610 l 649 28 b 621 0 649 13 636 0 l 574 0 b 546 28 558 0 546 13 l 546 435 b 390 597 546 544 479 597 b 232 435 300 597 232 544 l 232 28 b 204 0 232 13 219 0 l 158 0 "},"ñ":{"ha":764,"x_min":0,"x_max":0,"o":"m 158 0 b 131 28 143 0 131 13 l 131 656 b 158 683 131 671 143 683 l 200 683 b 250 646 229 683 224 646 b 421 699 285 646 299 699 b 649 442 549 699 649 610 l 649 28 b 621 0 649 13 636 0 l 574 0 b 546 28 558 0 546 13 l 546 435 b 390 597 546 544 479 597 b 232 435 300 597 232 544 l 232 28 b 204 0 232 13 219 0 l 158 0 "},"ŋ":{"ha":764,"x_min":0,"x_max":0,"o":"m 158 0 b 131 28 143 0 131 13 l 131 656 b 158 683 131 671 143 683 l 200 683 b 250 646 229 683 224 646 b 421 699 285 646 299 699 b 649 442 549 699 649 610 l 649 28 b 621 0 649 13 636 0 l 574 0 b 546 28 558 0 546 13 l 546 435 b 390 597 546 544 479 597 b 232 435 300 597 232 544 l 232 28 b 204 0 232 13 219 0 l 158 0 "},"ó":{"ha":764,"x_min":0,"x_max":0,"o":"m 382 -15 b 144 107 281 -15 194 29 b 97 342 108 163 97 219 b 144 578 97 465 107 522 b 382 699 196 653 281 699 b 619 578 483 699 569 654 b 667 342 657 522 667 465 b 619 107 667 219 657 161 b 382 -15 569 29 483 -15 m 203 342 b 224 179 203 253 206 215 b 382 86 254 122 313 86 b 540 179 451 86 511 122 b 561 342 558 215 561 253 b 540 506 561 431 558 468 b 382 597 511 561 451 597 b 224 506 313 597 254 561 b 203 342 206 468 203 431 "},"ŏ":{"ha":764,"x_min":0,"x_max":0,"o":"m 382 -15 b 144 107 281 -15 194 29 b 97 342 108 163 97 219 b 144 578 97 465 107 522 b 382 699 196 653 281 699 b 619 578 483 699 569 654 b 667 342 657 522 667 465 b 619 107 667 219 657 161 b 382 -15 569 29 483 -15 m 203 342 b 224 179 203 253 206 215 b 382 86 254 122 313 86 b 540 179 451 86 511 122 b 561 342 558 215 561 253 b 540 506 561 431 558 468 b 382 597 511 561 451 597 b 224 506 313 597 254 561 b 203 342 206 468 203 431 "},"ô":{"ha":764,"x_min":0,"x_max":0,"o":"m 382 -15 b 144 107 281 -15 194 29 b 97 342 108 163 97 219 b 144 578 97 465 107 522 b 382 699 196 653 281 699 b 619 578 483 699 569 654 b 667 342 657 522 667 465 b 619 107 667 219 657 161 b 382 -15 569 29 483 -15 m 203 342 b 224 179 203 253 206 215 b 382 86 254 122 313 86 b 540 179 451 86 511 122 b 561 342 558 215 561 253 b 540 506 561 431 558 468 b 382 597 511 561 451 597 b 224 506 313 597 254 561 b 203 342 206 468 203 431 "},"ö":{"ha":764,"x_min":0,"x_max":0,"o":"m 382 -15 b 144 107 281 -15 194 29 b 97 342 108 163 97 219 b 144 578 97 465 107 522 b 382 699 196 653 281 699 b 619 578 483 699 569 654 b 667 342 657 522 667 465 b 619 107 667 219 657 161 b 382 -15 569 29 483 -15 m 203 342 b 224 179 203 253 206 215 b 382 86 254 122 313 86 b 540 179 451 86 511 122 b 561 342 558 215 561 253 b 540 506 561 431 558 468 b 382 597 511 561 451 597 b 224 506 313 597 254 561 b 203 342 206 468 203 431 "},"œ":{"ha":1235,"x_min":0,"x_max":0,"o":"m 382 -15 b 144 107 281 -15 194 29 b 97 342 108 163 97 219 b 144 578 97 465 107 522 b 382 699 196 653 281 699 b 619 578 483 699 569 654 l 619 576 b 856 699 665 657 743 699 b 1136 389 1036 699 1136 579 l 1136 335 b 1108 307 1136 319 1124 307 l 690 307 b 676 294 682 307 676 301 b 858 81 676 144 756 81 b 1015 183 935 81 989 101 b 1049 207 1021 197 1033 207 l 1093 207 b 1117 178 1110 207 1119 194 b 858 -15 1094 57 996 -15 b 621 108 747 -15 667 25 b 619 107 619 108 619 107 b 382 -15 569 29 483 -15 m 203 342 b 224 179 203 253 206 215 b 382 86 254 122 313 86 b 540 179 451 86 511 122 b 561 342 558 215 561 253 b 540 506 561 431 558 468 b 382 597 511 561 451 597 b 224 506 313 597 254 561 b 203 342 206 468 203 431 m 678 415 b 692 401 678 406 683 401 l 1019 401 b 1033 415 1028 401 1033 406 b 857 604 1033 526 972 604 b 678 415 740 604 678 526 "},"ò":{"ha":764,"x_min":0,"x_max":0,"o":"m 382 -15 b 144 107 281 -15 194 29 b 97 342 108 163 97 219 b 144 578 97 465 107 522 b 382 699 196 653 281 699 b 619 578 483 699 569 654 b 667 342 657 522 667 465 b 619 107 667 219 657 161 b 382 -15 569 29 483 -15 m 203 342 b 224 179 203 253 206 215 b 382 86 254 122 313 86 b 540 179 451 86 511 122 b 561 342 558 215 561 253 b 540 506 561 431 558 468 b 382 597 511 561 451 597 b 224 506 313 597 254 561 b 203 342 206 468 203 431 "},"ő":{"ha":764,"x_min":0,"x_max":0,"o":"m 382 -15 b 144 107 281 -15 194 29 b 97 342 108 163 97 219 b 144 578 97 465 107 522 b 382 699 196 653 281 699 b 619 578 483 699 569 654 b 667 342 657 522 667 465 b 619 107 667 219 657 161 b 382 -15 569 29 483 -15 m 203 342 b 224 179 203 253 206 215 b 382 86 254 122 313 86 b 540 179 451 86 511 122 b 561 342 558 215 561 253 b 540 506 561 431 558 468 b 382 597 511 561 451 597 b 224 506 313 597 254 561 b 203 342 206 468 203 431 "},"ō":{"ha":764,"x_min":0,"x_max":0,"o":"m 382 -15 b 144 107 281 -15 194 29 b 97 342 108 163 97 219 b 144 578 97 465 107 522 b 382 699 196 653 281 699 b 619 578 483 699 569 654 b 667 342 657 522 667 465 b 619 107 667 219 657 161 b 382 -15 569 29 483 -15 m 203 342 b 224 179 203 253 206 215 b 382 86 254 122 313 86 b 540 179 451 86 511 122 b 561 342 558 215 561 253 b 540 506 561 431 558 468 b 382 597 511 561 451 597 b 224 506 313 597 254 561 b 203 342 206 468 203 431 "},"ª":{"ha":764,"x_min":0,"x_max":0,"o":"m 340 -15 b 103 201 182 -15 103 85 b 322 411 103 319 181 411 l 511 411 b 525 425 519 411 525 417 l 525 467 b 379 603 525 546 481 603 b 232 500 282 603 233 557 b 201 476 231 479 217 476 l 161 476 b 133 504 140 476 133 488 b 379 699 133 615 232 699 b 624 465 532 699 624 614 l 624 28 b 596 0 624 13 611 0 l 563 0 b 510 38 533 0 538 38 b 340 -15 474 38 449 -15 m 206 203 b 347 79 206 121 272 79 b 525 238 460 79 525 135 l 525 304 b 511 318 525 313 519 318 l 332 318 b 206 203 260 318 206 278 "},"º":{"ha":764,"x_min":0,"x_max":0,"o":"m 382 -15 b 144 107 281 -15 194 29 b 97 342 108 163 97 219 b 144 578 97 465 107 522 b 382 699 196 653 281 699 b 619 578 483 699 569 654 b 667 342 657 522 667 465 b 619 107 667 219 657 161 b 382 -15 569 29 483 -15 m 203 342 b 224 179 203 253 206 215 b 382 86 254 122 313 86 b 540 179 451 86 511 122 b 561 342 558 215 561 253 b 540 506 561 431 558 468 b 382 597 511 561 451 597 b 224 506 313 597 254 561 b 203 342 206 468 203 431 "},"ø":{"ha":764,"x_min":0,"x_max":0,"o":"m 382 -15 b 144 107 281 -15 194 29 b 97 342 108 163 97 219 b 144 578 97 465 107 522 b 382 699 196 653 281 699 b 619 578 483 699 569 654 b 667 342 657 522 667 465 b 619 107 667 219 657 161 b 382 -15 569 29 483 -15 m 203 342 b 224 179 203 253 206 215 b 382 86 254 122 313 86 b 540 179 451 86 511 122 b 561 342 558 215 561 253 b 540 506 561 431 558 468 b 382 597 511 561 451 597 b 224 506 313 597 254 561 b 203 342 206 468 203 431 "},"ǿ":{"ha":764,"x_min":0,"x_max":0,"o":"m 382 -15 b 144 107 281 -15 194 29 b 97 342 108 163 97 219 b 144 578 97 465 107 522 b 382 699 196 653 281 699 b 619 578 483 699 569 654 b 667 342 657 522 667 465 b 619 107 667 219 657 161 b 382 -15 569 29 483 -15 m 203 342 b 224 179 203 253 206 215 b 382 86 254 122 313 86 b 540 179 451 86 511 122 b 561 342 558 215 561 253 b 540 506 561 431 558 468 b 382 597 511 561 451 597 b 224 506 313 597 254 561 b 203 342 206 468 203 431 "},"õ":{"ha":764,"x_min":0,"x_max":0,"o":"m 382 -15 b 144 107 281 -15 194 29 b 97 342 108 163 97 219 b 144 578 97 465 107 522 b 382 699 196 653 281 699 b 619 578 483 699 569 654 b 667 342 657 522 667 465 b 619 107 667 219 657 161 b 382 -15 569 29 483 -15 m 203 342 b 224 179 203 253 206 215 b 382 86 254 122 313 86 b 540 179 451 86 511 122 b 561 342 558 215 561 253 b 540 506 561 431 558 468 b 382 597 511 561 451 597 b 224 506 313 597 254 561 b 203 342 206 468 203 431 "},"ŕ":{"ha":764,"x_min":0,"x_max":0,"o":"m 188 0 b 160 28 172 0 160 13 l 160 656 b 188 683 160 671 172 683 l 222 683 b 246 667 231 683 242 681 b 278 629 250 649 258 629 b 465 699 313 629 331 699 b 689 467 588 699 689 601 b 661 439 689 451 676 439 l 614 439 b 586 467 599 439 586 451 b 438 597 586 546 525 597 b 263 399 339 597 263 538 l 263 28 b 235 0 263 13 250 0 l 188 0 "},"ř":{"ha":764,"x_min":0,"x_max":0,"o":"m 188 0 b 160 28 172 0 160 13 l 160 656 b 188 683 160 671 172 683 l 222 683 b 246 667 231 683 242 681 b 278 629 250 649 258 629 b 465 699 313 629 331 699 b 689 467 588 699 689 601 b 661 439 689 451 676 439 l 614 439 b 586 467 599 439 586 451 b 438 597 586 546 525 597 b 263 399 339 597 263 538 l 263 28 b 235 0 263 13 250 0 l 188 0 "},"ŗ":{"ha":764,"x_min":0,"x_max":0,"o":"m 188 0 b 160 28 172 0 160 13 l 160 656 b 188 683 160 671 172 683 l 222 683 b 246 667 231 683 242 681 b 278 629 250 649 258 629 b 465 699 313 629 331 699 b 689 467 588 699 689 601 b 661 439 689 451 676 439 l 614 439 b 586 467 599 439 586 451 b 438 597 586 546 525 597 b 263 399 339 597 263 538 l 263 28 b 235 0 263 13 250 0 l 188 0 "},"ś":{"ha":764,"x_min":0,"x_max":0,"o":"m 386 -15 b 103 204 217 -15 103 68 b 131 229 103 219 115 229 l 179 229 b 207 204 194 229 207 219 b 386 79 207 126 279 79 b 551 192 494 79 551 129 b 447 289 551 240 525 275 l 304 314 b 124 503 181 336 124 406 b 388 699 124 618 235 699 b 646 504 536 699 646 621 b 618 476 646 489 633 476 l 571 476 b 543 504 556 476 543 489 b 388 604 542 565 483 604 b 228 504 285 604 228 565 b 351 406 228 453 261 421 l 471 385 b 656 194 599 363 656 296 b 386 -15 656 76 554 -15 "},"š":{"ha":764,"x_min":0,"x_max":0,"o":"m 386 -15 b 103 204 217 -15 103 68 b 131 229 103 219 115 229 l 179 229 b 207 204 194 229 207 219 b 386 79 207 126 279 79 b 551 192 494 79 551 129 b 447 289 551 240 525 275 l 304 314 b 124 503 181 336 124 406 b 388 699 124 618 235 699 b 646 504 536 699 646 621 b 618 476 646 489 633 476 l 571 476 b 543 504 556 476 543 489 b 388 604 542 565 483 604 b 228 504 285 604 228 565 b 351 406 228 453 261 421 l 471 385 b 656 194 599 363 656 296 b 386 -15 656 76 554 -15 "},"ş":{"ha":764,"x_min":0,"x_max":0,"o":"m 386 -15 b 103 204 217 -15 103 68 b 131 229 103 219 115 229 l 179 229 b 207 204 194 229 207 219 b 386 79 207 126 279 79 b 551 192 494 79 551 129 b 447 289 551 240 525 275 l 304 314 b 124 503 181 336 124 406 b 388 699 124 618 235 699 b 646 504 536 699 646 621 b 618 476 646 489 633 476 l 571 476 b 543 504 556 476 543 489 b 388 604 542 565 483 604 b 228 504 285 604 228 565 b 351 406 228 453 261 421 l 471 385 b 656 194 599 363 656 296 b 386 -15 656 76 554 -15 "},"ŝ":{"ha":764,"x_min":0,"x_max":0,"o":"m 386 -15 b 103 204 217 -15 103 68 b 131 229 103 219 115 229 l 179 229 b 207 204 194 229 207 219 b 386 79 207 126 279 79 b 551 192 494 79 551 129 b 447 289 551 240 525 275 l 304 314 b 124 503 181 336 124 406 b 388 699 124 618 235 699 b 646 504 536 699 646 621 b 618 476 646 489 633 476 l 571 476 b 543 504 556 476 543 489 b 388 604 542 565 483 604 b 228 504 285 604 228 565 b 351 406 228 453 261 421 l 471 385 b 656 194 599 363 656 296 b 386 -15 656 76 554 -15 "},"ș":{"ha":764,"x_min":0,"x_max":0,"o":"m 386 -15 b 103 204 217 -15 103 68 b 131 229 103 219 115 229 l 179 229 b 207 204 194 229 207 219 b 386 79 207 126 279 79 b 551 192 494 79 551 129 b 447 289 551 240 525 275 l 304 314 b 124 503 181 336 124 406 b 388 699 124 618 235 699 b 646 504 536 699 646 621 b 618 476 646 489 633 476 l 571 476 b 543 504 556 476 543 489 b 388 604 542 565 483 604 b 228 504 285 604 228 565 b 351 406 228 453 261 421 l 471 385 b 656 194 599 363 656 296 b 386 -15 656 76 554 -15 "},"ŧ":{"ha":764,"x_min":0,"x_max":0,"o":"m 474 -15 b 251 215 349 -15 251 64 l 251 571 b 238 585 251 579 246 585 l 76 585 b 49 613 61 585 49 597 l 49 656 b 76 683 49 671 61 683 l 238 683 b 251 697 246 683 251 689 l 251 904 b 279 932 251 919 264 932 l 326 932 b 354 904 342 932 354 919 l 354 697 b 368 683 354 689 360 683 l 624 683 b 651 656 639 683 651 671 l 651 613 b 624 585 651 597 639 585 l 368 585 b 354 571 360 585 354 579 l 354 214 b 474 85 354 119 408 85 b 594 214 549 85 594 140 l 594 235 b 622 263 594 250 607 263 l 667 263 b 696 235 683 263 696 250 l 696 215 b 474 -15 696 85 600 -15 "},"ť":{"ha":764,"x_min":0,"x_max":0,"o":"m 474 -15 b 251 215 349 -15 251 64 l 251 571 b 238 585 251 579 246 585 l 76 585 b 49 613 61 585 49 597 l 49 656 b 76 683 49 671 61 683 l 238 683 b 251 697 246 683 251 689 l 251 904 b 279 932 251 919 264 932 l 326 932 b 354 904 342 932 354 919 l 354 697 b 368 683 354 689 360 683 l 624 683 b 651 656 639 683 651 671 l 651 613 b 624 585 651 597 639 585 l 368 585 b 354 571 360 585 354 579 l 354 214 b 474 85 354 119 408 85 b 594 214 549 85 594 140 l 594 235 b 622 263 594 250 607 263 l 667 263 b 696 235 683 263 696 250 l 696 215 b 474 -15 696 85 600 -15 "},"ţ":{"ha":764,"x_min":0,"x_max":0,"o":"m 474 -15 b 251 215 349 -15 251 64 l 251 571 b 238 585 251 579 246 585 l 76 585 b 49 613 61 585 49 597 l 49 656 b 76 683 49 671 61 683 l 238 683 b 251 697 246 683 251 689 l 251 904 b 279 932 251 919 264 932 l 326 932 b 354 904 342 932 354 919 l 354 697 b 368 683 354 689 360 683 l 624 683 b 651 656 639 683 651 671 l 651 613 b 624 585 651 597 639 585 l 368 585 b 354 571 360 585 354 579 l 354 214 b 474 85 354 119 408 85 b 594 214 549 85 594 140 l 594 235 b 622 263 594 250 607 263 l 667 263 b 696 235 683 263 696 250 l 696 215 b 474 -15 696 85 600 -15 "},"ț":{"ha":764,"x_min":0,"x_max":0,"o":"m 474 -15 b 251 215 349 -15 251 64 l 251 571 b 238 585 251 579 246 585 l 76 585 b 49 613 61 585 49 597 l 49 656 b 76 683 49 671 61 683 l 238 683 b 251 697 246 683 251 689 l 251 904 b 279 932 251 919 264 932 l 326 932 b 354 904 342 932 354 919 l 354 697 b 368 683 354 689 360 683 l 624 683 b 651 656 639 683 651 671 l 651 613 b 624 585 651 597 639 585 l 368 585 b 354 571 360 585 354 579 l 354 214 b 474 85 354 119 408 85 b 594 214 549 85 594 140 l 594 235 b 622 263 594 250 607 263 l 667 263 b 696 235 683 263 696 250 l 696 215 b 474 -15 696 85 600 -15 "},"þ":{"ha":764,"x_min":0,"x_max":0,"o":"m 151 -250 b 124 -222 136 -250 124 -237 l 124 656 b 151 683 124 671 136 683 l 186 683 b 239 646 215 683 210 646 b 407 699 275 646 300 699 b 626 578 501 699 581 654 b 671 342 663 522 671 467 b 626 107 671 218 663 161 b 404 -15 581 29 500 -15 b 253 32 310 -15 283 32 b 226 -8 235 32 226 21 l 226 -222 b 199 -250 226 -237 214 -250 l 151 -250 m 224 342 b 243 179 224 253 225 215 b 394 86 269 122 326 86 b 546 179 463 86 519 122 b 567 342 565 215 567 253 b 546 506 567 431 565 468 b 394 597 519 561 463 597 b 243 506 326 597 269 561 b 224 342 225 468 224 431 "},"ú":{"ha":764,"x_min":0,"x_max":0,"o":"m 346 -15 b 124 238 219 -15 124 74 l 124 656 b 151 683 124 671 136 683 l 197 683 b 225 656 213 683 225 671 l 225 244 b 376 86 225 139 289 86 b 529 244 464 86 529 139 l 529 656 b 557 683 529 671 542 683 l 603 683 b 631 656 618 683 631 671 l 631 28 b 603 0 631 13 618 0 l 567 0 b 517 38 538 0 543 38 b 346 -15 482 38 468 -15 "},"ŭ":{"ha":764,"x_min":0,"x_max":0,"o":"m 346 -15 b 124 238 219 -15 124 74 l 124 656 b 151 683 124 671 136 683 l 197 683 b 225 656 213 683 225 671 l 225 244 b 376 86 225 139 289 86 b 529 244 464 86 529 139 l 529 656 b 557 683 529 671 542 683 l 603 683 b 631 656 618 683 631 671 l 631 28 b 603 0 631 13 618 0 l 567 0 b 517 38 538 0 543 38 b 346 -15 482 38 468 -15 "},"û":{"ha":764,"x_min":0,"x_max":0,"o":"m 346 -15 b 124 238 219 -15 124 74 l 124 656 b 151 683 124 671 136 683 l 197 683 b 225 656 213 683 225 671 l 225 244 b 376 86 225 139 289 86 b 529 244 464 86 529 139 l 529 656 b 557 683 529 671 542 683 l 603 683 b 631 656 618 683 631 671 l 631 28 b 603 0 631 13 618 0 l 567 0 b 517 38 538 0 543 38 b 346 -15 482 38 468 -15 "},"ü":{"ha":764,"x_min":0,"x_max":0,"o":"m 346 -15 b 124 238 219 -15 124 74 l 124 656 b 151 683 124 671 136 683 l 197 683 b 225 656 213 683 225 671 l 225 244 b 376 86 225 139 289 86 b 529 244 464 86 529 139 l 529 656 b 557 683 529 671 542 683 l 603 683 b 631 656 618 683 631 671 l 631 28 b 603 0 631 13 618 0 l 567 0 b 517 38 538 0 543 38 b 346 -15 482 38 468 -15 "},"ù":{"ha":764,"x_min":0,"x_max":0,"o":"m 346 -15 b 124 238 219 -15 124 74 l 124 656 b 151 683 124 671 136 683 l 197 683 b 225 656 213 683 225 671 l 225 244 b 376 86 225 139 289 86 b 529 244 464 86 529 139 l 529 656 b 557 683 529 671 542 683 l 603 683 b 631 656 618 683 631 671 l 631 28 b 603 0 631 13 618 0 l 567 0 b 517 38 538 0 543 38 b 346 -15 482 38 468 -15 "},"ű":{"ha":764,"x_min":0,"x_max":0,"o":"m 346 -15 b 124 238 219 -15 124 74 l 124 656 b 151 683 124 671 136 683 l 197 683 b 225 656 213 683 225 671 l 225 244 b 376 86 225 139 289 86 b 529 244 464 86 529 139 l 529 656 b 557 683 529 671 542 683 l 603 683 b 631 656 618 683 631 671 l 631 28 b 603 0 631 13 618 0 l 567 0 b 517 38 538 0 543 38 b 346 -15 482 38 468 -15 "},"ū":{"ha":764,"x_min":0,"x_max":0,"o":"m 346 -15 b 124 238 219 -15 124 74 l 124 656 b 151 683 124 671 136 683 l 197 683 b 225 656 213 683 225 671 l 225 244 b 376 86 225 139 289 86 b 529 244 464 86 529 139 l 529 656 b 557 683 529 671 542 683 l 603 683 b 631 656 618 683 631 671 l 631 28 b 603 0 631 13 618 0 l 567 0 b 517 38 538 0 543 38 b 346 -15 482 38 468 -15 "},"ų":{"ha":764,"x_min":0,"x_max":0,"o":"m 346 -15 b 124 238 219 -15 124 74 l 124 656 b 151 683 124 671 136 683 l 197 683 b 225 656 213 683 225 671 l 225 244 b 376 86 225 139 289 86 b 529 244 464 86 529 139 l 529 656 b 557 683 529 671 542 683 l 603 683 b 631 656 618 683 631 671 l 631 28 b 603 0 631 13 618 0 l 567 0 b 517 38 538 0 543 38 b 346 -15 482 38 468 -15 "},"ů":{"ha":764,"x_min":0,"x_max":0,"o":"m 346 -15 b 124 238 219 -15 124 74 l 124 656 b 151 683 124 671 136 683 l 197 683 b 225 656 213 683 225 671 l 225 244 b 376 86 225 139 289 86 b 529 244 464 86 529 139 l 529 656 b 557 683 529 671 542 683 l 603 683 b 631 656 618 683 631 671 l 631 28 b 603 0 631 13 618 0 l 567 0 b 517 38 538 0 543 38 b 346 -15 482 38 468 -15 "},"ũ":{"ha":764,"x_min":0,"x_max":0,"o":"m 346 -15 b 124 238 219 -15 124 74 l 124 656 b 151 683 124 671 136 683 l 197 683 b 225 656 213 683 225 671 l 225 244 b 376 86 225 139 289 86 b 529 244 464 86 529 139 l 529 656 b 557 683 529 671 542 683 l 603 683 b 631 656 618 683 631 671 l 631 28 b 603 0 631 13 618 0 l 567 0 b 517 38 538 0 543 38 b 346 -15 482 38 468 -15 "},"ẃ":{"ha":764,"x_min":0,"x_max":0,"o":"m 185 0 b 158 21 172 0 161 7 l 57 649 b 82 683 54 667 60 683 l 124 683 b 150 663 136 683 147 678 l 224 186 b 244 186 225 175 242 175 l 331 524 b 357 544 335 539 344 544 l 407 544 b 433 524 419 544 429 539 l 519 186 b 540 186 522 175 539 175 l 614 663 b 640 683 617 678 628 683 l 682 683 b 707 649 704 683 710 667 l 606 21 b 579 0 603 7 592 0 l 513 0 b 486 21 500 0 490 7 l 393 360 b 371 360 389 372 375 372 l 278 21 b 251 0 274 7 264 0 l 185 0 "},"ŵ":{"ha":764,"x_min":0,"x_max":0,"o":"m 185 0 b 158 21 172 0 161 7 l 57 649 b 82 683 54 667 60 683 l 124 683 b 150 663 136 683 147 678 l 224 186 b 244 186 225 175 242 175 l 331 524 b 357 544 335 539 344 544 l 407 544 b 433 524 419 544 429 539 l 519 186 b 540 186 522 175 539 175 l 614 663 b 640 683 617 678 628 683 l 682 683 b 707 649 704 683 710 667 l 606 21 b 579 0 603 7 592 0 l 513 0 b 486 21 500 0 490 7 l 393 360 b 371 360 389 372 375 372 l 278 21 b 251 0 274 7 264 0 l 185 0 "},"ẅ":{"ha":764,"x_min":0,"x_max":0,"o":"m 185 0 b 158 21 172 0 161 7 l 57 649 b 82 683 54 667 60 683 l 124 683 b 150 663 136 683 147 678 l 224 186 b 244 186 225 175 242 175 l 331 524 b 357 544 335 539 344 544 l 407 544 b 433 524 419 544 429 539 l 519 186 b 540 186 522 175 539 175 l 614 663 b 640 683 617 678 628 683 l 682 683 b 707 649 704 683 710 667 l 606 21 b 579 0 603 7 592 0 l 513 0 b 486 21 500 0 490 7 l 393 360 b 371 360 389 372 375 372 l 278 21 b 251 0 274 7 264 0 l 185 0 "},"ẁ":{"ha":764,"x_min":0,"x_max":0,"o":"m 185 0 b 158 21 172 0 161 7 l 57 649 b 82 683 54 667 60 683 l 124 683 b 150 663 136 683 147 678 l 224 186 b 244 186 225 175 242 175 l 331 524 b 357 544 335 539 344 544 l 407 544 b 433 524 419 544 429 539 l 519 186 b 540 186 522 175 539 175 l 614 663 b 640 683 617 678 628 683 l 682 683 b 707 649 704 683 710 667 l 606 21 b 579 0 603 7 592 0 l 513 0 b 486 21 500 0 490 7 l 393 360 b 371 360 389 372 375 372 l 278 21 b 251 0 274 7 264 0 l 185 0 "},"ý":{"ha":764,"x_min":0,"x_max":0,"o":"m 250 -250 b 225 -211 226 -250 218 -228 l 319 24 b 319 54 325 39 325 40 l 81 639 b 103 683 68 671 85 683 l 156 683 b 182 663 168 683 175 679 l 371 193 b 393 193 375 181 388 181 l 579 663 b 606 683 586 679 593 683 l 660 683 b 681 639 678 683 694 671 l 325 -229 b 299 -250 319 -244 311 -250 l 250 -250 "},"ŷ":{"ha":764,"x_min":0,"x_max":0,"o":"m 250 -250 b 225 -211 226 -250 218 -228 l 319 24 b 319 54 325 39 325 40 l 81 639 b 103 683 68 671 85 683 l 156 683 b 182 663 168 683 175 679 l 371 193 b 393 193 375 181 388 181 l 579 663 b 606 683 586 679 593 683 l 660 683 b 681 639 678 683 694 671 l 325 -229 b 299 -250 319 -244 311 -250 l 250 -250 "},"ÿ":{"ha":764,"x_min":0,"x_max":0,"o":"m 250 -250 b 225 -211 226 -250 218 -228 l 319 24 b 319 54 325 39 325 40 l 81 639 b 103 683 68 671 85 683 l 156 683 b 182 663 168 683 175 679 l 371 193 b 393 193 375 181 388 181 l 579 663 b 606 683 586 679 593 683 l 660 683 b 681 639 678 683 694 671 l 325 -229 b 299 -250 319 -244 311 -250 l 250 -250 "},"ỳ":{"ha":764,"x_min":0,"x_max":0,"o":"m 250 -250 b 225 -211 226 -250 218 -228 l 319 24 b 319 54 325 39 325 40 l 81 639 b 103 683 68 671 85 683 l 156 683 b 182 663 168 683 175 679 l 371 193 b 393 193 375 181 388 181 l 579 663 b 606 683 586 679 593 683 l 660 683 b 681 639 678 683 694 671 l 325 -229 b 299 -250 319 -244 311 -250 l 250 -250 "},"ź":{"ha":764,"x_min":0,"x_max":0,"o":"m 135 0 b 107 28 119 0 107 13 l 107 89 b 126 133 107 107 107 113 l 503 564 b 496 585 511 574 506 585 l 147 585 b 119 613 132 585 119 597 l 119 656 b 147 683 119 671 132 683 l 615 683 b 643 656 631 683 643 671 l 643 599 b 615 542 643 579 635 564 l 249 119 b 256 99 239 111 244 99 l 636 99 b 664 71 651 99 664 86 l 664 28 b 636 0 664 13 651 0 l 135 0 "},"ž":{"ha":764,"x_min":0,"x_max":0,"o":"m 135 0 b 107 28 119 0 107 13 l 107 89 b 126 133 107 107 107 113 l 503 564 b 496 585 511 574 506 585 l 147 585 b 119 613 132 585 119 597 l 119 656 b 147 683 119 671 132 683 l 615 683 b 643 656 631 683 643 671 l 643 599 b 615 542 643 579 635 564 l 249 119 b 256 99 239 111 244 99 l 636 99 b 664 71 651 99 664 86 l 664 28 b 636 0 664 13 651 0 l 135 0 "},"ż":{"ha":764,"x_min":0,"x_max":0,"o":"m 135 0 b 107 28 119 0 107 13 l 107 89 b 126 133 107 107 107 113 l 503 564 b 496 585 511 574 506 585 l 147 585 b 119 613 132 585 119 597 l 119 656 b 147 683 119 671 132 683 l 615 683 b 643 656 631 683 643 671 l 643 599 b 615 542 643 579 635 564 l 249 119 b 256 99 239 111 244 99 l 636 99 b 664 71 651 99 664 86 l 664 28 b 636 0 664 13 651 0 l 135 0 "},",":{"ha":764,"x_min":0,"x_max":0,"o":"m 338 -172 b 315 -126 317 -172 304 -153 l 358 -21 b 347 0 363 -12 358 0 l 325 0 b 297 28 310 0 297 13 l 297 156 b 325 183 297 171 310 183 l 439 183 b 467 156 454 183 467 171 l 467 38 b 444 -46 467 3 463 -17 l 389 -146 b 347 -172 379 -162 369 -172 l 338 -172 "},".":{"ha":764,"x_min":0,"x_max":0,"o":"m 325 0 b 297 28 310 0 297 13 l 297 156 b 325 183 297 171 310 183 l 439 183 b 467 156 454 183 467 171 l 467 28 b 439 0 467 13 454 0 l 325 0 "},"-":{"ha":764,"x_min":0,"x_max":0,"o":"m 236 314 b 208 342 221 314 208 326 l 208 392 b 236 419 208 407 221 419 l 553 419 b 581 392 568 419 581 407 l 581 342 b 553 314 581 326 568 314 l 236 314 "},"А":{"ha":764,"x_min":0,"x_max":0,"o":"m 78 0 b 51 36 58 0 47 18 l 310 950 b 338 972 314 965 325 972 l 426 972 b 454 950 439 972 450 965 l 713 36 b 686 0 717 18 706 0 l 629 0 b 603 21 617 0 607 7 l 539 244 b 522 260 538 254 532 260 l 242 260 b 225 244 232 260 228 254 l 161 21 b 135 0 157 7 147 0 l 78 0 m 260 382 b 272 364 257 374 263 364 l 492 364 b 504 382 501 364 507 374 l 393 800 b 371 800 389 813 375 813 l 260 382 "},"Б":{"ha":764,"x_min":0,"x_max":0,"o":"m 151 0 b 124 28 136 0 124 13 l 124 944 b 151 972 124 960 136 972 l 610 972 b 638 944 625 972 638 960 l 638 892 b 610 864 638 876 625 864 l 246 864 b 232 850 238 864 232 858 l 232 606 b 246 592 232 597 238 592 l 400 592 b 693 296 563 592 693 458 b 400 0 693 132 563 0 l 151 0 m 232 122 b 246 108 232 114 238 108 l 397 108 b 583 296 499 108 583 193 b 397 483 583 399 499 483 l 246 483 b 232 469 238 483 232 478 l 232 122 "},"В":{"ha":764,"x_min":0,"x_max":0,"o":"m 150 0 b 122 28 135 0 122 13 l 122 944 b 150 972 122 960 135 972 l 418 972 b 679 713 563 972 679 863 b 593 528 679 644 649 574 b 593 497 582 518 582 506 b 699 285 657 451 699 368 b 418 0 699 122 572 0 l 150 0 m 231 121 b 244 107 231 113 236 107 l 415 107 b 586 283 511 107 586 186 b 415 457 586 379 511 457 l 244 457 b 231 443 236 457 231 451 l 231 121 m 231 574 b 244 560 231 565 236 560 l 421 560 b 568 713 503 560 568 628 b 421 867 568 797 503 867 l 244 867 b 231 853 236 867 231 861 l 231 574 "},"Г":{"ha":764,"x_min":0,"x_max":0,"o":"m 178 0 b 150 28 163 0 150 13 l 150 944 b 178 972 150 960 163 972 l 669 972 b 697 944 685 972 697 960 l 697 892 b 669 864 697 876 685 864 l 272 864 b 258 850 264 864 258 858 l 258 28 b 231 0 258 13 246 0 l 178 0 "},"Д":{"ha":764,"x_min":0,"x_max":0,"o":"m 72 107 b 214 539 156 107 199 197 l 232 944 b 260 972 232 960 244 972 l 628 972 b 656 944 643 972 656 960 l 656 107 l 714 107 b 742 79 729 107 742 94 l 742 -111 b 714 -139 742 -126 729 -139 l 665 -139 b 638 -111 650 -139 638 -126 l 638 -14 b 624 0 638 -6 632 0 l 140 0 b 126 -14 132 0 126 -6 l 126 -111 b 99 -139 126 -126 114 -139 l 50 -139 b 22 -111 35 -139 22 -126 l 22 79 b 50 107 22 94 35 107 l 72 107 m 549 107 l 549 851 b 535 865 549 860 543 865 l 346 865 b 332 851 338 865 332 860 l 319 531 b 240 107 310 311 288 181 "},"Е":{"ha":764,"x_min":0,"x_max":0,"o":"m 172 0 b 144 28 157 0 144 13 l 144 944 b 172 972 144 960 157 972 l 644 972 b 672 944 660 972 672 960 l 672 892 b 644 864 672 876 660 864 l 267 864 b 253 850 258 864 253 858 l 253 569 b 267 556 253 561 258 556 l 631 556 b 658 528 646 556 658 543 l 658 476 b 631 449 658 461 646 449 l 267 449 b 253 435 258 449 253 443 l 253 122 b 267 108 253 114 258 108 l 649 108 b 676 81 664 108 676 96 l 676 28 b 649 0 676 13 664 0 l 172 0 "},"Ё":{"ha":764,"x_min":0,"x_max":0,"o":"m 172 0 b 144 28 157 0 144 13 l 144 944 b 172 972 144 960 157 972 l 644 972 b 672 944 660 972 672 960 l 672 892 b 644 864 672 876 660 864 l 267 864 b 253 850 258 864 253 858 l 253 569 b 267 556 253 561 258 556 l 631 556 b 658 528 646 556 658 543 l 658 476 b 631 449 658 461 646 449 l 267 449 b 253 435 258 449 253 443 l 253 122 b 267 108 253 114 258 108 l 649 108 b 676 81 664 108 676 96 l 676 28 b 649 0 676 13 664 0 l 172 0 "},"Ж":{"ha":764,"x_min":0,"x_max":0,"o":"m 42 0 b 19 51 11 0 8 28 l 218 478 b 218 518 226 494 225 504 l 26 922 b 49 972 15 946 19 972 l 81 972 b 117 957 97 972 111 967 l 313 554 b 332 560 317 546 332 549 l 332 944 b 360 972 332 960 344 972 l 404 972 b 432 944 419 972 432 960 l 432 560 b 451 554 432 549 447 546 l 647 957 b 683 972 653 967 667 972 l 715 972 b 738 922 744 972 749 946 l 546 518 b 546 478 539 504 538 494 l 744 51 b 722 0 756 28 753 0 l 685 0 b 649 18 669 0 653 6 l 451 432 b 432 426 447 440 432 439 l 432 28 b 404 0 432 13 419 0 l 360 0 b 332 28 344 0 332 13 l 332 426 b 313 432 332 439 317 440 l 115 18 b 79 0 111 6 94 0 l 42 0 "},"З":{"ha":764,"x_min":0,"x_max":0,"o":"m 385 -15 b 88 278 218 -15 88 114 l 88 288 b 115 315 88 303 100 315 l 167 315 b 194 288 182 315 194 303 l 194 278 b 385 86 194 172 275 86 b 568 278 499 86 568 172 b 388 456 568 371 514 456 l 374 456 b 346 483 358 456 346 468 l 346 531 b 374 558 346 546 358 558 l 388 558 b 549 714 488 558 549 628 b 385 886 549 804 493 886 b 214 714 274 886 214 797 l 214 694 b 186 667 214 679 201 667 l 135 667 b 107 694 119 667 107 679 l 107 714 b 385 988 107 868 228 988 b 656 715 542 988 656 869 b 576 526 656 640 628 572 b 575 494 565 517 563 504 b 676 276 635 442 676 363 b 385 -15 676 114 549 -15 "},"И":{"ha":764,"x_min":0,"x_max":0,"o":"m 138 0 b 110 28 122 0 110 13 l 110 944 b 138 972 110 960 122 972 l 192 972 b 219 944 207 972 219 960 l 219 240 b 242 238 219 228 236 225 l 526 949 b 557 972 535 967 540 972 l 650 972 b 678 944 665 972 678 960 l 678 28 b 650 0 678 13 665 0 l 597 0 b 569 28 582 0 569 13 l 569 732 b 547 735 569 744 553 747 l 261 24 b 232 0 253 6 247 0 l 138 0 "},"Й":{"ha":764,"x_min":0,"x_max":0,"o":"m 138 0 b 110 28 122 0 110 13 l 110 944 b 138 972 110 960 122 972 l 192 972 b 219 944 207 972 219 960 l 219 240 b 242 238 219 228 236 225 l 526 949 b 557 972 535 967 540 972 l 650 972 b 678 944 665 972 678 960 l 678 28 b 650 0 678 13 665 0 l 597 0 b 569 28 582 0 569 13 l 569 732 b 547 735 569 744 553 747 l 261 24 b 232 0 253 6 247 0 l 138 0 "},"К":{"ha":764,"x_min":0,"x_max":0,"o":"m 161 0 b 133 28 146 0 133 13 l 133 944 b 161 972 133 960 146 972 l 214 972 b 242 944 229 972 242 960 l 242 560 b 261 554 242 549 254 546 l 601 957 b 638 972 610 967 621 972 l 685 972 b 706 922 714 972 722 943 l 369 518 b 369 478 358 506 356 493 l 713 51 b 690 0 732 29 722 0 l 635 0 b 599 18 621 0 608 6 l 261 432 b 242 426 254 440 242 438 l 242 28 b 214 0 242 13 229 0 l 161 0 "},"Л":{"ha":764,"x_min":0,"x_max":0,"o":"m 74 -8 b 46 19 58 -8 46 4 l 46 72 b 74 100 46 88 57 100 l 85 100 b 190 353 157 100 181 142 l 217 944 b 244 972 217 960 229 972 l 664 972 b 692 944 679 972 692 960 l 692 28 b 664 0 692 13 679 0 l 611 0 b 583 28 596 0 583 13 l 583 851 b 569 865 583 860 578 865 l 333 865 b 319 851 325 865 319 860 l 299 329 b 89 -8 286 53 218 -8 l 74 -8 "},"М":{"ha":764,"x_min":0,"x_max":0,"o":"m 115 0 b 88 28 100 0 88 13 l 88 944 b 115 972 88 960 100 972 l 215 972 b 244 949 231 972 239 965 l 371 535 b 394 535 375 521 390 519 l 519 949 b 549 972 525 965 533 972 l 649 972 b 676 944 664 972 676 960 l 676 28 b 649 0 676 13 664 0 l 604 0 b 576 28 589 0 576 13 l 576 763 b 554 765 576 776 558 779 l 439 374 b 407 339 432 346 422 339 l 357 339 b 325 374 342 339 332 346 l 210 765 b 188 763 206 779 188 776 l 188 28 b 160 0 188 13 175 0 l 115 0 "},"Н":{"ha":764,"x_min":0,"x_max":0,"o":"m 126 0 b 99 28 111 0 99 13 l 99 944 b 126 972 99 960 111 972 l 179 972 b 207 944 194 972 207 960 l 207 571 b 221 557 207 563 213 557 l 543 557 b 557 571 551 557 557 563 l 557 944 b 585 972 557 960 569 972 l 638 972 b 665 944 653 972 665 960 l 665 28 b 638 0 665 13 653 0 l 585 0 b 557 28 569 0 557 13 l 557 435 b 543 449 557 443 551 449 l 221 449 b 207 435 213 449 207 443 l 207 28 b 178 0 207 13 193 0 l 126 0 "},"О":{"ha":764,"x_min":0,"x_max":0,"o":"m 382 -15 b 101 163 246 -15 149 60 b 63 486 65 238 63 350 b 101 810 63 622 65 735 b 382 988 149 913 246 988 b 663 810 518 988 615 913 b 701 486 699 735 701 622 b 663 163 701 350 699 238 b 382 -15 615 60 518 -15 m 175 486 b 200 218 175 383 176 278 b 382 94 235 133 306 94 b 564 218 458 94 529 133 b 589 486 588 276 589 383 b 564 754 589 589 588 696 b 382 878 529 839 458 878 b 200 754 306 878 235 839 b 175 486 176 694 175 589 "},"П":{"ha":764,"x_min":0,"x_max":0,"o":"m 126 0 b 99 28 111 0 99 13 l 99 944 b 126 972 99 960 111 972 l 638 972 b 665 944 653 972 665 960 l 665 28 b 638 0 665 13 653 0 l 585 0 b 557 28 569 0 557 13 l 557 850 b 543 864 557 858 551 864 l 221 864 b 207 850 213 864 207 858 l 207 28 b 179 0 207 13 194 0 l 126 0 "},"Р":{"ha":764,"x_min":0,"x_max":0,"o":"m 161 0 b 133 28 146 0 133 13 l 133 944 b 161 972 133 960 146 972 l 426 972 b 703 688 581 972 703 847 b 426 400 703 526 581 400 l 256 400 b 242 386 247 400 242 394 l 242 28 b 214 0 242 13 229 0 l 161 0 m 242 522 b 256 508 242 514 247 508 l 425 508 b 590 688 517 508 590 589 b 425 864 590 785 517 864 l 256 864 b 242 850 247 864 242 858 l 242 522 "},"С":{"ha":764,"x_min":0,"x_max":0,"o":"m 406 -15 b 124 163 269 -15 171 58 b 83 486 89 238 83 350 b 124 810 83 622 88 735 b 406 988 171 913 269 988 b 715 686 593 988 715 860 b 688 658 715 671 703 658 l 629 658 b 601 686 614 658 601 671 b 406 878 601 796 529 878 b 222 754 329 878 258 839 b 196 486 199 694 196 589 b 222 218 196 383 197 278 b 406 94 258 135 329 94 b 601 286 529 94 601 176 b 629 314 601 301 614 314 l 688 314 b 715 286 703 314 715 301 b 406 -15 715 113 593 -15 "},"Т":{"ha":764,"x_min":0,"x_max":0,"o":"m 356 0 b 328 28 340 0 328 13 l 328 850 b 314 864 328 858 322 864 l 89 864 b 61 892 74 864 61 876 l 61 944 b 89 972 61 960 74 972 l 675 972 b 703 944 690 972 703 960 l 703 892 b 675 864 703 876 690 864 l 450 864 b 436 850 442 864 436 858 l 436 28 b 408 0 436 13 424 0 l 356 0 "},"У":{"ha":764,"x_min":0,"x_max":0,"o":"m 272 0 b 253 35 254 0 246 15 l 331 250 l 67 932 b 92 972 58 954 74 972 l 154 972 b 181 951 167 972 175 967 l 379 432 b 400 432 383 421 397 421 l 588 951 b 614 972 593 967 601 972 l 678 972 b 703 932 696 972 711 954 l 360 21 b 333 0 356 8 346 0 l 272 0 "},"Ф":{"ha":764,"x_min":0,"x_max":0,"o":"m 360 -58 b 332 -31 344 -58 332 -46 l 332 54 b 318 68 332 63 326 68 l 311 68 b 15 486 142 68 15 215 b 311 904 15 757 142 904 l 318 904 b 332 918 326 904 332 910 l 332 1003 b 360 1031 332 1018 344 1031 l 404 1031 b 432 1003 419 1031 432 1018 l 432 918 b 446 904 432 910 438 904 l 453 904 b 749 486 622 904 749 757 b 453 68 749 215 622 68 l 446 68 b 432 54 438 68 432 63 l 432 -31 b 404 -58 432 -46 419 -58 l 360 -58 m 122 486 b 311 169 122 267 213 169 l 318 169 b 332 183 326 169 332 175 l 332 789 b 318 803 332 797 326 803 l 311 803 b 122 486 213 803 122 706 m 432 183 b 446 169 432 175 438 169 l 453 169 b 642 486 551 169 642 267 b 453 803 642 706 551 803 l 446 803 b 432 789 438 803 432 797 l 432 183 "},"Х":{"ha":764,"x_min":0,"x_max":0,"o":"m 99 0 b 76 42 71 0 67 22 l 306 478 b 307 504 311 488 311 494 l 83 932 b 106 972 74 951 79 972 l 168 972 b 194 951 181 972 186 967 l 372 607 b 393 607 376 599 389 599 l 569 951 b 596 972 578 967 583 972 l 658 972 b 681 932 686 972 690 950 l 457 504 b 458 478 453 494 453 488 l 688 42 b 665 0 697 22 693 0 l 601 0 b 574 21 588 0 582 6 l 393 374 b 372 374 389 382 376 382 l 190 21 b 163 0 182 6 176 0 l 99 0 "},"Ч":{"ha":764,"x_min":0,"x_max":0,"o":"m 568 0 b 540 28 553 0 540 13 l 540 388 b 508 417 540 401 529 418 b 339 383 476 415 435 383 b 64 643 172 383 64 500 l 64 944 b 92 972 64 960 76 972 l 144 972 b 172 944 160 972 172 960 l 172 650 b 356 492 172 557 247 492 b 540 576 465 492 540 528 l 540 944 b 568 972 540 960 553 972 l 621 972 b 649 944 636 972 649 960 l 649 28 b 621 0 649 13 636 0 l 568 0 "},"Ц":{"ha":764,"x_min":0,"x_max":0,"o":"m 638 972 b 665 944 653 972 665 960 l 665 107 l 724 107 b 751 79 739 107 751 94 l 751 -111 b 724 -139 751 -126 739 -139 l 678 -139 b 650 -111 663 -139 650 -126 l 650 0 l 126 0 b 99 28 111 0 99 13 l 99 944 b 126 972 99 960 111 972 l 179 972 b 207 944 194 972 207 960 l 207 122 b 221 108 207 114 213 108 l 543 108 b 557 122 551 108 557 114 l 557 944 b 585 972 557 960 569 972 l 638 972 "},"Ш":{"ha":764,"x_min":0,"x_max":0,"o":"m 85 0 b 57 28 69 0 57 13 l 57 944 b 85 972 57 960 69 972 l 131 972 b 158 944 146 972 158 960 l 158 114 b 172 100 158 106 164 100 l 317 100 b 331 114 325 100 331 106 l 331 944 b 358 972 331 960 343 972 l 406 972 b 433 944 421 972 433 960 l 433 114 b 447 100 433 106 439 100 l 592 100 b 606 114 600 100 606 106 l 606 944 b 633 972 606 960 618 972 l 679 972 b 707 944 694 972 707 960 l 707 28 b 679 0 707 13 694 0 l 85 0 "},"Щ":{"ha":764,"x_min":0,"x_max":0,"o":"m 85 0 b 57 28 69 0 57 13 l 57 944 b 85 972 57 960 69 972 l 131 972 b 158 944 146 972 158 960 l 158 114 b 172 100 158 106 164 100 l 317 100 b 331 114 325 100 331 106 l 331 944 b 358 972 331 960 343 972 l 406 972 b 433 944 421 972 433 960 l 433 114 b 447 100 433 106 439 100 l 592 100 b 606 114 600 100 606 106 l 606 944 b 633 972 606 960 618 972 l 679 972 b 707 944 694 972 707 960 l 707 107 l 738 107 b 765 79 753 107 765 94 l 765 -111 b 738 -139 765 -126 753 -139 l 692 -139 b 664 -111 676 -139 664 -126 l 664 0 l 85 0 "},"Џ":{"ha":764,"x_min":0,"x_max":0,"o":"m 638 972 b 665 944 653 972 665 960 l 665 28 b 638 0 665 13 653 0 l 432 0 l 432 -111 b 404 -139 432 -126 419 -139 l 358 -139 b 331 -111 343 -139 331 -126 l 331 0 l 126 0 b 99 28 111 0 99 13 l 99 944 b 126 972 99 960 111 972 l 179 972 b 207 944 194 972 207 960 l 207 122 b 221 108 207 114 213 108 l 543 108 b 557 122 551 108 557 114 l 557 944 b 585 972 557 960 569 972 l 638 972 "},"Ь":{"ha":764,"x_min":0,"x_max":0,"o":"m 139 0 b 111 28 124 0 111 13 l 111 944 b 139 972 111 960 124 972 l 192 972 b 219 944 207 972 219 960 l 219 606 b 233 592 219 597 225 592 l 389 592 b 681 296 550 592 681 458 b 389 0 681 132 550 0 l 139 0 m 219 122 b 233 108 219 114 225 108 l 385 108 b 571 296 488 108 571 193 b 385 483 571 399 488 483 l 233 483 b 219 469 225 483 219 478 l 219 122 "},"Ы":{"ha":764,"x_min":0,"x_max":0,"o":"m 79 0 b 51 28 64 0 51 13 l 51 944 b 79 972 51 960 64 972 l 126 972 b 154 944 142 972 154 960 l 154 606 b 168 592 154 597 160 592 l 256 592 b 539 296 411 592 539 465 b 256 0 539 125 411 0 l 79 0 m 154 115 b 168 101 154 107 160 101 l 251 101 b 435 296 350 101 435 185 b 251 489 435 407 350 489 l 168 489 b 154 475 160 489 154 483 l 154 115 m 611 944 b 639 972 611 960 624 972 l 686 972 b 714 944 701 972 714 960 l 714 28 b 686 0 714 13 701 0 l 639 0 b 611 28 624 0 611 13 "},"Ъ":{"ha":764,"x_min":0,"x_max":0,"o":"m 190 0 b 163 28 175 0 163 13 l 163 850 b 149 864 163 858 157 864 l 63 864 b 35 892 47 864 35 876 l 35 944 b 63 972 35 960 47 972 l 244 972 b 272 944 260 972 272 960 l 272 606 b 286 592 272 597 278 592 l 436 592 b 728 296 597 592 728 458 b 436 0 728 132 597 0 l 190 0 m 272 121 b 286 107 272 113 278 107 l 433 107 b 618 296 535 107 618 193 b 433 483 618 399 535 483 l 286 483 b 272 469 278 483 272 478 l 272 121 "},"Ѕ":{"ha":764,"x_min":0,"x_max":0,"o":"m 389 -15 b 78 279 208 -15 78 89 l 78 288 b 106 315 78 303 90 315 l 163 315 b 190 288 178 315 190 303 l 190 279 b 388 92 190 161 275 92 b 578 263 501 92 578 163 b 421 438 578 357 519 407 l 314 469 b 107 729 201 503 107 576 b 393 988 107 885 236 988 b 675 729 553 988 675 886 l 675 713 b 647 685 675 697 663 685 l 593 685 b 565 713 578 685 565 697 l 565 729 b 393 881 565 824 499 881 b 219 731 292 881 219 825 b 363 569 219 636 288 592 l 467 538 b 689 265 599 496 689 418 b 389 -15 689 106 567 -15 "},"Є":{"ha":764,"x_min":0,"x_max":0,"o":"m 406 -15 b 124 163 269 -15 171 58 b 83 486 89 238 83 350 b 124 810 83 622 88 735 b 406 988 171 913 269 988 b 715 686 593 988 715 860 b 688 658 715 671 703 658 l 629 658 b 601 686 614 658 601 671 b 406 878 601 796 529 878 b 222 754 329 878 258 839 b 196 542 203 706 197 625 l 464 542 b 492 514 479 542 492 529 l 492 465 b 464 438 492 450 479 438 l 196 438 b 222 218 197 351 201 268 b 406 94 258 135 329 94 b 601 286 529 94 601 176 b 629 314 601 301 614 314 l 688 314 b 715 286 703 314 715 301 b 406 -15 715 113 593 -15 "},"Э":{"ha":764,"x_min":0,"x_max":0,"o":"m 358 988 b 640 810 494 988 593 914 b 681 486 675 735 681 622 b 640 163 681 350 676 238 b 358 -15 593 60 494 -15 b 49 286 171 -15 49 113 b 76 314 49 301 61 314 l 135 314 b 163 286 150 314 163 301 b 358 94 163 176 235 94 b 542 218 435 94 506 133 b 568 431 561 267 567 347 l 300 431 b 272 458 285 431 272 443 l 272 507 b 300 535 272 522 285 535 l 568 535 b 542 754 567 621 563 704 b 358 878 506 838 435 878 b 163 686 235 878 163 796 b 135 658 163 671 150 658 l 76 658 b 49 686 61 658 49 671 b 358 988 49 860 171 988 "},"І":{"ha":764,"x_min":0,"x_max":0,"o":"m 132 0 b 104 28 117 0 104 13 l 104 81 b 132 108 104 96 117 108 l 328 108 l 328 864 l 146 864 b 118 892 131 864 118 876 l 118 944 b 146 972 118 960 131 972 l 618 972 b 646 944 633 972 646 960 l 646 892 b 618 864 646 876 633 864 l 436 864 l 436 108 l 632 108 b 660 81 647 108 660 96 l 660 28 b 632 0 660 13 647 0 l 132 0 "},"Ј":{"ha":764,"x_min":0,"x_max":0,"o":"m 350 -15 b 58 296 190 -15 58 99 l 58 313 b 86 340 58 328 72 340 l 142 340 b 169 313 157 340 169 328 l 169 296 b 350 94 169 160 243 94 b 531 296 457 94 531 160 l 531 944 b 558 972 531 960 543 972 l 613 972 b 640 944 628 972 640 960 l 640 296 b 350 -15 640 99 514 -15 "},"Ю":{"ha":764,"x_min":0,"x_max":0,"o":"m 481 -15 b 269 144 379 -15 304 42 b 240 440 246 211 242 321 l 169 440 l 169 28 b 142 0 169 13 157 0 l 94 0 b 67 28 79 0 67 13 l 67 944 b 94 972 67 960 79 972 l 142 972 b 169 944 157 972 169 960 l 169 549 l 240 549 b 269 828 242 661 247 764 b 481 988 304 931 379 988 b 692 828 583 988 657 931 b 721 486 718 753 721 622 b 692 144 721 350 718 219 b 481 -15 657 42 583 -15 m 346 486 b 360 200 346 383 346 260 b 481 94 382 115 429 94 b 601 200 532 94 578 115 b 617 486 617 258 617 383 b 601 772 617 589 617 714 b 481 878 578 857 532 878 b 360 772 429 878 382 857 b 346 486 346 713 346 589 "},"Я":{"ha":764,"x_min":0,"x_max":0,"o":"m 106 0 b 82 44 82 0 69 21 l 251 385 b 240 428 263 406 263 418 b 78 688 151 476 78 565 b 361 972 78 857 201 972 l 619 972 b 647 944 635 972 647 960 l 647 28 b 619 0 647 13 635 0 l 567 0 b 539 28 551 0 539 13 l 539 388 b 525 401 539 396 533 401 l 401 401 b 376 385 386 401 381 393 l 199 28 b 158 0 190 11 181 0 l 106 0 m 189 688 b 361 508 189 589 265 508 l 525 508 b 539 522 533 508 539 514 l 539 850 b 525 864 539 858 533 864 l 361 864 b 189 688 265 864 189 796 "},"а":{"ha":764,"x_min":0,"x_max":0,"o":"m 340 -15 b 103 201 182 -15 103 85 b 322 411 103 319 181 411 l 511 411 b 525 425 519 411 525 417 l 525 467 b 379 603 525 546 481 603 b 232 500 282 603 233 557 b 201 476 231 479 217 476 l 161 476 b 133 504 140 476 133 488 b 379 699 133 615 232 699 b 624 465 532 699 624 614 l 624 28 b 596 0 624 13 611 0 l 563 0 b 510 38 533 0 538 38 b 340 -15 474 38 449 -15 m 206 203 b 347 79 206 121 272 79 b 525 238 460 79 525 135 l 525 304 b 511 318 525 313 519 318 l 332 318 b 206 203 260 318 206 278 "},"б":{"ha":764,"x_min":0,"x_max":0,"o":"m 397 -15 b 163 106 296 -15 211 29 b 110 371 121 169 110 232 b 122 601 110 463 114 539 b 354 896 149 808 221 875 l 513 921 b 535 943 526 924 535 931 l 535 958 b 563 986 535 974 547 986 l 607 986 b 635 958 622 986 635 974 l 635 924 b 519 824 635 869 592 835 l 374 803 b 240 646 276 790 240 738 b 264 640 240 633 253 631 b 404 693 296 672 344 693 b 632 574 501 693 583 649 b 678 340 668 519 678 463 b 632 106 678 218 668 161 b 397 -15 582 29 497 -15 m 221 340 b 243 178 221 251 224 214 b 397 85 271 121 328 85 b 551 178 465 85 524 121 b 572 340 569 214 572 251 b 551 503 572 428 569 465 b 397 596 524 560 465 596 b 243 503 328 596 271 560 b 221 340 225 465 221 428 "},"в":{"ha":764,"x_min":0,"x_max":0,"o":"m 176 0 b 151 25 163 0 151 11 l 151 658 b 176 683 151 672 163 683 l 446 683 b 647 504 583 683 647 603 b 586 372 647 446 626 404 b 586 351 578 367 575 358 b 667 197 635 319 667 275 b 461 0 667 89 596 0 l 176 0 m 250 107 b 263 94 250 100 254 94 l 454 94 b 565 201 544 94 565 156 b 454 307 565 247 544 307 l 263 307 b 250 296 254 307 250 301 l 250 107 m 250 410 b 263 397 250 401 254 397 l 439 397 b 547 494 521 397 547 449 b 439 590 547 540 521 590 l 263 590 b 250 578 254 590 250 586 l 250 410 "},"г":{"ha":764,"x_min":0,"x_max":0,"o":"m 207 0 b 179 28 192 0 179 13 l 179 656 b 207 683 179 671 192 683 l 664 683 b 692 656 679 683 692 671 l 692 611 b 664 583 692 596 679 583 l 296 583 b 282 569 288 583 282 578 l 282 28 b 254 0 282 13 269 0 l 207 0 "},"д":{"ha":764,"x_min":0,"x_max":0,"o":"m 83 -139 b 56 -111 68 -139 56 -126 l 56 72 b 83 100 56 88 68 100 l 103 100 b 181 236 143 100 172 133 l 213 656 b 240 683 214 671 226 683 l 613 683 b 640 656 628 683 640 671 l 640 100 l 682 100 b 710 72 697 100 710 88 l 710 -111 b 682 -139 710 -126 697 -139 l 639 -139 b 611 -111 624 -139 611 -126 l 611 -14 b 597 0 611 -6 606 0 l 168 0 b 154 -14 160 0 154 -6 l 154 -111 b 126 -139 154 -126 142 -139 l 83 -139 m 540 100 l 540 572 b 526 586 540 581 535 586 l 318 586 b 304 572 310 586 306 581 l 279 235 b 251 100 275 178 265 133 "},"е":{"ha":764,"x_min":0,"x_max":0,"o":"m 388 -15 b 100 342 199 -15 100 103 b 385 699 100 575 190 699 b 665 389 565 699 665 579 l 665 335 b 638 307 665 319 653 307 l 219 307 b 206 294 211 307 206 301 b 388 81 206 144 285 81 b 544 183 464 81 518 101 b 578 207 550 197 563 207 l 622 207 b 646 178 639 207 649 194 b 388 -15 624 57 525 -15 m 207 415 b 221 401 207 406 213 401 l 549 401 b 563 415 557 401 563 406 b 386 604 563 526 501 604 b 207 415 269 604 207 526 "},"ё":{"ha":764,"x_min":0,"x_max":0,"o":"m 388 -15 b 100 342 199 -15 100 103 b 385 699 100 575 190 699 b 665 389 565 699 665 579 l 665 335 b 638 307 665 319 653 307 l 219 307 b 206 294 211 307 206 301 b 388 81 206 144 285 81 b 544 183 464 81 518 101 b 578 207 550 197 563 207 l 622 207 b 646 178 639 207 649 194 b 388 -15 624 57 525 -15 m 207 415 b 221 401 207 406 213 401 l 549 401 b 563 415 557 401 563 406 b 386 604 563 526 501 604 b 207 415 269 604 207 526 "},"ж":{"ha":764,"x_min":0,"x_max":0,"o":"m 676 0 b 635 22 656 0 639 13 l 454 297 b 429 288 449 307 429 301 l 429 28 b 401 0 429 13 417 0 l 363 0 b 335 28 347 0 335 13 l 335 288 b 310 297 335 301 315 307 l 131 22 b 89 0 125 13 108 0 l 54 0 b 33 47 28 0 19 26 l 224 339 b 224 374 231 351 232 360 l 42 638 b 64 683 31 654 33 683 l 94 683 b 133 665 114 683 128 674 l 310 411 b 335 421 315 401 335 407 l 335 656 b 363 683 335 671 347 683 l 401 683 b 429 656 417 683 429 671 l 429 421 b 454 411 429 407 449 401 l 631 665 b 669 683 636 674 650 683 l 700 683 b 722 638 731 683 733 654 l 540 374 b 540 339 532 360 532 351 l 731 47 b 710 0 743 28 736 0 l 676 0 "},"з":{"ha":764,"x_min":0,"x_max":0,"o":"m 393 -15 b 128 215 254 -15 128 60 b 147 236 128 226 138 236 l 210 236 b 231 215 222 236 231 226 b 393 79 231 131 300 79 b 554 204 486 79 554 125 b 421 314 554 268 501 314 l 361 314 b 335 340 346 314 335 325 l 335 381 b 361 407 335 396 346 407 l 419 407 b 539 501 497 407 539 449 b 396 604 539 568 472 604 b 250 500 321 604 251 568 b 229 478 250 488 240 478 l 171 478 b 149 500 158 478 149 488 b 396 699 149 631 268 699 b 639 504 542 699 639 625 b 574 374 639 446 615 403 b 574 351 567 368 563 358 b 657 203 621 325 657 279 b 393 -15 657 69 547 -15 "},"и":{"ha":764,"x_min":0,"x_max":0,"o":"m 158 0 b 131 28 143 0 131 13 l 131 656 b 158 683 131 671 143 683 l 204 683 b 232 656 219 683 232 671 l 232 206 b 256 201 232 196 246 188 l 540 651 b 579 683 550 669 564 683 l 631 683 b 658 656 646 683 658 671 l 658 28 b 631 0 658 13 646 0 l 583 0 b 556 28 568 0 556 13 l 556 461 b 532 469 556 479 539 479 l 258 42 b 208 0 244 19 225 0 l 158 0 "},"й":{"ha":764,"x_min":0,"x_max":0,"o":"m 158 0 b 131 28 143 0 131 13 l 131 656 b 158 683 131 671 143 683 l 204 683 b 232 656 219 683 232 671 l 232 206 b 256 201 232 196 246 188 l 540 651 b 579 683 550 669 564 683 l 631 683 b 658 656 646 683 658 671 l 658 28 b 631 0 658 13 646 0 l 583 0 b 556 28 568 0 556 13 l 556 461 b 532 469 556 479 539 479 l 258 42 b 208 0 244 19 225 0 l 158 0 "},"к":{"ha":764,"x_min":0,"x_max":0,"o":"m 592 0 b 550 21 571 0 557 14 l 281 297 b 256 288 271 307 256 301 l 256 28 b 228 0 256 13 243 0 l 181 0 b 153 28 165 0 153 13 l 153 656 b 181 683 153 671 165 683 l 228 683 b 256 656 243 683 256 671 l 256 421 b 281 411 256 407 271 403 l 551 665 b 589 683 557 674 569 683 l 639 683 b 661 638 668 683 675 651 l 382 374 b 382 339 371 363 371 351 l 669 47 b 649 0 686 31 675 0 l 592 0 "},"л":{"ha":764,"x_min":0,"x_max":0,"o":"m 104 -8 b 76 19 89 -8 76 4 l 76 72 b 104 100 76 88 89 100 l 121 100 b 181 190 154 100 176 133 l 214 656 b 244 683 215 671 229 683 l 635 683 b 663 656 650 683 663 671 l 663 28 b 635 0 663 13 650 0 l 588 0 b 560 28 572 0 560 13 l 560 568 b 546 582 560 576 554 582 l 325 582 b 311 568 317 582 311 576 l 281 179 b 131 -8 272 57 222 -8 l 104 -8 "},"м":{"ha":764,"x_min":0,"x_max":0,"o":"m 121 0 b 93 28 106 0 93 13 l 93 656 b 121 683 93 671 106 683 l 182 683 b 211 660 197 683 203 676 l 376 310 b 392 310 381 301 388 301 l 557 660 b 586 683 564 676 571 683 l 647 683 b 675 656 663 683 675 671 l 675 28 b 647 0 675 13 663 0 l 604 0 b 576 28 589 0 576 13 l 576 447 b 556 450 576 461 563 465 l 425 176 b 396 153 418 160 411 153 l 371 153 b 342 176 356 153 350 160 l 211 450 b 190 447 204 465 190 461 l 190 28 b 163 0 190 13 178 0 l 121 0 "},"н":{"ha":764,"x_min":0,"x_max":0,"o":"m 153 0 b 125 28 138 0 125 13 l 125 656 b 153 683 125 671 138 683 l 199 683 b 226 656 214 683 226 671 l 226 414 b 240 400 226 406 232 400 l 524 400 b 538 414 532 400 538 406 l 538 656 b 565 683 538 671 550 683 l 611 683 b 639 656 626 683 639 671 l 639 28 b 611 0 639 13 626 0 l 565 0 b 538 28 550 0 538 13 l 538 285 b 524 299 538 293 532 299 l 240 299 b 226 285 232 299 226 293 l 226 28 b 199 0 226 13 214 0 l 153 0 "},"о":{"ha":764,"x_min":0,"x_max":0,"o":"m 382 -15 b 144 107 281 -15 194 29 b 97 342 108 163 97 219 b 144 578 97 465 107 522 b 382 699 196 653 281 699 b 619 578 483 699 569 654 b 667 342 657 522 667 465 b 619 107 667 219 657 161 b 382 -15 569 29 483 -15 m 203 342 b 224 179 203 253 206 215 b 382 86 254 122 313 86 b 540 179 451 86 511 122 b 561 342 558 215 561 253 b 540 506 561 431 558 468 b 382 597 511 561 451 597 b 224 506 313 597 254 561 b 203 342 206 468 203 431 "},"п":{"ha":764,"x_min":0,"x_max":0,"o":"m 153 0 b 125 28 138 0 125 13 l 125 656 b 153 683 125 671 138 683 l 611 683 b 639 656 626 683 639 671 l 639 28 b 611 0 639 13 626 0 l 565 0 b 538 28 550 0 538 13 l 538 568 b 524 582 538 576 532 582 l 242 582 b 228 568 233 582 228 576 l 228 28 b 200 0 228 13 215 0 l 153 0 "},"р":{"ha":764,"x_min":0,"x_max":0,"o":"m 151 -250 b 124 -222 136 -250 124 -237 l 124 656 b 151 683 124 671 136 683 l 186 683 b 239 646 215 683 210 646 b 407 699 275 646 300 699 b 626 578 501 699 581 654 b 671 342 663 522 671 467 b 626 107 671 218 663 161 b 404 -15 581 29 500 -15 b 253 32 310 -15 283 32 b 226 -8 235 32 226 21 l 226 -222 b 199 -250 226 -237 214 -250 l 151 -250 m 224 342 b 243 179 224 253 225 215 b 394 86 269 122 326 86 b 546 179 463 86 519 122 b 567 342 565 215 567 253 b 546 506 567 431 565 468 b 394 597 519 561 463 597 b 243 506 326 597 269 561 b 224 342 225 468 224 431 "},"с":{"ha":764,"x_min":0,"x_max":0,"o":"m 399 -15 b 160 103 292 -15 210 32 b 108 342 114 168 108 242 b 160 582 108 444 114 517 b 399 699 210 653 292 699 b 664 472 551 699 664 606 b 640 446 664 458 656 446 l 586 446 b 558 468 572 446 558 453 b 397 599 558 544 493 599 b 236 504 326 599 267 565 b 214 342 215 464 214 418 b 236 179 214 267 215 219 b 397 86 267 118 326 86 b 558 217 493 86 557 140 b 586 238 558 231 572 238 l 640 238 b 664 211 656 238 664 226 b 399 -15 664 81 556 -15 "},"т":{"ha":764,"x_min":0,"x_max":0,"o":"m 358 0 b 331 28 343 0 331 13 l 331 568 b 317 582 331 576 325 582 l 86 582 b 58 610 71 582 58 594 l 58 656 b 86 683 58 671 71 683 l 676 683 b 704 656 692 683 704 671 l 704 610 b 676 582 704 594 692 582 l 447 582 b 433 568 439 582 433 576 l 433 28 b 406 0 433 13 421 0 l 358 0 "},"у":{"ha":764,"x_min":0,"x_max":0,"o":"m 250 -250 b 225 -211 226 -250 218 -228 l 319 24 b 319 54 325 39 325 40 l 81 639 b 103 683 68 671 85 683 l 156 683 b 182 663 168 683 175 679 l 371 193 b 393 193 375 181 388 181 l 579 663 b 606 683 586 679 593 683 l 660 683 b 681 639 678 683 694 671 l 325 -229 b 299 -250 319 -244 311 -250 l 250 -250 "},"ф":{"ha":764,"x_min":0,"x_max":0,"o":"m 333 -14 b 319 0 333 -7 328 0 l 308 0 b 36 342 163 0 36 110 b 308 683 36 574 163 683 l 319 683 b 333 697 328 683 333 689 l 333 958 b 361 986 333 974 346 986 l 403 986 b 431 958 418 986 431 974 l 431 697 b 444 683 431 690 438 683 l 456 683 b 728 342 601 683 728 574 b 456 0 728 110 601 0 l 444 0 b 431 -14 438 0 431 -7 l 431 -222 b 403 -250 431 -237 418 -250 l 361 -250 b 333 -222 346 -250 333 -237 l 333 -14 m 138 342 b 308 96 138 154 218 96 l 319 96 b 333 110 328 96 333 103 l 333 575 b 319 589 333 582 328 589 l 308 589 b 138 342 222 589 138 528 m 431 110 b 444 96 431 103 438 96 l 456 96 b 626 342 546 96 626 154 b 456 589 626 528 525 589 l 444 589 b 431 575 438 589 431 583 l 431 110 "},"х":{"ha":764,"x_min":0,"x_max":0,"o":"m 113 0 b 93 42 90 0 78 22 l 307 333 b 308 367 317 347 318 354 l 104 642 b 124 683 90 661 101 683 l 175 683 b 207 669 196 683 201 676 l 375 442 b 394 442 382 432 388 432 l 563 669 b 594 683 568 676 574 683 l 646 683 b 665 642 668 683 679 660 l 464 369 b 464 333 453 354 453 349 l 676 43 b 656 0 692 22 679 0 l 604 0 b 574 14 585 0 579 7 l 396 257 b 374 257 389 267 381 267 l 196 14 b 165 0 190 7 185 0 l 113 0 "},"ч":{"ha":764,"x_min":0,"x_max":0,"o":"m 554 0 b 526 28 539 0 526 13 l 526 235 b 496 264 526 249 515 264 b 354 231 469 264 432 231 b 110 478 206 231 110 340 l 110 656 b 138 683 110 671 122 683 l 183 683 b 211 656 199 683 211 671 l 211 481 b 368 331 211 393 275 331 b 526 422 461 331 526 371 l 526 656 b 554 683 526 671 539 683 l 600 683 b 628 656 615 683 628 671 l 628 28 b 600 0 628 13 615 0 l 554 0 "},"ц":{"ha":764,"x_min":0,"x_max":0,"o":"m 611 683 b 639 656 626 683 639 671 l 639 100 l 679 100 b 707 72 694 100 707 88 l 707 -111 b 679 -139 707 -126 694 -139 l 640 -139 b 613 -111 625 -139 613 -126 l 613 0 l 153 0 b 125 28 138 0 125 13 l 125 656 b 153 683 125 671 138 683 l 199 683 b 226 656 214 683 226 671 l 226 115 b 240 101 226 107 232 101 l 522 101 b 536 115 531 101 536 107 l 536 656 b 564 683 536 671 549 683 l 611 683 "},"ш":{"ha":764,"x_min":0,"x_max":0,"o":"m 93 0 b 65 28 78 0 65 13 l 65 656 b 93 683 65 671 78 683 l 133 683 b 161 656 149 683 161 671 l 161 111 b 175 97 161 103 167 97 l 321 97 b 335 111 329 97 335 103 l 335 656 b 363 683 335 671 347 683 l 401 683 b 429 656 417 683 429 671 l 429 111 b 443 97 429 103 435 97 l 589 97 b 603 111 597 97 603 103 l 603 656 b 631 683 603 671 615 683 l 671 683 b 699 656 686 683 699 671 l 699 28 b 671 0 699 13 686 0 l 93 0 "},"щ":{"ha":764,"x_min":0,"x_max":0,"o":"m 93 0 b 65 28 78 0 65 13 l 65 656 b 93 683 65 671 78 683 l 133 683 b 161 656 149 683 161 671 l 161 111 b 175 97 161 103 167 97 l 321 97 b 335 111 329 97 335 103 l 335 656 b 363 683 335 671 347 683 l 401 683 b 429 656 417 683 429 671 l 429 111 b 443 97 429 103 435 97 l 589 97 b 603 111 597 97 603 103 l 603 656 b 631 683 603 671 615 683 l 671 683 b 699 656 686 683 699 671 l 699 100 l 726 100 b 754 72 742 100 754 88 l 754 -111 b 726 -139 754 -126 742 -139 l 688 -139 b 660 -111 672 -139 660 -126 l 660 0 l 93 0 "},"ь":{"ha":764,"x_min":0,"x_max":0,"o":"m 169 0 b 142 28 154 0 142 13 l 142 656 b 169 683 142 671 154 683 l 215 683 b 243 656 231 683 243 671 l 243 493 b 258 479 243 485 249 479 l 438 479 b 676 239 586 479 676 371 b 438 0 676 108 586 0 l 169 0 m 243 111 b 257 97 243 103 249 97 l 432 97 b 571 239 526 97 571 167 b 432 382 571 313 526 382 l 257 382 b 243 368 249 382 243 376 l 243 111 "},"ы":{"ha":764,"x_min":0,"x_max":0,"o":"m 169 0 b 142 28 154 0 142 13 l 142 656 b 169 683 142 671 154 683 l 215 683 b 243 656 231 683 243 671 l 243 493 b 258 479 243 485 249 479 l 438 479 b 676 239 586 479 676 371 b 438 0 676 108 586 0 l 169 0 m 243 111 b 257 97 243 103 249 97 l 432 97 b 571 239 526 97 571 167 b 432 382 571 313 526 382 l 257 382 b 243 368 249 382 243 376 l 243 111 "},"ъ":{"ha":764,"x_min":0,"x_max":0,"o":"m 219 0 b 192 28 204 0 192 13 l 192 569 b 178 583 192 578 186 583 l 76 583 b 49 611 61 583 49 596 l 49 656 b 76 683 49 671 61 683 l 267 683 b 294 656 282 683 294 671 l 294 506 b 308 492 294 497 300 492 l 458 492 b 697 246 596 492 697 381 b 458 0 697 111 596 0 l 219 0 m 293 111 b 307 97 293 103 299 97 l 453 97 b 593 246 549 97 593 171 b 453 393 593 319 549 393 l 307 393 b 293 379 299 393 293 388 l 293 111 "},"ѕ":{"ha":764,"x_min":0,"x_max":0,"o":"m 386 -15 b 103 204 217 -15 103 68 b 131 229 103 219 115 229 l 179 229 b 207 204 194 229 207 219 b 386 79 207 126 279 79 b 551 192 494 79 551 129 b 447 289 551 240 525 275 l 304 314 b 124 503 181 336 124 406 b 388 699 124 618 235 699 b 646 504 536 699 646 621 b 618 476 646 489 633 476 l 571 476 b 543 504 556 476 543 489 b 388 604 542 565 483 604 b 228 504 285 604 228 565 b 351 406 228 453 261 421 l 471 385 b 656 194 599 363 656 296 b 386 -15 656 76 554 -15 "},"є":{"ha":764,"x_min":0,"x_max":0,"o":"m 399 -15 b 160 103 292 -15 210 32 b 108 342 114 168 108 242 b 160 582 108 444 114 517 b 399 699 210 653 292 699 b 664 472 551 699 664 606 b 640 446 664 458 656 446 l 586 446 b 558 468 572 446 558 453 b 397 599 558 544 493 599 b 236 504 326 599 267 565 b 214 386 219 472 215 438 l 432 386 b 460 358 447 386 460 374 l 460 328 b 432 300 460 313 447 300 l 214 300 b 236 179 215 249 219 211 b 397 86 267 118 326 86 b 558 217 493 86 557 140 b 586 238 558 231 572 238 l 640 238 b 664 211 656 238 664 226 b 399 -15 664 81 556 -15 "},"э":{"ha":764,"x_min":0,"x_max":0,"o":"m 365 699 b 604 581 472 699 554 651 b 656 342 650 515 656 442 b 604 101 656 239 650 167 b 365 -15 554 31 472 -15 b 100 211 213 -15 100 78 b 124 238 100 225 108 238 l 178 238 b 206 215 192 238 206 231 b 367 85 206 139 271 85 b 528 179 438 85 497 118 b 550 297 544 211 549 246 l 332 297 b 304 325 317 297 304 310 l 304 356 b 332 383 304 371 317 383 l 550 383 b 528 504 549 435 544 472 b 367 597 497 565 438 597 b 206 467 271 597 207 543 b 178 446 206 453 192 446 l 124 446 b 100 472 108 446 100 457 b 365 699 100 603 208 699 "},"ј":{"ha":764,"x_min":0,"x_max":0,"o":"m 338 -265 b 117 -33 217 -265 117 -185 b 146 -6 117 -18 129 -6 l 192 -6 b 219 -33 207 -6 219 -18 b 338 -165 219 -119 267 -165 b 451 -26 407 -165 451 -118 l 451 569 b 438 583 451 578 446 583 l 218 583 b 190 611 203 583 190 596 l 190 656 b 218 683 190 671 203 683 l 525 683 b 553 656 540 683 553 671 l 553 -26 b 338 -265 553 -190 457 -265 m 440 939 b 463 961 440 950 450 961 l 538 961 b 560 939 550 961 560 950 l 560 836 b 538 814 560 824 550 814 l 463 814 b 440 836 450 814 440 824 "},"ю":{"ha":764,"x_min":0,"x_max":0,"o":"m 483 -15 b 299 93 403 -15 338 15 b 263 299 274 142 265 203 l 181 299 b 167 285 172 299 167 293 l 167 26 b 138 0 167 13 153 0 l 99 0 b 71 26 83 0 71 13 l 71 656 b 99 683 71 671 83 683 l 139 683 b 167 656 154 683 167 671 l 167 414 b 181 400 167 406 172 400 l 263 400 b 299 592 265 489 275 546 b 483 699 339 667 403 699 b 667 592 563 699 629 668 b 703 342 696 536 703 465 b 667 93 703 219 696 147 b 483 -15 629 15 563 -15 m 360 342 b 374 163 360 251 361 200 b 483 82 393 106 433 82 b 592 163 532 82 574 106 b 606 342 606 200 606 251 b 592 521 606 432 606 483 b 483 603 574 578 532 603 b 374 521 433 603 393 578 b 360 342 361 483 360 432 "},"я":{"ha":764,"x_min":0,"x_max":0,"o":"m 181 0 b 157 49 156 0 142 26 l 282 250 b 276 269 290 261 283 267 b 139 469 197 301 139 367 b 360 683 139 601 244 683 l 621 683 b 649 656 636 683 649 671 l 649 28 b 621 0 649 13 636 0 l 575 0 b 547 28 560 0 547 13 l 547 239 b 533 253 547 247 542 253 l 421 253 b 393 236 404 253 400 247 l 267 28 b 225 0 256 11 247 0 l 181 0 m 243 468 b 364 350 243 397 290 350 l 533 350 b 547 364 542 350 547 356 l 547 572 b 533 586 547 581 542 586 l 364 586 b 243 468 290 586 243 540 "}}}
